<svg id="trend-chart" title="Stack Overflow Trends Chart" version="1.1" xmlns="http://www.w3.org/2000/svg"
        viewBox="0 0 660 400" preserveAspectRatio="xMidYMid meet">
    <g></g>
    <g class="chart-area" transform="translate(100, 20)">
        <g transform="translate(0,300)" fill="none" font-size="10" font-family="sans-serif" text-anchor="middle">
            <path class="domain" stroke="#000" d="M0.5,6V0.5H410.5V6"></path>
            <g class="tick" opacity="1" transform="translate(19.27121723996724,0)">
                <line stroke="#000" y2="6" x1="0.5" x2="0.5"></line>
                <text fill="#000" y="9" x="0.5" dy="0.71em" style="font-size: 12px;">2009</text>
            </g>
            <g class="tick" opacity="1" transform="translate(65.23251945126945,0)">
                <line stroke="#000" y2="6" x1="0.5" x2="0.5"></line>
                <text fill="#000" y="9" x="0.5" dy="0.71em" style="font-size: 12px;">2010</text>
            </g>
            <g class="tick" opacity="1" transform="translate(111.19382166257166,0)">
                <line stroke="#000" y2="6" x1="0.5" x2="0.5"></line>
                <text fill="#000" y="9" x="0.5" dy="0.71em" style="font-size: 12px;">2011</text>
            </g>
            <g class="tick" opacity="1" transform="translate(157.15512387387386,0)">
                <line stroke="#000" y2="6" x1="0.5" x2="0.5"></line>
                <text fill="#000" y="9" x="0.5" dy="0.71em" style="font-size: 12px;">2012</text>
            </g>
            <g class="tick" opacity="1" transform="translate(203.24234746109747,0)">
                <line stroke="#000" y2="6" x1="0.5" x2="0.5"></line>
                <text fill="#000" y="9" x="0.5" dy="0.71em" style="font-size: 12px;">2013</text>
            </g>
            <g class="tick" opacity="1" transform="translate(249.20364967239968,0)">
                <line stroke="#000" y2="6" x1="0.5" x2="0.5"></line>
                <text fill="#000" y="9" x="0.5" dy="0.71em" style="font-size: 12px;">2014</text>
            </g>
            <g class="tick" opacity="1" transform="translate(295.16495188370186,0)">
                <line stroke="#000" y2="6" x1="0.5" x2="0.5"></line>
                <text fill="#000" y="9" x="0.5" dy="0.71em" style="font-size: 12px;">2015</text>
            </g>
            <g class="tick" opacity="1" transform="translate(341.1262540950041,0)">
                <line stroke="#000" y2="6" x1="0.5" x2="0.5"></line>
                <text fill="#000" y="9" x="0.5" dy="0.71em" style="font-size: 12px;">2016</text>
            </g>
            <g class="tick" opacity="1" transform="translate(387.2134776822277,0)">
                <line stroke="#000" y2="6" x1="0.5" x2="0.5"></line>
                <text fill="#000" y="9" x="0.5" dy="0.71em" style="font-size: 12px;">2017</text>
            </g>
        </g>
        <g class="grid-lines" transform="translate(0,300)" fill="none" font-size="10" font-family="sans-serif"
           text-anchor="middle">
            <path class="domain" stroke="#000" d="M0.5,-300V0.5H410.5V-300"></path>
            <g class="tick" opacity="1" transform="translate(19.27121723996724,0)">
                <line stroke="#000" y2="-300" x1="0.5" x2="0.5" style="stroke: #ccc; fill: none;"></line>
            </g>
            <g class="tick" opacity="1" transform="translate(65.23251945126945,0)">
                <line stroke="#000" y2="-300" x1="0.5" x2="0.5" style="stroke: #ccc; fill: none;"></line>
            </g>
            <g class="tick" opacity="1" transform="translate(111.19382166257166,0)">
                <line stroke="#000" y2="-300" x1="0.5" x2="0.5" style="stroke: #ccc; fill: none;"></line>
            </g>
            <g class="tick" opacity="1" transform="translate(157.15512387387386,0)">
                <line stroke="#000" y2="-300" x1="0.5" x2="0.5" style="stroke: #ccc; fill: none;"></line>
            </g>
            <g class="tick" opacity="1" transform="translate(203.24234746109747,0)">
                <line stroke="#000" y2="-300" x1="0.5" x2="0.5" style="stroke: #ccc; fill: none;"></line>
            </g>
            <g class="tick" opacity="1" transform="translate(249.20364967239968,0)">
                <line stroke="#000" y2="-300" x1="0.5" x2="0.5" style="stroke: #ccc; fill: none;"></line>
            </g>
            <g class="tick" opacity="1" transform="translate(295.16495188370186,0)">
                <line stroke="#000" y2="-300" x1="0.5" x2="0.5" style="stroke: #ccc; fill: none;"></line>
            </g>
            <g class="tick" opacity="1" transform="translate(341.1262540950041,0)">
                <line stroke="#000" y2="-300" x1="0.5" x2="0.5" style="stroke: #ccc; fill: none;"></line>
            </g>
            <g class="tick" opacity="1" transform="translate(387.2134776822277,0)">
                <line stroke="#000" y2="-300" x1="0.5" x2="0.5" style="stroke: #ccc; fill: none;"></line>
            </g>
        </g>
        <text x="205" y="360" class="axis-label x-axis-label" style="text-anchor: middle; font-weight: bold;">Year
        </text>
        <g fill="none" font-size="10" font-family="sans-serif" text-anchor="end">
            <path class="domain" stroke="#000" d="M-6,300.5H0.5V0.5H-6"></path>
            <g class="tick" opacity="1" transform="translate(0,300)">
                <line stroke="#000" x2="-6" y1="0.5" y2="0.5"></line>
                <text fill="#000" x="-9" y="0.5" dy="0.32em" style="font-size: 12px;">0.00%</text>
            </g>
            <g class="tick" opacity="1" transform="translate(0,262.5)">
                <line stroke="#000" x2="-6" y1="0.5" y2="0.5"></line>
                <text fill="#000" x="-9" y="0.5" dy="0.32em" style="font-size: 12px;">0.10%</text>
            </g>
            <g class="tick" opacity="1" transform="translate(0,225)">
                <line stroke="#000" x2="-6" y1="0.5" y2="0.5"></line>
                <text fill="#000" x="-9" y="0.5" dy="0.32em" style="font-size: 12px;">0.20%</text>
            </g>
            <g class="tick" opacity="1" transform="translate(0,187.5)">
                <line stroke="#000" x2="-6" y1="0.5" y2="0.5"></line>
                <text fill="#000" x="-9" y="0.5" dy="0.32em" style="font-size: 12px;">0.30%</text>
            </g>
            <g class="tick" opacity="1" transform="translate(0,150)">
                <line stroke="#000" x2="-6" y1="0.5" y2="0.5"></line>
                <text fill="#000" x="-9" y="0.5" dy="0.32em" style="font-size: 12px;">0.40%</text>
            </g>
            <g class="tick" opacity="1" transform="translate(0,112.5)">
                <line stroke="#000" x2="-6" y1="0.5" y2="0.5"></line>
                <text fill="#000" x="-9" y="0.5" dy="0.32em" style="font-size: 12px;">0.50%</text>
            </g>
            <g class="tick" opacity="1" transform="translate(0,75)">
                <line stroke="#000" x2="-6" y1="0.5" y2="0.5"></line>
                <text fill="#000" x="-9" y="0.5" dy="0.32em" style="font-size: 12px;">0.60%</text>
            </g>
            <g class="tick" opacity="1" transform="translate(0,37.5)">
                <line stroke="#000" x2="-6" y1="0.5" y2="0.5"></line>
                <text fill="#000" x="-9" y="0.5" dy="0.32em" style="font-size: 12px;">0.70%</text>
            </g>
            <g class="tick" opacity="1" transform="translate(0,0)">
                <line stroke="#000" x2="-6" y1="0.5" y2="0.5"></line>
                <text fill="#000" x="-9" y="0.5" dy="0.32em" style="font-size: 12px;">0.80%</text>
            </g>
        </g>
        <g class="grid-lines" fill="none" font-size="10" font-family="sans-serif" text-anchor="end">
            <path class="domain" stroke="#000" d="M410,300.5H0.5V0.5H410"></path>
            <g class="tick" opacity="1" transform="translate(0,300)">
                <line stroke="#000" x2="410" y1="0.5" y2="0.5" style="stroke: #ccc; fill: none;"></line>
            </g>
            <g class="tick" opacity="1" transform="translate(0,262.5)">
                <line stroke="#000" x2="410" y1="0.5" y2="0.5" style="stroke: #ccc; fill: none;"></line>
            </g>
            <g class="tick" opacity="1" transform="translate(0,225)">
                <line stroke="#000" x2="410" y1="0.5" y2="0.5" style="stroke: #ccc; fill: none;"></line>
            </g>
            <g class="tick" opacity="1" transform="translate(0,187.5)">
                <line stroke="#000" x2="410" y1="0.5" y2="0.5" style="stroke: #ccc; fill: none;"></line>
            </g>
            <g class="tick" opacity="1" transform="translate(0,150)">
                <line stroke="#000" x2="410" y1="0.5" y2="0.5" style="stroke: #ccc; fill: none;"></line>
            </g>
            <g class="tick" opacity="1" transform="translate(0,112.5)">
                <line stroke="#000" x2="410" y1="0.5" y2="0.5" style="stroke: #ccc; fill: none;"></line>
            </g>
            <g class="tick" opacity="1" transform="translate(0,75)">
                <line stroke="#000" x2="410" y1="0.5" y2="0.5" style="stroke: #ccc; fill: none;"></line>
            </g>
            <g class="tick" opacity="1" transform="translate(0,37.5)">
                <line stroke="#000" x2="410" y1="0.5" y2="0.5" style="stroke: #ccc; fill: none;"></line>
            </g>
            <g class="tick" opacity="1" transform="translate(0,0)">
                <line stroke="#000" x2="410" y1="0.5" y2="0.5" style="stroke: #ccc; fill: none;"></line>
            </g>
        </g>
        <g class="lines">
            <path class="line"
                  d="M3.9035626535626538,300L7.681203931203931,300L11.590013308763309,300L15.367654586404585,300L19.27121723996724,300L23.174779893529895,300L26.70057841932842,300L30.598894348894348,300L34.37653562653563,300L38.28009828009828,300L42.05773955773956,300L45.96130221130221,300L49.86486486486487,300L53.64250614250615,300L57.551315520065515,300L61.328956797706795,300L65.23251945126945,300L69.1360821048321,300L72.66188063063062,300L76.56019656019656,300L80.33783783783784,300L84.2414004914005,300L88.01904176904176,300L91.92260442260442,300L95.82616707616708,300L99.60380835380836,300L103.51261773136774,300L107.29025900900902,300L111.19382166257166,300L115.09738431613431,300L118.62318284193283,300L122.52149877149877,300L126.29914004914005,300L130.20270270270268,300L133.98034398034397,300L137.88390663390663,300L141.7874692874693,300L145.5651105651106,300L149.47391994266994,300L153.25156122031123,299.29125L157.15512387387386,300L161.05868652743652,299.115L164.71040642915642,299.4525L168.60872235872236,299.43375L172.38636363636365,299.73L176.28992628992629,300L180.06756756756758,299.745L183.9711302211302,300L187.87469287469287,300L191.65233415233416,299.75625L195.56114352989354,300L199.3387848075348,300L203.24234746109747,299.77125L207.14591011466013,299.5275L210.67170864045866,300L214.5700245700246,299.3625L218.34766584766584,299.7825L222.25122850122852,299.77125L226.02886977886976,299.79375L229.93243243243245,300L233.8359950859951,300L237.61363636363637,299.6025L241.52244574119575,299.79375L245.30008701883702,299.115L249.20364967239968,299.80875L253.10721232596234,299.61L256.63301085176084,299.47125L260.5313267813268,299.625L264.3089680589681,298.965L268.21253071253074,299.55375L271.99017199017203,299.38125L275.89373464373466,299.1075L279.7972972972973,297.135L283.5749385749386,295.97625L287.48374795249794,298.245L291.26138923013923,296.93625L295.16495188370186,296.25L299.06851453726455,293.025L302.59431306306305,295.365L306.492628992629,294.00375L310.27027027027026,296.44125L314.17383292383295,293.94375L317.95147420147424,294.73875L321.8550368550369,296.15625L325.7585995085995,296.2875L329.5362407862408,288.585L333.44505016380015,283.31625L337.22269144144144,284.89875L341.1262540950041,281.985L345.02981674856676,274.90125L348.68153665028666,275.835L352.57985257985257,280.8225L356.35749385749386,280.09875L360.2610565110565,279.35625L364.0386977886978,283.03125L367.9422604422604,283.52625L371.8458230958231,279.71625L375.62346437346434,279.49875L379.53227375102375,274.96125L383.30991502866505,277.92L387.2134776822277,272.7L391.1170403357903,276.84375L394.64283886158887,270.49875L398.5411547911548,273.6525L402.3187960687961,233.14499999999998L406.2223587223587,197.66250000000002L410,207.76125000000002"
                  data-legend="kotlin" style="stroke: rgb(31, 119, 180); fill: none;"></path>
            <path class="line"
                  d="M3.9035626535626538,281.925L7.681203931203931,282.4125L11.590013308763309,285.52875L15.367654586404585,290.86875L19.27121723996724,272.1225L23.174779893529895,274.81875L26.70057841932842,269.3175L30.598894348894348,253.32L34.37653562653563,282.8025L38.28009828009828,216.37124999999997L42.05773955773956,232.75125L45.96130221130221,218.5575L49.86486486486487,229.33125L53.64250614250615,197.9925L57.551315520065515,208.66875L61.328956797706795,217.665L65.23251945126945,213.36375L69.1360821048321,204.91875L72.66188063063062,218.38125000000002L76.56019656019656,179.34375L80.33783783783784,180.31875L84.2414004914005,184.52625L88.01904176904176,188.05875L91.92260442260442,201.22125L95.82616707616708,162.9075L99.60380835380836,174.23250000000002L103.51261773136774,188.1L107.29025900900902,180.10125L111.19382166257166,183.10500000000002L115.09738431613431,178.20375L118.62318284193283,190.8L122.52149877149877,195.40500000000003L126.29914004914005,179.6325L130.20270270270268,176.41500000000002L133.98034398034397,144.225L137.88390663390663,149.94375L141.7874692874693,148.66125000000002L145.5651105651106,130.07999999999998L149.47391994266994,146.05875000000003L153.25156122031123,167.71875L157.15512387387386,186.04500000000002L161.05868652743652,185.445L164.71040642915642,173.22000000000003L168.60872235872236,184.84875L172.38636363636365,184.71375L176.28992628992629,175.125L180.06756756756758,173.61L183.9711302211302,179.715L187.87469287469287,151.14375L191.65233415233416,168.12375L195.56114352989354,162.315L199.3387848075348,169.5675L203.24234746109747,166.29375000000002L207.14591011466013,160.11749999999998L210.67170864045866,159.22125L214.5700245700246,153.51749999999998L218.34766584766584,154.45875L222.25122850122852,140.29874999999998L226.02886977886976,154.26000000000002L229.93243243243245,151.4025L233.8359950859951,127.45874999999998L237.61363636363637,132.38250000000002L241.52244574119575,122.59125000000003L245.30008701883702,117.80624999999998L249.20364967239968,150.08625L253.10721232596234,138.21375L256.63301085176084,135.11624999999998L260.5313267813268,125.19375000000002L264.3089680589681,122.9625L268.21253071253074,87.37875L271.99017199017203,115.0575L275.89373464373466,106.275L279.7972972972973,111.37874999999997L283.5749385749386,119.74125000000001L287.48374795249794,99.60374999999999L291.26138923013923,96.255L295.16495188370186,101.31750000000002L299.06851453726455,107.49375L302.59431306306305,103.84874999999997L306.492628992629,99.99375L310.27027027027026,90.23250000000004L314.17383292383295,65.93625L317.95147420147424,75.975L321.8550368550369,66.53625L325.7585995085995,53.75625000000002L329.5362407862408,82.8825L333.44505016380015,75.87L337.22269144144144,63.68999999999997L341.1262540950041,89.26875000000001L345.02981674856676,76.4325L348.68153665028666,63.588749999999976L352.57985257985257,64.27499999999998L356.35749385749386,68.11499999999998L360.2610565110565,58.82624999999999L364.0386977886978,52.672499999999985L367.9422604422604,43.64625000000001L371.8458230958231,41.3775L375.62346437346434,47.0025L379.53227375102375,36.81375000000003L383.30991502866505,49.36125000000001L387.2134776822277,70.76999999999995L391.1170403357903,80.17125000000001L394.64283886158887,74.60625000000002L398.5411547911548,80.49374999999998L402.3187960687961,83.78250000000003L406.2223587223587,75.63749999999999L410,63.84000000000003"
                  data-legend="scala" style="stroke: rgb(255, 127, 14); fill: none;"></path>
            <path class="line"
                  d="M3.9035626535626538,261.26625L7.681203931203931,227.1375L11.590013308763309,245.00625L15.367654586404585,236.0625L19.27121723996724,258.18375000000003L23.174779893529895,255.93375L26.70057841932842,245.85L30.598894348894348,248.13375L34.37653562653563,252.6975L38.28009828009828,239.895L42.05773955773956,258.9675L45.96130221130221,241.18125L49.86486486486487,236.0625L53.64250614250615,245.93625L57.551315520065515,264.43125L61.328956797706795,250.99125L65.23251945126945,248.0175L69.1360821048321,251.22L72.66188063063062,254.57625000000002L76.56019656019656,247.44375L80.33783783783784,243.72375L84.2414004914005,238.2825L88.01904176904176,265.32375L91.92260442260442,265.7175L95.82616707616708,241.42125000000001L99.60380835380836,240.885L103.51261773136774,256.515L107.29025900900902,263.39625L111.19382166257166,255.18375L115.09738431613431,244.8825L118.62318284193283,242.29874999999998L122.52149877149877,257.3175L126.29914004914005,241.2825L130.20270270270268,229.485L133.98034398034397,245.88375000000002L137.88390663390663,246.09L141.7874692874693,244.15125L145.5651105651106,241.54500000000002L149.47391994266994,239.5725L153.25156122031123,247.515L157.15512387387386,244.60500000000002L161.05868652743652,244.64625L164.71040642915642,252.90375L168.60872235872236,257.35125L172.38636363636365,256.395L176.28992628992629,256.78499999999997L180.06756756756758,248.15625L183.9711302211302,259.7325L187.87469287469287,266.33625L191.65233415233416,266.41875L195.56114352989354,260.235L199.3387848075348,250.92000000000002L203.24234746109747,255.045L207.14591011466013,264.97125L210.67170864045866,263.55L214.5700245700246,264.07125L218.34766584766584,265.04625L222.25122850122852,260.71125L226.02886977886976,263.1L229.93243243243245,260.96625L233.8359950859951,257.64375L237.61363636363637,254.415L241.52244574119575,256.8975L245.30008701883702,260.7225L249.20364967239968,257.28L253.10721232596234,257.06625L256.63301085176084,252.03375L260.5313267813268,254.04L264.3089680589681,248.94375L268.21253071253074,247.12875L271.99017199017203,235.9425L275.89373464373466,233.03625L279.7972972972973,238.89375L283.5749385749386,234.76125000000002L287.48374795249794,250.56L291.26138923013923,241.755L295.16495188370186,249.88875000000002L299.06851453726455,252.0375L302.59431306306305,246.2775L306.492628992629,260.92875L310.27027027027026,262.43625000000003L314.17383292383295,257.99625000000003L317.95147420147424,244.935L321.8550368550369,257.07375L325.7585995085995,253.1475L329.5362407862408,252.95625L333.44505016380015,253.65L337.22269144144144,261.5025L341.1262540950041,260.73L345.02981674856676,253.305L348.68153665028666,248.2125L352.57985257985257,252.70875L356.35749385749386,260.58L360.2610565110565,253.155L364.0386977886978,253.22625L367.9422604422604,247.3125L371.8458230958231,248.16375L375.62346437346434,251.30625L379.53227375102375,255.58875L383.30991502866505,258.22875L387.2134776822277,249.97875L391.1170403357903,247.065L394.64283886158887,252.0975L398.5411547911548,248.73000000000002L402.3187960687961,243.8625L406.2223587223587,247.68L410,250.3725"
                  data-legend="groovy" style="stroke: rgb(44, 160, 44); fill: none;"></path>
            <path class="line"
                  d="M3.9035626535626538,292.25625L7.681203931203931,282.4125L11.590013308763309,276.84749999999997L15.367654586404585,281.73375L19.27121723996724,283.74L23.174779893529895,281.115L26.70057841932842,280.1475L30.598894348894348,291.35625L34.37653562653563,292.83375L38.28009828009828,267.33375L42.05773955773956,237.31125L45.96130221130221,267.19875L49.86486486486487,267.4725L53.64250614250615,239.81625L57.551315520065515,255.77625L61.328956797706795,262.755L65.23251945126945,269.47125L69.1360821048321,266.10375L72.66188063063062,271.6125L76.56019656019656,266.6925L80.33783783783784,252.26999999999998L84.2414004914005,248.235L88.01904176904176,242.20499999999998L91.92260442260442,241.89375L95.82616707616708,244.44L99.60380835380836,254.79375L103.51261773136774,254.925L107.29025900900902,250.1325L111.19382166257166,251.48624999999998L115.09738431613431,258.2175L118.62318284193283,263.115L122.52149877149877,257.7L126.29914004914005,272.11125L130.20270270270268,273.6525L133.98034398034397,264.89625L137.88390663390663,266.00625L141.7874692874693,270.45375L145.5651105651106,237.1875L149.47391994266994,263.88L153.25156122031123,251.77125L157.15512387387386,257.9025L161.05868652743652,255.30375L164.71040642915642,261.6675L168.60872235872236,246.2625L172.38636363636365,253.9425L176.28992628992629,240.79125L180.06756756756758,256.40999999999997L183.9711302211302,252.19875000000002L187.87469287469287,254.0925L191.65233415233416,263.47875L195.56114352989354,271.91625L199.3387848075348,269.08875L203.24234746109747,262.23L207.14591011466013,255.26625L210.67170864045866,249.93375L214.5700245700246,253.23000000000002L218.34766584766584,258.22875L222.25122850122852,261.405L226.02886977886976,263.92875L229.93243243243245,263.985L233.8359950859951,258.75L237.61363636363637,261.78L241.52244574119575,263.9775L245.30008701883702,256.06125L249.20364967239968,257.86125L253.10721232596234,259.605L256.63301085176084,266.85L260.5313267813268,255.35625L264.3089680589681,263.265L268.21253071253074,267.37875L271.99017199017203,265.4925L275.89373464373466,262.82625L279.7972972972973,254.5575L283.5749385749386,252.97875L287.48374795249794,262.2075L291.26138923013923,261.09L295.16495188370186,260.7075L299.06851453726455,262.06875L302.59431306306305,263.475L306.492628992629,266.73L310.27027027027026,268.17L314.17383292383295,271.2825L317.95147420147424,268.42875L321.8550368550369,256.46625L325.7585995085995,263.88L329.5362407862408,271.065L333.44505016380015,266.21625L337.22269144144144,271.28625L341.1262540950041,257.49L345.02981674856676,252.32999999999998L348.68153665028666,267.83625L352.57985257985257,265.36875L356.35749385749386,262.12874999999997L360.2610565110565,271.815L364.0386977886978,269.37L367.9422604422604,269.53875L371.8458230958231,270.13875L375.62346437346434,273.825L379.53227375102375,272.22L383.30991502866505,271.755L387.2134776822277,274.16625L391.1170403357903,277.395L394.64283886158887,276.525L398.5411547911548,275.61375L402.3187960687961,277.545L406.2223587223587,280.66875L410,281.86125"
                  data-legend="clojure" style="stroke: rgb(214, 39, 40); fill: none;"></path>
        </g>
    </g>
    <g transform="translate(20, 150)">
        <text transform="rotate(-90)" x="-50" y="0" dy="1em" class="axis-label y-axis-label"
              style="text-anchor: middle; font-weight: bold;">% of Stack Overflow questions that month
        </text>
    </g>
    <g class="legend" transform="translate(530, 30)" style="font-size: 12px;">
        <text class="legend-title" style="font-weight: bold;">Tag</text>
        <g class="legend-items" transform="translate(0,20)">
            <text y="0em" x="1em">scala</text>
            <text y="1em" x="1em">kotlin</text>
            <text y="2em" x="1em">groovy</text>
            <text y="3em" x="1em">clojure</text>
            <circle cy="-0.25em" cx="0" r="0.4em" style="fill: rgb(255, 127, 14);"></circle>
            <circle cy="0.75em" cx="0" r="0.4em" style="fill: rgb(31, 119, 180);"></circle>
            <circle cy="1.75em" cx="0" r="0.4em" style="fill: rgb(44, 160, 44);"></circle>
            <circle cy="2.75em" cx="0" r="0.4em" style="fill: rgb(214, 39, 40);"></circle>
        </g>
        <rect class="legend-box"></rect>
    </g>
</svg>
