<svg id="trend-chart" width="660" height="400" title="Stack Overflow Trends Chart" version="1.1" xmlns="http://www.w3.org/2000/svg"><g></g><g class="chart-area" transform="translate(100, 20)"><g transform="translate(0,300)" fill="none" font-size="10" font-family="sans-serif" text-anchor="middle"><path class="domain" stroke="#000" d="M0.5,6V0.5H410.5V6"></path><g class="tick" opacity="1" transform="translate(16.759184036858564,0)"><line stroke="#000" y2="6" x1="0.5" x2="0.5"></line><text fill="#000" y="9" x="0.5" dy="0.71em" style="font-size: 12px;">2009</text></g><g class="tick" opacity="1" transform="translate(56.72935887020488,0)"><line stroke="#000" y2="6" x1="0.5" x2="0.5"></line><text fill="#000" y="9" x="0.5" dy="0.71em" style="font-size: 12px;">2010</text></g><g class="tick" opacity="1" transform="translate(96.6995337035512,0)"><line stroke="#000" y2="6" x1="0.5" x2="0.5"></line><text fill="#000" y="9" x="0.5" dy="0.71em" style="font-size: 12px;">2011</text></g><g class="tick" opacity="1" transform="translate(136.66970853689753,0)"><line stroke="#000" y2="6" x1="0.5" x2="0.5"></line><text fill="#000" y="9" x="0.5" dy="0.71em" style="font-size: 12px;">2012</text></g><g class="tick" opacity="1" transform="translate(176.74939069855435,0)"><line stroke="#000" y2="6" x1="0.5" x2="0.5"></line><text fill="#000" y="9" x="0.5" dy="0.71em" style="font-size: 12px;">2013</text></g><g class="tick" opacity="1" transform="translate(216.71956553190068,0)"><line stroke="#000" y2="6" x1="0.5" x2="0.5"></line><text fill="#000" y="9" x="0.5" dy="0.71em" style="font-size: 12px;">2014</text></g><g class="tick" opacity="1" transform="translate(256.68974036524696,0)"><line stroke="#000" y2="6" x1="0.5" x2="0.5"></line><text fill="#000" y="9" x="0.5" dy="0.71em" style="font-size: 12px;">2015</text></g><g class="tick" opacity="1" transform="translate(296.6599151985933,0)"><line stroke="#000" y2="6" x1="0.5" x2="0.5"></line><text fill="#000" y="9" x="0.5" dy="0.71em" style="font-size: 12px;">2016</text></g><g class="tick" opacity="1" transform="translate(336.7395973602502,0)"><line stroke="#000" y2="6" x1="0.5" x2="0.5"></line><text fill="#000" y="9" x="0.5" dy="0.71em" style="font-size: 12px;">2017</text></g><g class="tick" opacity="1" transform="translate(376.70977219359645,0)"><line stroke="#000" y2="6" x1="0.5" x2="0.5"></line><text fill="#000" y="9" x="0.5" dy="0.71em" style="font-size: 12px;">2018</text></g></g><g class="grid-lines" transform="translate(0,300)" fill="none" font-size="10" font-family="sans-serif" text-anchor="middle"><path class="domain" stroke="#000" d="M0.5,-300V0.5H410.5V-300"></path><g class="tick" opacity="1" transform="translate(16.759184036858564,0)"><line stroke="#000" y2="-300" x1="0.5" x2="0.5" style="stroke: #ccc; fill: none;"></line></g><g class="tick" opacity="1" transform="translate(56.72935887020488,0)"><line stroke="#000" y2="-300" x1="0.5" x2="0.5" style="stroke: #ccc; fill: none;"></line></g><g class="tick" opacity="1" transform="translate(96.6995337035512,0)"><line stroke="#000" y2="-300" x1="0.5" x2="0.5" style="stroke: #ccc; fill: none;"></line></g><g class="tick" opacity="1" transform="translate(136.66970853689753,0)"><line stroke="#000" y2="-300" x1="0.5" x2="0.5" style="stroke: #ccc; fill: none;"></line></g><g class="tick" opacity="1" transform="translate(176.74939069855435,0)"><line stroke="#000" y2="-300" x1="0.5" x2="0.5" style="stroke: #ccc; fill: none;"></line></g><g class="tick" opacity="1" transform="translate(216.71956553190068,0)"><line stroke="#000" y2="-300" x1="0.5" x2="0.5" style="stroke: #ccc; fill: none;"></line></g><g class="tick" opacity="1" transform="translate(256.68974036524696,0)"><line stroke="#000" y2="-300" x1="0.5" x2="0.5" style="stroke: #ccc; fill: none;"></line></g><g class="tick" opacity="1" transform="translate(296.6599151985933,0)"><line stroke="#000" y2="-300" x1="0.5" x2="0.5" style="stroke: #ccc; fill: none;"></line></g><g class="tick" opacity="1" transform="translate(336.7395973602502,0)"><line stroke="#000" y2="-300" x1="0.5" x2="0.5" style="stroke: #ccc; fill: none;"></line></g><g class="tick" opacity="1" transform="translate(376.70977219359645,0)"><line stroke="#000" y2="-300" x1="0.5" x2="0.5" style="stroke: #ccc; fill: none;"></line></g></g><text x="205" y="360" class="axis-label x-axis-label" style="text-anchor: middle; font-weight: bold;">Year</text><g fill="none" font-size="10" font-family="sans-serif" text-anchor="end"><path class="domain" stroke="#000" d="M-6,300.5H0.5V0.5H-6"></path><g class="tick" opacity="1" transform="translate(0,300)"><line stroke="#000" x2="-6" y1="0.5" y2="0.5"></line><text fill="#000" x="-9" y="0.5" dy="0.32em" style="font-size: 12px;">0.00%</text></g><g class="tick" opacity="1" transform="translate(0,262.5)"><line stroke="#000" x2="-6" y1="0.5" y2="0.5"></line><text fill="#000" x="-9" y="0.5" dy="0.32em" style="font-size: 12px;">0.10%</text></g><g class="tick" opacity="1" transform="translate(0,225)"><line stroke="#000" x2="-6" y1="0.5" y2="0.5"></line><text fill="#000" x="-9" y="0.5" dy="0.32em" style="font-size: 12px;">0.20%</text></g><g class="tick" opacity="1" transform="translate(0,187.5)"><line stroke="#000" x2="-6" y1="0.5" y2="0.5"></line><text fill="#000" x="-9" y="0.5" dy="0.32em" style="font-size: 12px;">0.30%</text></g><g class="tick" opacity="1" transform="translate(0,150)"><line stroke="#000" x2="-6" y1="0.5" y2="0.5"></line><text fill="#000" x="-9" y="0.5" dy="0.32em" style="font-size: 12px;">0.40%</text></g><g class="tick" opacity="1" transform="translate(0,112.5)"><line stroke="#000" x2="-6" y1="0.5" y2="0.5"></line><text fill="#000" x="-9" y="0.5" dy="0.32em" style="font-size: 12px;">0.50%</text></g><g class="tick" opacity="1" transform="translate(0,75)"><line stroke="#000" x2="-6" y1="0.5" y2="0.5"></line><text fill="#000" x="-9" y="0.5" dy="0.32em" style="font-size: 12px;">0.60%</text></g><g class="tick" opacity="1" transform="translate(0,37.5)"><line stroke="#000" x2="-6" y1="0.5" y2="0.5"></line><text fill="#000" x="-9" y="0.5" dy="0.32em" style="font-size: 12px;">0.70%</text></g><g class="tick" opacity="1" transform="translate(0,0)"><line stroke="#000" x2="-6" y1="0.5" y2="0.5"></line><text fill="#000" x="-9" y="0.5" dy="0.32em" style="font-size: 12px;">0.80%</text></g></g><g class="grid-lines" fill="none" font-size="10" font-family="sans-serif" text-anchor="end"><path class="domain" stroke="#000" d="M410,300.5H0.5V0.5H410"></path><g class="tick" opacity="1" transform="translate(0,300)"><line stroke="#000" x2="410" y1="0.5" y2="0.5" style="stroke: #ccc; fill: none;"></line></g><g class="tick" opacity="1" transform="translate(0,262.5)"><line stroke="#000" x2="410" y1="0.5" y2="0.5" style="stroke: #ccc; fill: none;"></line></g><g class="tick" opacity="1" transform="translate(0,225)"><line stroke="#000" x2="410" y1="0.5" y2="0.5" style="stroke: #ccc; fill: none;"></line></g><g class="tick" opacity="1" transform="translate(0,187.5)"><line stroke="#000" x2="410" y1="0.5" y2="0.5" style="stroke: #ccc; fill: none;"></line></g><g class="tick" opacity="1" transform="translate(0,150)"><line stroke="#000" x2="410" y1="0.5" y2="0.5" style="stroke: #ccc; fill: none;"></line></g><g class="tick" opacity="1" transform="translate(0,112.5)"><line stroke="#000" x2="410" y1="0.5" y2="0.5" style="stroke: #ccc; fill: none;"></line></g><g class="tick" opacity="1" transform="translate(0,75)"><line stroke="#000" x2="410" y1="0.5" y2="0.5" style="stroke: #ccc; fill: none;"></line></g><g class="tick" opacity="1" transform="translate(0,37.5)"><line stroke="#000" x2="410" y1="0.5" y2="0.5" style="stroke: #ccc; fill: none;"></line></g><g class="tick" opacity="1" transform="translate(0,0)"><line stroke="#000" x2="410" y1="0.5" y2="0.5" style="stroke: #ccc; fill: none;"></line></g></g><g class="lines"><path class="line" d="M3.394727177626674,300L6.679947026942809,300L10.079237009915754,300L13.364456859231892,300L16.759184036858564,300L20.153911214485237,300L23.2201164071803,300L26.610280779460695,300L29.895500628776837,300L33.29022780640351,300L36.57544765571964,300L39.97017483334632,300L43.36490201097299,300L46.650121860289126,300L50.04941184326207,300L53.334631692578206,300L56.72935887020488,300L60.124086047831554,300L63.19029124052661,300L66.58045561280701,300L69.86567546212315,300L73.26040263974983,300L76.54562248906596,300L79.94034966669264,300L83.3350768443193,300L86.62029669363545,300L90.01958667660838,300L93.30480652592453,300L96.6995337035512,300L100.09426088117787,300L103.16046607387294,300L106.55063044615333,300L109.83585029546948,300L113.23057747309615,300L116.51579732241228,300L119.91052450003896,300L123.30525167766562,300L126.59047152698177,300L129.98976150995472,300L133.27498135927084,299.625L136.66970853689753,300L140.0644357145242,299.25L143.24014823552977,299.625L146.63031260781017,299.625L149.91553245712632,300L153.31025963475298,300L156.59547948406913,300L159.9902066616958,300L163.38493383932246,300L166.6701536886386,300L170.06944367161157,300L173.3546635209277,300L176.74939069855435,300L180.14411787618104,299.625L183.21032306887608,300L186.6004874411565,299.625L189.88570729047262,300L193.28043446809932,300L196.56565431741544,300L199.9603814950421,300L203.3551086726688,300L206.6403285219849,299.625L210.0396185049579,300L213.324838354274,299.25L216.71956553190068,300L220.11429270952735,299.625L223.1804979022224,300L226.57066227450284,299.625L229.85588212381893,299.25L233.25060930144565,299.625L236.53582915076174,299.625L239.93055632838843,299.25L243.3252835060151,297.375L246.61050335533125,296.25L250.00979333830418,298.5L253.29501318762033,297L256.68974036524696,296.25L260.08446754287365,293.25L263.1506727355687,295.5L266.54083710784914,294L269.8260569571653,296.625L273.2207841347919,294L276.5060039841081,294.75L279.9007311617347,296.25L283.2954583393614,296.625L286.58067818867755,288.75L289.9799681716505,283.5L293.2651880209666,285L296.6599151985933,282L300.05464237622,275.25L303.2303548972256,276L306.62051926950596,280.875L309.90573911882217,280.125L313.3004662964488,279.75L316.58568614576495,283.125L319.9804133233916,282.75L323.3751405010183,277.125L326.66036035033443,277.125L330.0596503333074,271.875L333.3448701826235,276L336.7395973602502,270L340.1343245378768,274.5L343.2005297305719,267L346.5906941028523,270.375L349.87591395216845,223.875L353.27064112979514,185.25L356.55586097911123,193.875L359.9505881567379,181.5L363.34531533436456,187.5L366.63053518368076,170.625L370.02982516665367,145.87500000000003L373.3150450159698,159.375L376.70977219359645,157.875L380.10449937122314,160.12500000000003L383.1707045639182,142.125L386.56086893619863,132.00000000000003L389.8460887855148,133.125L393.2408159631414,126L396.52603581245756,108.37500000000003L399.9207629900842,97.87499999999997L403.3154901677109,93.00000000000003L406.60071001702704,76.875L410,79.12499999999994" data-legend="kotlin" style="stroke: rgb(31, 119, 180); fill: none; opacity: 1; stroke-width: 1px;"></path><path class="line" d="M3.394727177626674,282L6.679947026942809,282.375L10.079237009915754,285.75L13.364456859231892,291L16.759184036858564,272.25L20.153911214485237,274.875L23.2201164071803,269.25L26.610280779460695,253.125L29.895500628776837,282.75L33.29022780640351,217.5L36.57544765571964,232.875L39.97017483334632,218.625L43.36490201097299,229.125L46.650121860289126,198L50.04941184326207,208.5L53.334631692578206,217.5L56.72935887020488,213.375L60.124086047831554,204.75L63.19029124052661,218.25L66.58045561280701,178.87500000000003L69.86567546212315,180.75L73.26040263974983,184.875L76.54562248906596,187.5L79.94034966669264,200.625L83.3350768443193,163.5L86.62029669363545,172.875L90.01958667660838,187.5L93.30480652592453,179.25L96.6995337035512,183.375L100.09426088117787,178.50000000000003L103.16046607387294,190.5L106.55063044615333,195.375L109.83585029546948,179.625L113.23057747309615,176.25L116.51579732241228,143.625L119.91052450003896,150L123.30525167766562,148.125L126.59047152698177,130.125L129.98976150995472,145.5L133.27498135927084,167.25L136.66970853689753,186L140.0644357145242,185.625L143.24014823552977,172.875L146.63031260781017,184.5L149.91553245712632,184.5L153.31025963475298,174.75L156.59547948406913,173.25L159.9902066616958,179.25L163.38493383932246,150.37500000000003L166.6701536886386,167.625L170.06944367161157,162L173.3546635209277,168.74999999999997L176.74939069855435,165.75L180.14411787618104,159L183.21032306887608,158.25L186.6004874411565,152.625L189.88570729047262,154.12500000000003L193.28043446809932,139.87499999999997L196.56565431741544,153.75000000000003L199.9603814950421,151.12500000000003L203.3551086726688,127.5L206.6403285219849,132.00000000000003L210.0396185049579,122.25L213.324838354274,117.375L216.71956553190068,150L220.11429270952735,137.62500000000003L223.1804979022224,135L226.57066227450284,125.25L229.85588212381893,122.62500000000003L233.25060930144565,86.99999999999997L236.53582915076174,114.375L239.93055632838843,106.5L243.3252835060151,111.37500000000003L246.61050335533125,119.25000000000003L250.00979333830418,99.37500000000006L253.29501318762033,96.37499999999997L256.68974036524696,100.87500000000006L260.08446754287365,106.875L263.1506727355687,103.50000000000003L266.54083710784914,99.75L269.8260569571653,90.375L273.2207841347919,66.75L276.5060039841081,75.37500000000003L279.9007311617347,66.00000000000003L283.2954583393614,52.875L286.58067818867755,81.75000000000003L289.9799681716505,75.75000000000003L293.2651880209666,63.75L296.6599151985933,88.875L300.05464237622,75.75000000000003L303.2303548972256,63L306.62051926950596,63.37500000000003L309.90573911882217,67.125L313.3004662964488,57.75000000000006L316.58568614576495,51.75L319.9804133233916,36.74999999999994L323.3751405010183,25.5L326.66036035033443,30.75L330.0596503333074,16.875L333.3448701826235,31.5L336.7395973602502,55.875L340.1343245378768,67.87499999999997L343.2005297305719,60.75L346.5906941028523,66.00000000000003L349.87591395216845,67.125L353.27064112979514,58.125L356.55586097911123,42.75L359.9505881567379,56.25L363.34531533436456,46.12499999999997L366.63053518368076,66.00000000000003L370.02982516665367,60L373.3150450159698,90.00000000000006L376.70977219359645,75L380.10449937122314,73.5L383.1707045639182,64.5L386.56086893619863,54.74999999999997L389.8460887855148,72.00000000000003L393.2408159631414,86.25L396.52603581245756,90.00000000000006L399.9207629900842,111.74999999999997L403.3154901677109,100.87500000000006L406.60071001702704,110.24999999999997L410,118.875" data-legend="scala" style="stroke: rgb(255, 127, 14); fill: none; opacity: 1; stroke-width: 1px;"></path><path class="line" d="M3.394727177626674,261L6.679947026942809,226.875L10.079237009915754,244.875L13.364456859231892,235.875L16.759184036858564,258L20.153911214485237,255.75L23.2201164071803,245.625L26.610280779460695,248.25L29.895500628776837,252.75L33.29022780640351,241.125L36.57544765571964,259.125L39.97017483334632,241.125L43.36490201097299,235.875L46.650121860289126,246L50.04941184326207,265.5L53.334631692578206,250.875L56.72935887020488,247.875L60.124086047831554,251.25L63.19029124052661,254.625L66.58045561280701,247.5L69.86567546212315,243.75L73.26040263974983,238.125L76.54562248906596,265.875L79.94034966669264,265.5L83.3350768443193,241.125L86.62029669363545,241.125L90.01958667660838,256.5L93.30480652592453,264L96.6995337035512,255L100.09426088117787,244.875L103.16046607387294,242.25L106.55063044615333,257.25L109.83585029546948,241.5L113.23057747309615,229.5L116.51579732241228,246L119.91052450003896,246L123.30525167766562,244.125L126.59047152698177,241.5L129.98976150995472,239.25L133.27498135927084,247.5L136.66970853689753,244.5L140.0644357145242,244.5L143.24014823552977,252.75L146.63031260781017,257.25L149.91553245712632,256.5L153.31025963475298,256.875L156.59547948406913,247.875L159.9902066616958,259.875L163.38493383932246,266.625L166.6701536886386,266.25L170.06944367161157,260.25L173.3546635209277,250.875L176.74939069855435,255L180.14411787618104,265.125L183.21032306887608,263.625L186.6004874411565,264L189.88570729047262,265.125L193.28043446809932,261L196.56565431741544,263.25L199.9603814950421,261L203.3551086726688,257.625L206.6403285219849,254.25L210.0396185049579,256.875L213.324838354274,261L216.71956553190068,257.625L220.11429270952735,257.25L223.1804979022224,252.375L226.57066227450284,254.625L229.85588212381893,249L233.25060930144565,247.125L236.53582915076174,236.25L239.93055632838843,233.25L243.3252835060151,238.875L246.61050335533125,234.75L250.00979333830418,250.5L253.29501318762033,241.875L256.68974036524696,249.75L260.08446754287365,251.625L263.1506727355687,246.375L266.54083710784914,261.375L269.8260569571653,262.875L273.2207841347919,258L276.5060039841081,244.875L279.9007311617347,257.25L283.2954583393614,253.5L286.58067818867755,253.125L289.9799681716505,253.875L293.2651880209666,261L296.6599151985933,260.625L300.05464237622,253.5L303.2303548972256,248.25L306.62051926950596,252.75L309.90573911882217,260.625L313.3004662964488,253.125L316.58568614576495,253.125L319.9804133233916,246L323.3751405010183,245.625L326.66036035033443,249.375L330.0596503333074,254.625L333.3448701826235,258.75L336.7395973602502,249.75L340.1343245378768,247.875L343.2005297305719,249.375L346.5906941028523,246.75L349.87591395216845,240.75L353.27064112979514,244.125L356.55586097911123,248.625L359.9505881567379,241.125L363.34531533436456,245.625L366.63053518368076,235.875L370.02982516665367,237.75L373.3150450159698,241.125L376.70977219359645,244.875L380.10449937122314,248.625L383.1707045639182,253.5L386.56086893619863,247.5L389.8460887855148,247.875L393.2408159631414,248.625L396.52603581245756,256.125L399.9207629900842,244.5L403.3154901677109,247.5L406.60071001702704,253.125L410,253.5" data-legend="groovy" style="stroke: rgb(44, 160, 44); fill: none; opacity: 1; stroke-width: 1px;"></path><path class="line" d="M3.394727177626674,292.5L6.679947026942809,282.375L10.079237009915754,276.75L13.364456859231892,281.625L16.759184036858564,283.875L20.153911214485237,281.25L23.2201164071803,280.125L26.610280779460695,291.375L29.895500628776837,292.875L33.29022780640351,267.375L36.57544765571964,237.375L39.97017483334632,267.375L43.36490201097299,267.375L46.650121860289126,239.625L50.04941184326207,255.75L53.334631692578206,262.875L56.72935887020488,269.625L60.124086047831554,267L63.19029124052661,271.5L66.58045561280701,266.625L69.86567546212315,252.375L73.26040263974983,248.625L76.54562248906596,242.25L79.94034966669264,241.875L83.3350768443193,245.625L86.62029669363545,254.625L90.01958667660838,254.625L93.30480652592453,250.5L96.6995337035512,251.625L100.09426088117787,258.375L103.16046607387294,263.25L106.55063044615333,257.625L109.83585029546948,272.25L113.23057747309615,273.75L116.51579732241228,264.75L119.91052450003896,265.875L123.30525167766562,270.375L126.59047152698177,237L129.98976150995472,264L133.27498135927084,251.625L136.66970853689753,258L140.0644357145242,255.375L143.24014823552977,261.75L146.63031260781017,246.75L149.91553245712632,253.875L153.31025963475298,241.125L156.59547948406913,256.5L159.9902066616958,252.375L163.38493383932246,254.25L166.6701536886386,263.625L170.06944367161157,271.875L173.3546635209277,268.875L176.74939069855435,262.125L180.14411787618104,255L183.21032306887608,249.75L186.6004874411565,253.125L189.88570729047262,258.375L193.28043446809932,261.375L196.56565431741544,264L199.9603814950421,264L203.3551086726688,258.75L206.6403285219849,261.75L210.0396185049579,264L213.324838354274,256.125L216.71956553190068,258L220.11429270952735,259.5L223.1804979022224,267L226.57066227450284,255.75L229.85588212381893,263.25L233.25060930144565,267.375L236.53582915076174,265.5L239.93055632838843,262.875L243.3252835060151,254.625L246.61050335533125,253.125L250.00979333830418,262.5L253.29501318762033,261L256.68974036524696,261L260.08446754287365,262.125L263.1506727355687,263.625L266.54083710784914,266.625L269.8260569571653,268.5L273.2207841347919,271.5L276.5060039841081,268.5L279.9007311617347,256.5L283.2954583393614,264L286.58067818867755,271.5L289.9799681716505,266.25L293.2651880209666,271.875L296.6599151985933,257.25L300.05464237622,252.375L303.2303548972256,268.125L306.62051926950596,265.5L309.90573911882217,262.125L313.3004662964488,271.875L316.58568614576495,269.25L319.9804133233916,268.5L323.3751405010183,267.375L326.66036035033443,270.75L330.0596503333074,269.625L333.3448701826235,268.875L336.7395973602502,271.125L340.1343245378768,275.25L343.2005297305719,274.5L346.5906941028523,273.75L349.87591395216845,274.875L353.27064112979514,277.5L356.55586097911123,279L359.9505881567379,280.875L363.34531533436456,282.375L366.63053518368076,278.25L370.02982516665367,278.625L373.3150450159698,279L376.70977219359645,279.375L380.10449937122314,280.125L383.1707045639182,280.125L386.56086893619863,283.875L389.8460887855148,282.375L393.2408159631414,288L396.52603581245756,288.75L399.9207629900842,286.5L403.3154901677109,280.875L406.60071001702704,284.25L410,283.875" data-legend="clojure" style="stroke: rgb(214, 39, 40); fill: none; opacity: 1; stroke-width: 1px;"></path></g></g><g transform="translate(20, 150)"><text transform="rotate(-90)" x="-50" y="0" dy="1em" class="axis-label y-axis-label" style="text-anchor: middle; font-weight: bold;">% of Stack Overflow questions that month</text></g><g class="legend" transform="translate(530, 30)" style="font-size: 12px;"><text class="legend-title" style="font-weight: bold;">Tag</text><g class="legend-items" transform="translate(0,20)"><text y="0em" x="1em" style="font-weight: normal;">scala</text><text y="1em" x="1em" style="font-weight: normal;">kotlin</text><text y="2em" x="1em" style="font-weight: normal;">groovy</text><text y="3em" x="1em" style="font-weight: normal;">clojure</text><circle cy="-0.25em" cx="0" r="0.4em" style="fill: rgb(255, 127, 14);"></circle><circle cy="0.75em" cx="0" r="0.4em" style="fill: rgb(31, 119, 180); font-weight: normal;"></circle><circle cy="1.75em" cx="0" r="0.4em" style="fill: rgb(44, 160, 44);"></circle><circle cy="2.75em" cx="0" r="0.4em" style="fill: rgb(214, 39, 40);"></circle></g><rect class="legend-box"></rect></g></svg>