<svg xmlns="http://www.w3.org/2000/svg" viewBox="0 0 256 256">
    <path fill="#FFF" d="M4 126a124 124 0 1 0 248 0 124 124 0 1 0-248 0"/>
    <path fill="#3375F8" d="M13.3 126a114.7 114.7 0 1 0 229.4 0 114.7 114.7 0 1 0-229.4 0"/>
    <path d="M128.194 39.2c-.775 0-1.453-.581-1.453-1.356V17.597c0-.775.678-1.356 1.453-1.356s1.453.581 1.453 1.356v20.247c-.097.775-.678 1.356-1.453 1.356z"
          fill="#F3F3F3"/>
    <path d="M128.194 39.297c-.872 0-1.55-.678-1.55-1.453V17.597c0-.775.678-1.453 1.55-1.453s1.55.678 1.55 1.453v20.247c0 .775-.775 1.453-1.55 1.453zm0-22.96c-.678 0-1.356.582-1.356 1.26v20.247c0 .678.581 1.26 1.356 1.26.678 0 1.356-.582 1.356-1.26V17.597c-.096-.678-.678-1.26-1.356-1.26z"
          fill="#FFF"/>
    <path d="M137.882 28.35c-.775-.097-1.356-.678-1.356-1.453l.678-9.01c.096-.774.775-1.356 1.55-1.259.775.097 1.356.679 1.356 1.454l-.678 9.009c-.097.775-.775 1.356-1.55 1.26z"
          fill="#F3F3F3"/>
    <path d="M137.882 28.447c-.872-.097-1.453-.775-1.453-1.55l.678-9.01c.097-.774.775-1.452 1.647-1.356.871.097 1.453.776 1.453 1.55l-.678 9.01c-.097.872-.775 1.453-1.647 1.356zm.872-11.722c-.678 0-1.357.485-1.357 1.163l-.678 9.01c0 .677.485 1.259 1.26 1.355.678 0 1.356-.484 1.356-1.162l.678-9.01c0-.678-.581-1.259-1.26-1.356z"
          fill="#FFF"/>
    <path d="M145.148 40.944c-.776-.194-1.26-.872-1.163-1.647l3.972-19.86c.194-.774.872-1.259 1.647-1.065.775.194 1.259.872 1.162 1.647l-3.972 19.86c-.097.677-.872 1.162-1.647 1.065z"
          fill="#F3F3F3"/>
    <path d="M145.148 41.041c-.873-.194-1.357-.969-1.26-1.744l3.972-19.86c.194-.774.969-1.356 1.84-1.162.872.194 1.357.969 1.26 1.744l-3.972 19.86c-.194.774-.969 1.259-1.84 1.162zm4.552-22.572c-.678-.097-1.356.29-1.55.969l-3.971 19.86c-.097.677.29 1.355 1.065 1.55.678.096 1.356-.292 1.55-.97l3.972-19.859c.097-.775-.387-1.356-1.066-1.55z"
          fill="#FFF"/>
    <path d="M156.772 32.225a1.444 1.444 0 0 1-1.065-1.744l2.422-8.718c.193-.775.968-1.163 1.743-.969.775.194 1.26.969 1.066 1.744l-2.422 8.719c-.194.774-.969 1.162-1.744.968z"
          fill="#F3F3F3"/>
    <path d="M156.772 32.322c-.775-.194-1.356-1.066-1.065-1.84l2.422-8.72c.193-.774 1.065-1.259 1.84-1.065.775.194 1.356 1.066 1.066 1.84l-2.422 8.72c-.194.774-.969 1.259-1.84 1.065zm3.197-11.334c-.678-.194-1.453.194-1.647.872l-2.421 8.718c-.194.678.193 1.357.968 1.55.678.194 1.453-.193 1.647-.871l2.422-8.72c.097-.677-.29-1.355-.969-1.55z"
          fill="#FFF"/>
    <path d="M161.519 45.885c-.775-.291-1.065-1.163-.775-1.841l7.75-18.697c.29-.678 1.163-1.066 1.84-.678.776.29 1.067 1.163.776 1.84l-7.75 18.697c-.29.679-1.163 1.066-1.84.679z"
          fill="#F3F3F3"/>
    <path d="M161.519 45.982a1.505 1.505 0 0 1-.872-1.938l7.75-18.697c.291-.775 1.163-1.066 2.035-.775a1.505 1.505 0 0 1 .872 1.938l-7.75 18.697c-.388.775-1.26 1.162-2.035.775zm8.816-21.216c-.678-.29-1.453 0-1.744.678l-7.75 18.697c-.29.678.097 1.356.775 1.647.678.29 1.453 0 1.744-.678l7.75-18.697c.194-.582-.097-1.357-.775-1.647z"
          fill="#FFF"/>
    <path d="M174.598 39.685c-.679-.388-.97-1.163-.679-1.841l4.069-8.04c.387-.679 1.162-.97 1.938-.582.678.388.968 1.163.678 1.84l-4.07 8.041c-.387.678-1.162.97-1.937.582z"
          fill="#F3F3F3"/>
    <path d="M174.598 39.782c-.776-.388-1.066-1.26-.679-2.035l4.069-8.04c.387-.776 1.26-1.066 2.034-.679.775.388 1.066 1.26.678 2.035l-4.068 8.04c-.388.775-1.26 1.066-2.035.678zm5.328-10.56c-.679-.29-1.454-.097-1.744.581l-4.069 8.041c-.29.581 0 1.356.581 1.744.678.29 1.453.097 1.744-.581l4.069-8.041c.29-.581 0-1.356-.581-1.744z"
          fill="#FFF"/>
    <path d="M176.535 54.022c-.678-.484-.872-1.356-.388-1.937l11.238-16.76c.387-.678 1.26-.775 1.937-.387.679.484.872 1.356.388 1.937l-11.238 16.76c-.387.678-1.259.872-1.937.387z"
          fill="#F3F3F3"/>
    <path d="M176.535 54.119c-.678-.484-.872-1.453-.484-2.131l11.237-16.76c.484-.678 1.356-.872 2.131-.387.678.484.872 1.453.485 2.131l-11.238 16.76c-.484.678-1.453.871-2.131.387zm12.787-19.084c-.58-.388-1.453-.291-1.84.29l-11.238 16.76c-.387.58-.194 1.356.388 1.743.581.388 1.453.291 1.84-.29l11.238-16.663c.387-.581.194-1.453-.388-1.84z"
          fill="#FFF"/>
    <path d="M190.678 50.438c-.58-.485-.774-1.357-.29-1.938l5.619-7.072c.484-.58 1.356-.678 1.937-.193.582.484.775 1.356.29 1.937l-5.618 7.072c-.484.581-1.356.678-1.937.194z"
          fill="#F3F3F3"/>
    <path d="M190.582 50.535c-.678-.485-.775-1.454-.29-2.132l5.618-7.071c.484-.679 1.453-.776 2.131-.194.678.484.775 1.453.29 2.131l-5.618 7.072c-.484.678-1.453.775-2.131.194zm7.265-9.204c-.58-.484-1.356-.387-1.84.194l-5.619 7.072c-.387.581-.29 1.356.29 1.84.582.485 1.357.388 1.841-.193l5.619-7.072c.388-.581.29-1.453-.29-1.84z"
          fill="#FFF"/>
    <path d="M189.71 64.969c-.581-.581-.581-1.453 0-1.938l14.337-14.24c.582-.581 1.453-.485 1.938 0 .484.484.581 1.453 0 1.937l-14.24 14.241c-.582.581-1.454.581-2.035 0z"
          fill="#F3F3F3"/>
    <path d="M189.613 65.066a1.52 1.52 0 0 1 0-2.131l14.337-14.241a1.52 1.52 0 0 1 2.132 0 1.52 1.52 0 0 1 0 2.131l-14.338 14.24a1.52 1.52 0 0 1-2.131 0zm16.372-16.275c-.484-.485-1.356-.485-1.84 0l-14.338 14.24c-.485.485-.485 1.357 0 1.841.484.485 1.356.485 1.84 0l14.338-14.24c.484-.485.484-1.26 0-1.841z"
          fill="#FFF"/>
    <path d="M204.241 64.194c-.484-.581-.484-1.453.097-1.938l6.878-5.812c.581-.484 1.453-.388 1.938.194.484.581.484 1.453-.097 1.937l-6.878 5.813c-.582.484-1.454.387-1.938-.194z"
          fill="#F3F3F3"/>
    <path d="M204.144 64.291c-.581-.678-.484-1.647.097-2.131l6.878-5.813c.581-.581 1.55-.484 2.131.194.582.678.485 1.647-.096 2.131l-6.879 5.813c-.58.58-1.55.484-2.13-.194zm8.913-7.653c-.485-.581-1.26-.581-1.84-.194l-6.879 5.813c-.484.484-.581 1.259-.097 1.84.484.581 1.26.581 1.84.194l6.879-5.813c.581-.484.581-1.259.097-1.84z"
          fill="#FFF"/>
    <path d="M200.366 78.144c-.484-.678-.29-1.55.388-1.938l16.856-11.237c.678-.388 1.55-.194 1.937.388.485.678.291 1.55-.387 1.937l-16.856 11.237c-.582.388-1.454.194-1.938-.387z"
          fill="#F3F3F3"/>
    <path d="M200.269 78.144c-.484-.678-.29-1.647.388-2.131l16.856-11.238c.678-.484 1.647-.29 2.131.485.485.678.29 1.647-.387 2.13l-16.856 11.239c-.679.485-1.647.291-2.132-.484zm19.181-12.69c-.387-.582-1.162-.776-1.743-.388L200.85 76.303c-.58.388-.775 1.163-.29 1.841.387.581 1.162.775 1.744.388l16.856-11.238c.581-.484.678-1.26.29-1.84z"
          fill="#FFF"/>
    <path d="M214.801 80.179c-.388-.679-.194-1.55.484-1.938l7.847-4.456c.678-.388 1.55-.097 1.937.58.388.679.194 1.55-.484 1.938l-7.847 4.457c-.678.387-1.55.097-1.938-.582z"
          fill="#F3F3F3"/>
    <path d="M214.704 80.275c-.388-.775-.194-1.647.484-2.034l7.847-4.456c.678-.388 1.647-.097 2.034.58.388.776.194 1.648-.484 2.035l-7.847 4.457c-.678.387-1.647.096-2.034-.582zm10.268-5.812c-.387-.678-1.162-.872-1.743-.485l-7.847 4.457c-.581.387-.775 1.162-.485 1.743.388.678 1.163.872 1.744.485l7.847-4.457c.581-.29.775-1.065.484-1.743z"
          fill="#FFF"/>
    <path d="M208.31 93.063c-.29-.775 0-1.55.775-1.84l18.697-7.75c.678-.291 1.55.096 1.84.774.291.775 0 1.55-.775 1.84l-18.696 7.75c-.679.291-1.55 0-1.841-.774z"
          fill="#F3F3F3"/>
    <path d="M208.213 93.159c-.29-.774 0-1.646.775-2.034l18.697-7.75a1.505 1.505 0 0 1 1.937.872c.291.775 0 1.647-.775 2.034l-18.696 7.75a1.505 1.505 0 0 1-1.938-.871zm21.216-8.815c-.291-.678-1.066-.969-1.647-.775l-18.697 7.75c-.678.29-.969 1.066-.678 1.744.29.678 1.065.969 1.647.775l18.696-7.75c.679-.29.97-1.066.679-1.744z"
          fill="#FFF"/>
    <path d="M221.969 97.907c-.29-.776.097-1.55.872-1.841l8.525-2.81c.678-.29 1.55.194 1.744.872.29.775-.097 1.55-.872 1.841l-8.525 2.81c-.678.29-1.453-.097-1.744-.873z"
          fill="#F3F3F3"/>
    <path d="M221.872 98.003c-.29-.775.097-1.647.97-1.937l8.524-2.81c.775-.29 1.647.194 1.938.97.29.774-.097 1.646-.97 1.937l-8.524 2.81c-.775.193-1.647-.195-1.938-.97zm11.238-3.68c-.194-.679-.969-1.067-1.647-.873l-8.525 2.81c-.678.193-.969.968-.775 1.647.194.678.969 1.065 1.647.871l8.525-2.809c.678-.29.969-.969.775-1.647z"
          fill="#FFF"/>
    <path d="M213.251 109.435c-.194-.775.29-1.55 1.065-1.647l19.86-3.875c.774-.194 1.453.387 1.646 1.162.194.775-.29 1.55-1.065 1.647l-19.86 3.875c-.775.097-1.55-.387-1.647-1.162z"
          fill="#F3F3F3"/>
    <path d="M213.057 109.435c-.194-.872.387-1.647 1.162-1.841l19.86-3.875c.775-.194 1.55.388 1.743 1.26.194.871-.387 1.646-1.162 1.84l-19.86 3.875c-.774.194-1.55-.387-1.743-1.26zm22.572-4.36c-.097-.678-.775-1.162-1.453-1.065l-19.86 3.875c-.678.097-1.162.871-.969 1.55.097.678.775 1.162 1.454 1.065l19.859-3.875c.678-.194 1.162-.872.969-1.55z"
          fill="#FFF"/>
    <path d="M225.651 116.894c-.097-.775.387-1.453 1.162-1.55l8.912-1.066c.775-.096 1.454.485 1.55 1.26.097.775-.387 1.453-1.162 1.55l-8.913 1.065c-.678.097-1.453-.484-1.55-1.259z"
          fill="#F3F3F3"/>
    <path d="M225.554 116.894c-.097-.872.484-1.647 1.259-1.744l8.912-1.065c.775-.097 1.55.484 1.647 1.356.097.872-.484 1.647-1.259 1.744l-8.913 1.065c-.774.097-1.55-.484-1.646-1.356zm11.721-1.356c-.096-.678-.774-1.26-1.453-1.163l-8.912 1.066c-.678.097-1.163.775-1.066 1.453.097.678.775 1.26 1.453 1.163l8.913-1.066c.678-.097 1.162-.775 1.066-1.453z"
          fill="#FFF"/>
    <path d="M214.801 126.291c0-.775.58-1.453 1.356-1.453h20.247c.775 0 1.356.678 1.356 1.453s-.581 1.453-1.356 1.453h-20.247c-.775 0-1.356-.678-1.356-1.453z"
          fill="#F3F3F3"/>
    <path d="M214.704 126.291c0-.872.678-1.55 1.453-1.55h20.247c.775 0 1.453.678 1.453 1.55s-.678 1.55-1.453 1.55h-20.247c-.775 0-1.453-.678-1.453-1.55zm22.959.097c0-.678-.581-1.356-1.26-1.356h-20.245c-.678 0-1.26.58-1.26 1.356 0 .678.582 1.356 1.26 1.356h20.247c.678-.097 1.259-.678 1.259-1.356z"
          fill="#FFF"/>
    <path d="M225.554 136.075c.096-.775.678-1.356 1.453-1.356l9.01.678c.774.097 1.355.775 1.258 1.55-.096.775-.678 1.356-1.453 1.356l-9.009-.678c-.678-.097-1.26-.775-1.26-1.55z"
          fill="#F3F3F3"/>
    <path d="M225.457 136.075c.097-.872.775-1.453 1.55-1.453l9.01.678c.774.097 1.452.775 1.355 1.647-.096.872-.775 1.453-1.55 1.453l-9.009-.678c-.775-.097-1.356-.872-1.356-1.647zm11.819.872c.096-.678-.485-1.356-1.163-1.356l-9.01-.678c-.677 0-1.259.484-1.356 1.26-.096.677.485 1.355 1.163 1.355l9.01.678c.677 0 1.259-.58 1.356-1.259z"
          fill="#FFF"/>
    <path d="M213.057 143.147c.194-.775.872-1.26 1.647-1.162l19.859 3.972c.775.193 1.26.871 1.066 1.646-.194.775-.872 1.26-1.647 1.163l-19.86-3.972c-.678-.097-1.162-.872-1.065-1.647z"
          fill="#F3F3F3"/>
    <path d="M212.96 143.147c.194-.872.969-1.356 1.744-1.26l19.859 3.973c.775.193 1.356.968 1.162 1.84-.193.872-.968 1.357-1.743 1.26l-19.86-3.972c-.775-.194-1.259-.969-1.162-1.84zm22.572 4.553c.097-.678-.29-1.356-.969-1.55l-19.86-3.972c-.677-.096-1.356.291-1.55 1.066-.096.678.291 1.356.97 1.55l19.859 3.972c.775.097 1.356-.388 1.55-1.066z"
          fill="#FFF"/>
    <path d="M221.776 154.772a1.444 1.444 0 0 1 1.743-1.065l8.719 2.421c.775.194 1.162.97.969 1.744a1.444 1.444 0 0 1-1.744 1.066l-8.719-2.422c-.775-.194-1.162-.969-.969-1.744z"
          fill="#F3F3F3"/>
    <path d="M221.678 154.772c.194-.775 1.066-1.356 1.841-1.065l8.719 2.421c.775.194 1.26 1.066 1.066 1.841-.194.775-1.066 1.356-1.841 1.066l-8.719-2.422c-.775-.194-1.26-.969-1.065-1.84zm11.335 3.197c.194-.678-.194-1.453-.872-1.647l-8.719-2.422c-.678-.194-1.356.194-1.55.969-.193.678.194 1.453.872 1.647l8.719 2.422c.678.097 1.356-.29 1.55-.969z"
          fill="#FFF"/>
    <path d="M208.116 159.422c.29-.775 1.163-1.066 1.84-.775l18.698 7.75c.678.29 1.065 1.163.775 1.84-.291.776-1.163 1.066-1.841.776l-18.697-7.75c-.775-.29-1.066-1.163-.775-1.84z"
          fill="#F3F3F3"/>
    <path d="M208.019 159.325a1.505 1.505 0 0 1 1.938-.872l18.697 7.75c.775.291 1.065 1.163.775 2.035a1.505 1.505 0 0 1-1.938.872l-18.697-7.75c-.775-.388-1.065-1.26-.775-2.035zm21.216 8.816c.29-.678 0-1.453-.678-1.744l-18.697-7.75c-.678-.29-1.356.097-1.647.775-.29.678 0 1.453.678 1.744l18.697 7.75c.678.194 1.453-.097 1.647-.775z"
          fill="#FFF"/>
    <path d="M214.413 172.5c.388-.678 1.162-.969 1.84-.678l8.041 4.069c.678.29.969 1.162.582 1.937-.388.678-1.163.97-1.841.678l-8.04-4.068c-.679-.388-.97-1.26-.582-1.938z"
          fill="#F3F3F3"/>
    <path d="M214.316 172.403c.388-.775 1.26-1.065 2.035-.678l8.04 4.069c.775.388 1.066 1.26.678 2.034-.387.775-1.26 1.066-2.034.678l-8.04-4.068c-.776-.29-1.066-1.26-.679-2.035zm10.463 5.328c.29-.678.096-1.453-.582-1.743l-8.04-4.069c-.582-.29-1.356 0-1.744.581-.29.678-.097 1.453.581 1.744l8.04 4.069c.679.29 1.454.097 1.745-.582z"
          fill="#FFF"/>
    <path d="M200.172 174.341c.485-.678 1.26-.872 1.938-.388l16.856 11.238c.678.387.775 1.26.388 1.937-.485.679-1.26.872-1.938.388l-16.856-11.238c-.678-.484-.872-1.356-.388-1.937z"
          fill="#F3F3F3"/>
    <path d="M200.075 174.244c.485-.678 1.454-.872 2.132-.484l16.856 11.237c.678.484.872 1.356.387 2.131-.484.679-1.453.872-2.13.485l-16.857-11.238c-.775-.484-.872-1.453-.388-2.131zm19.085 12.787c.387-.58.29-1.453-.29-1.84l-16.857-11.238c-.581-.387-1.356-.193-1.744.388-.387.581-.29 1.453.29 1.84l16.857 11.238c.581.388 1.356.194 1.744-.387z"
          fill="#FFF"/>
    <path d="M203.757 188.388c.484-.582 1.356-.775 1.937-.29l7.072 5.521c.581.484.678 1.356.194 1.938-.484.58-1.356.775-1.938.29l-7.072-5.522c-.58-.484-.678-1.356-.193-1.937z"
          fill="#F3F3F3"/>
    <path d="M203.66 188.291c.484-.678 1.453-.775 2.131-.29l7.072 5.521c.678.484.775 1.453.29 2.131-.484.679-1.453.775-2.13.291l-7.073-5.522c-.678-.484-.774-1.453-.29-2.131zm9.3 7.266c.484-.582.387-1.357-.194-1.841l-7.072-5.522c-.581-.387-1.356-.29-1.84.29-.485.582-.388 1.357.193 1.841l7.072 5.522c.581.388 1.356.29 1.84-.29z"
          fill="#FFF"/>
    <path d="M189.322 187.419c.582-.581 1.454-.581 1.938 0l14.337 14.24c.582.582.485 1.454 0 1.938-.58.581-1.453.581-1.937 0l-14.338-14.24c-.484-.485-.484-1.454 0-1.938z"
          fill="#F3F3F3"/>
    <path d="M189.322 187.322a1.52 1.52 0 0 1 2.132 0l14.337 14.24a1.52 1.52 0 0 1 0 2.132 1.52 1.52 0 0 1-2.131 0l-14.338-14.24c-.678-.582-.678-1.55 0-2.132zm16.275 16.178c.485-.484.485-1.356 0-1.84l-14.337-14.241c-.484-.484-1.356-.484-1.84 0-.485.484-.485 1.356 0 1.84l14.337 14.241c.484.582 1.26.582 1.84 0z"
          fill="#FFF"/>
    <path d="M190.194 201.853c.582-.484 1.453-.484 1.938.097l5.91 6.781c.483.582.387 1.454-.195 1.938-.58.484-1.453.484-1.937-.097l-5.91-6.781c-.484-.484-.387-1.356.194-1.938z"
          fill="#F3F3F3"/>
    <path d="M190.098 201.853c.678-.58 1.55-.484 2.13.097l5.91 6.781c.581.582.484 1.55-.194 2.132-.678.581-1.55.484-2.131-.097l-5.91-6.781c-.484-.678-.484-1.647.194-2.132zm7.75 8.816c.58-.484.58-1.26.193-1.84l-5.91-6.782c-.484-.484-1.259-.581-1.84-.097-.581.485-.581 1.26-.194 1.84l5.91 6.782c.484.581 1.26.581 1.84.097z"
          fill="#FFF"/>
    <path d="M176.244 198.172c.678-.484 1.55-.29 1.938.388l11.236 16.759c.388.678.194 1.55-.387 1.938-.678.484-1.55.29-1.938-.388l-11.237-16.76c-.388-.677-.194-1.55.387-1.937z"
          fill="#F3F3F3"/>
    <path d="M176.244 198.075c.678-.484 1.647-.29 2.131.388l11.238 16.76c.484.677.29 1.646-.484 2.13-.679.485-1.647.291-2.132-.387l-11.237-16.76c-.484-.774-.29-1.646.484-2.13zm12.788 19.085c.581-.388.775-1.163.387-1.744l-11.237-16.76c-.388-.58-1.163-.678-1.84-.29-.582.387-.776 1.162-.388 1.744l11.237 16.759c.388.484 1.26.678 1.84.29z"
          fill="#FFF"/>
    <path d="M174.21 212.509c.678-.387 1.55-.193 1.937.485l4.457 7.847c.387.678.096 1.55-.582 1.937-.678.388-1.55.194-1.937-.484l-4.456-7.847c-.291-.678-.097-1.55.58-1.937z"
          fill="#F3F3F3"/>
    <path d="M174.21 212.413c.775-.388 1.647-.194 2.034.484l4.456 7.847c.388.678.194 1.647-.58 2.034-.776.388-1.648.194-2.035-.484l-4.456-7.847c-.388-.678-.194-1.55.58-2.034zm5.812 10.269c.582-.388.872-1.163.485-1.744l-4.456-7.847c-.388-.581-1.163-.775-1.744-.485-.582.388-.872 1.163-.485 1.744l4.457 7.847c.29.581 1.162.872 1.743.484z"
          fill="#FFF"/>
    <path d="M161.325 206.116c.775-.29 1.55 0 1.841.678l7.847 18.697c.29.678-.097 1.55-.775 1.84-.678.291-1.55 0-1.84-.678l-7.847-18.696c-.291-.679.096-1.55.774-1.841z"
          fill="#F3F3F3"/>
    <path d="M161.325 206.019c.775-.29 1.647 0 2.035.775l7.847 18.697a1.505 1.505 0 0 1-.872 1.937c-.775.291-1.647 0-2.034-.775l-7.847-18.696c-.291-.679.097-1.55.871-1.938zm8.816 21.216c.678-.291.969-1.066.678-1.647l-7.847-18.697c-.29-.678-1.065-.969-1.743-.678-.678.29-.97 1.065-.678 1.647l7.846 18.697c.388.678 1.066.968 1.744.678z"
          fill="#FFF"/>
    <path d="M156.578 219.872c.776-.29 1.55.097 1.841.872l2.81 8.525c.29.678-.194 1.55-.872 1.744-.775.29-1.55-.097-1.84-.872l-2.81-8.525c-.29-.678.097-1.453.872-1.744z"
          fill="#F3F3F3"/>
    <path d="M156.482 219.775a1.505 1.505 0 0 1 1.937.872l2.81 8.525c.29.775-.194 1.647-.97 1.938a1.505 1.505 0 0 1-1.937-.872l-2.809-8.525c-.194-.775.194-1.647.969-1.938zm3.778 11.14c.678-.193 1.065-.968.872-1.646l-2.81-8.525c-.193-.678-.968-.969-1.646-.775-.679.194-1.066.969-.872 1.647l2.809 8.525a1.223 1.223 0 0 0 1.647.775z"
          fill="#FFF"/>
    <path d="M145.148 211.057c.774-.194 1.55.29 1.646 1.065l4.069 19.86c.194.774-.388 1.453-1.163 1.646-.774.194-1.55-.29-1.646-1.065l-4.07-19.86c-.096-.678.388-1.453 1.163-1.647z"
          fill="#F3F3F3"/>
    <path d="M145.148 210.959c.871-.193 1.646.388 1.84 1.163l4.069 19.86c.194.774-.388 1.646-1.163 1.743-.872.194-1.647-.387-1.84-1.162l-4.07-19.86c-.193-.775.292-1.55 1.163-1.743zm4.552 22.572c.679-.096 1.163-.775 1.066-1.55l-4.069-19.859c-.096-.678-.871-1.162-1.55-.969-.678.097-1.162.775-1.065 1.55l4.069 19.86c.193.678.871 1.065 1.55.969z"
          fill="#FFF"/>
    <path d="M137.785 223.65c.775-.097 1.453.388 1.647 1.163l1.162 8.912c.097.775-.484 1.453-1.26 1.55-.774.097-1.452-.387-1.646-1.162l-1.162-8.913c-.097-.775.484-1.453 1.259-1.55z"
          fill="#F3F3F3"/>
    <path d="M137.785 223.553c.872-.096 1.647.485 1.744 1.26l1.162 8.912c.097.775-.484 1.55-1.356 1.647-.872.097-1.647-.484-1.744-1.26l-1.162-8.912c-.097-.775.484-1.55 1.356-1.647zm1.453 11.625c.678-.096 1.26-.775 1.163-1.453l-1.163-8.912c-.097-.678-.775-1.163-1.453-1.066-.678.097-1.26.775-1.163 1.453l1.163 8.913c.097.678.775 1.162 1.453 1.065z"
          fill="#FFF"/>
    <path d="M127.807 212.8c.775 0 1.453.582 1.453 1.357v20.246c0 .775-.678 1.357-1.453 1.357s-1.453-.582-1.453-1.357v-20.246c.097-.775.678-1.357 1.453-1.357z"
          fill="#F3F3F3"/>
    <path d="M127.807 212.703c.872 0 1.55.678 1.55 1.453v20.247c0 .775-.678 1.453-1.55 1.453s-1.55-.678-1.55-1.453v-20.246c0-.775.775-1.454 1.55-1.454zm0 22.96c.678 0 1.356-.581 1.356-1.26v-20.246c0-.679-.581-1.26-1.356-1.26-.678 0-1.356.581-1.356 1.26v20.246c.096.679.678 1.26 1.356 1.26z"
          fill="#FFF"/>
    <path d="M118.119 223.65c.775.097 1.356.678 1.356 1.453l-.678 9.01c-.096.775-.775 1.356-1.55 1.26-.775-.098-1.356-.679-1.356-1.454l.678-9.01c.097-.774.775-1.356 1.55-1.259z"
          fill="#F3F3F3"/>
    <path d="M118.119 223.553c.872.097 1.453.775 1.453 1.55l-.678 9.01c-.097.775-.775 1.453-1.647 1.356-.871-.097-1.453-.775-1.453-1.55l.678-9.01c.097-.871.775-1.452 1.647-1.356zm-.872 11.722c.678 0 1.357-.484 1.357-1.162l.678-9.01c0-.678-.485-1.259-1.26-1.356-.678 0-1.356.484-1.356 1.163l-.678 9.009c0 .678.581 1.26 1.26 1.356z"
          fill="#FFF"/>
    <path d="M110.854 211.057c.775.193 1.259.871 1.162 1.646l-3.972 19.86c-.194.775-.872 1.26-1.647 1.065-.775-.193-1.259-.871-1.162-1.647l3.972-19.859c.097-.678.872-1.162 1.647-1.065z"
          fill="#F3F3F3"/>
    <path d="M110.854 210.959c.871.194 1.356.97 1.259 1.744l-3.972 19.86c-.194.775-.969 1.356-1.84 1.162-.872-.194-1.357-.969-1.26-1.744l3.972-19.859c.194-.775.969-1.26 1.84-1.162zm-4.553 22.572c.678.097 1.356-.29 1.55-.968l3.971-19.86c.097-.678-.29-1.356-1.065-1.55-.678-.096-1.356.291-1.55.97l-3.972 19.858c-.097.775.387 1.357 1.066 1.55z"
          fill="#FFF"/>
    <path d="M99.228 219.775c.776.194 1.26.969 1.066 1.744l-2.422 8.719c-.193.775-.968 1.162-1.743.969a1.444 1.444 0 0 1-1.066-1.744l2.422-8.719c.194-.775.969-1.162 1.744-.969z"
          fill="#F3F3F3"/>
    <path d="M99.228 219.679c.776.193 1.357 1.065 1.066 1.84l-2.422 8.719c-.193.775-1.065 1.26-1.84 1.065-.775-.193-1.356-1.065-1.066-1.84l2.422-8.719c.194-.775.969-1.26 1.84-1.066zm-3.196 11.334c.678.194 1.453-.194 1.647-.872l2.421-8.719c.194-.678-.193-1.356-.968-1.55-.678-.194-1.453.194-1.647.872l-2.422 8.719c-.097.678.29 1.356.969 1.55z"
          fill="#FFF"/>
    <path d="M94.482 206.116c.775.29 1.065 1.162.775 1.84l-7.75 18.697c-.29.679-1.163 1.066-1.84.679-.679-.388-1.067-1.163-.776-1.841l7.75-18.697c.29-.678 1.163-1.066 1.84-.678z"
          fill="#F3F3F3"/>
    <path d="M94.482 206.019a1.505 1.505 0 0 1 .872 1.938l-7.75 18.696c-.291.775-1.163 1.066-2.035.775a1.505 1.505 0 0 1-.872-1.937l7.75-18.697c.388-.775 1.26-1.162 2.035-.775zm-8.816 21.216c.678.29 1.453 0 1.744-.678l7.75-18.697c.29-.678-.097-1.357-.775-1.647-.678-.29-1.453 0-1.744.678l-7.75 18.697c-.194.581.097 1.356.775 1.647z"
          fill="#FFF"/>
    <path d="M81.404 212.316c.678.387.968 1.162.678 1.84l-4.069 8.041c-.388.678-1.163.969-1.938.581-.678-.387-.968-1.162-.678-1.84l4.07-8.04c.387-.679 1.162-.97 1.937-.582z"
          fill="#F3F3F3"/>
    <path d="M81.404 212.219c.775.387 1.065 1.26.678 2.034l-4.069 8.041c-.388.775-1.26 1.066-2.034.678-.775-.387-1.066-1.26-.678-2.034l4.068-8.04c.388-.776 1.26-1.066 2.035-.679zm-5.328 10.56c.678.29 1.453.096 1.743-.582l4.069-8.04c.29-.582 0-1.357-.581-1.744-.678-.29-1.453-.097-1.744.581l-4.069 8.04c-.29.582 0 1.357.582 1.744z"
          fill="#FFF"/>
    <path d="M79.466 197.979c.678.484.872 1.356.388 1.937l-11.238 16.76c-.387.677-1.26.774-1.937.387-.678-.485-.872-1.356-.388-1.938l11.238-16.76c.387-.677 1.259-.871 1.937-.387z"
          fill="#F3F3F3"/>
    <path d="M79.466 197.881c.678.485.872 1.454.484 2.132l-11.237 16.76c-.484.677-1.356.871-2.131.387-.678-.485-.872-1.453-.485-2.132l11.238-16.759c.484-.678 1.453-.872 2.131-.388zm-12.787 19.085c.58.387 1.453.29 1.84-.29l11.238-16.76c.387-.581.194-1.356-.388-1.744-.581-.387-1.453-.29-1.84.29l-11.238 16.663c-.387.582-.194 1.453.388 1.84z"
          fill="#FFF"/>
    <path d="M65.322 201.563c.582.484.775 1.356.291 1.937l-5.619 7.072c-.484.581-1.356.678-1.937.194-.581-.484-.775-1.356-.29-1.938l5.618-7.072c.484-.58 1.356-.678 1.937-.193z"
          fill="#F3F3F3"/>
    <path d="M65.419 201.466c.678.484.775 1.453.29 2.131l-5.618 7.072c-.484.678-1.453.775-2.131.194-.678-.485-.775-1.453-.29-2.132l5.618-7.071c.484-.679 1.453-.775 2.131-.194zm-7.265 9.203c.58.484 1.356.388 1.84-.194l5.619-7.072c.388-.58.29-1.356-.29-1.84-.582-.485-1.357-.388-1.841.194l-5.619 7.071c-.387.582-.29 1.453.29 1.841z"
          fill="#FFF"/>
    <path d="M66.291 187.032c.581.58.581 1.453 0 1.937l-14.337 14.24c-.582.582-1.453.485-1.938 0-.484-.484-.581-1.453 0-1.937l14.24-14.24c.582-.582 1.454-.582 2.035 0z"
          fill="#F3F3F3"/>
    <path d="M66.388 186.935a1.52 1.52 0 0 1 0 2.13L52.05 203.307a1.52 1.52 0 0 1-2.13 0 1.52 1.52 0 0 1 0-2.132l14.337-14.24a1.52 1.52 0 0 1 2.131 0zm-16.372 16.274c.484.484 1.356.484 1.84 0l14.338-14.241c.485-.484.485-1.356 0-1.84-.484-.485-1.356-.485-1.84 0l-14.338 14.24c-.484.484-.484 1.26 0 1.84z"
          fill="#FFF"/>
    <path d="M51.76 187.807c.484.58.484 1.453-.097 1.937l-6.878 5.813c-.581.484-1.453.387-1.938-.194-.484-.582-.484-1.453.097-1.938l6.878-5.812c.582-.485 1.453-.388 1.938.194z"
          fill="#F3F3F3"/>
    <path d="M51.857 187.709c.581.679.484 1.647-.097 2.132l-6.878 5.812c-.581.582-1.55.485-2.131-.193-.582-.679-.485-1.647.096-2.132l6.879-5.812c.58-.581 1.55-.484 2.13.194zm-8.913 7.654c.485.581 1.26.581 1.84.194l6.879-5.813c.484-.484.581-1.26.097-1.84-.485-.582-1.26-.582-1.84-.194l-6.879 5.812c-.581.484-.581 1.26-.097 1.84z"
          fill="#FFF"/>
    <path d="M55.635 173.856c.484.679.29 1.55-.388 1.938l-16.856 11.238c-.678.387-1.55.193-1.937-.388-.485-.678-.291-1.55.387-1.938l16.857-11.237c.582-.387 1.453-.194 1.938.387z"
          fill="#F3F3F3"/>
    <path d="M55.732 173.856c.484.679.29 1.647-.388 2.132l-16.856 11.237c-.678.485-1.647.29-2.131-.484-.485-.678-.29-1.647.387-2.131l16.857-11.238c.678-.484 1.646-.29 2.13.484zm-19.181 12.691c.387.581 1.162.775 1.743.388l16.856-11.238c.582-.387.775-1.162.291-1.84-.387-.582-1.162-.775-1.744-.388l-16.856 11.238c-.581.484-.678 1.259-.29 1.84z"
          fill="#FFF"/>
    <path d="M41.2 171.822c.388.678.194 1.55-.484 1.938l-7.847 4.456c-.678.387-1.55.097-1.937-.581-.388-.678-.194-1.55.484-1.938l7.847-4.456c.678-.388 1.55-.097 1.938.581z"
          fill="#F3F3F3"/>
    <path d="M41.298 171.725c.387.775.193 1.647-.485 2.035l-7.847 4.456c-.678.387-1.647.097-2.034-.581-.388-.775-.194-1.647.484-2.035l7.847-4.456c.678-.388 1.647-.097 2.034.581zm-10.27 5.813c.388.678 1.163.872 1.744.484l7.847-4.456c.581-.388.775-1.163.485-1.744-.388-.678-1.163-.872-1.744-.484l-7.847 4.456c-.581.29-.775 1.066-.484 1.744z"
          fill="#FFF"/>
    <path d="M47.691 158.938c.29.775 0 1.55-.775 1.84l-18.697 7.75c-.678.291-1.55-.096-1.84-.775-.291-.775 0-1.55.775-1.84l18.697-7.75c.678-.29 1.55 0 1.84.775z"
          fill="#F3F3F3"/>
    <path d="M47.788 158.841c.29.775 0 1.647-.775 2.034l-18.697 7.75a1.505 1.505 0 0 1-1.937-.872c-.291-.775 0-1.647.775-2.034l18.697-7.75a1.505 1.505 0 0 1 1.937.872zm-21.216 8.815c.291.679 1.066.97 1.647.775l18.697-7.75c.678-.29.969-1.065.678-1.743-.29-.678-1.065-.969-1.647-.775l-18.697 7.75c-.678.29-.968 1.065-.678 1.744z"
          fill="#FFF"/>
    <path d="M34.032 154.094c.29.775-.097 1.55-.872 1.84l-8.525 2.81c-.678.29-1.55-.194-1.744-.872-.29-.775.097-1.55.872-1.84l8.525-2.81c.678-.29 1.453.097 1.744.872z"
          fill="#F3F3F3"/>
    <path d="M34.128 153.997c.291.775-.096 1.647-.968 1.938l-8.525 2.809c-.775.29-1.647-.194-1.938-.969-.29-.775.097-1.647.97-1.937l8.524-2.81c.775-.193 1.647.194 1.938.97zm-11.236 3.682c.194.678.969 1.066 1.647.872l8.525-2.81c.678-.193.969-.968.775-1.646-.194-.678-.969-1.066-1.647-.872l-8.525 2.81c-.678.29-.969.968-.775 1.646z"
          fill="#FFF"/>
    <path d="M42.751 142.566c.193.775-.291 1.55-1.066 1.647l-19.86 3.875c-.775.194-1.453-.388-1.646-1.163-.194-.775.29-1.55 1.065-1.647l19.86-3.875c.775-.096 1.55.388 1.646 1.163z"
          fill="#F3F3F3"/>
    <path d="M42.944 142.566c.194.872-.387 1.647-1.162 1.84l-19.86 3.875c-.775.194-1.55-.387-1.743-1.259-.194-.872.387-1.647 1.162-1.84l19.86-3.875c.774-.194 1.55.387 1.743 1.259zm-22.572 4.36c.097.677.775 1.162 1.453 1.065l19.86-3.875c.678-.097 1.162-.872.969-1.55-.097-.678-.775-1.163-1.454-1.066l-19.859 3.875c-.678.194-1.162.872-.969 1.55z"
          fill="#FFF"/>
    <path d="M30.351 135.107c.096.774-.388 1.453-1.163 1.55l-8.912 1.065c-.776.097-1.454-.484-1.55-1.26-.097-.774.387-1.452 1.162-1.55l8.913-1.065c.678-.097 1.453.484 1.55 1.26z"
          fill="#F3F3F3"/>
    <path d="M30.448 135.107c.096.871-.485 1.646-1.26 1.743l-8.912 1.066c-.776.097-1.55-.484-1.647-1.356-.097-.872.484-1.647 1.259-1.744l8.913-1.066c.774-.097 1.55.485 1.646 1.356zm-11.723 1.356c.097.678.776 1.26 1.454 1.162l8.912-1.065c.678-.097 1.163-.775 1.066-1.453-.097-.679-.775-1.26-1.453-1.163l-8.913 1.066c-.678.097-1.162.775-1.066 1.453z"
          fill="#FFF"/>
    <path d="M41.2 125.709c0 .776-.58 1.454-1.356 1.454H19.598c-.775 0-1.356-.678-1.356-1.453s.581-1.454 1.356-1.454h20.247c.775 0 1.357.679 1.357 1.454z"
          fill="#F3F3F3"/>
    <path d="M41.298 125.709c0 .873-.679 1.55-1.454 1.55H19.598c-.775 0-1.453-.678-1.453-1.55 0-.871.678-1.55 1.453-1.55h20.247c.775 0 1.453.679 1.453 1.55zm-22.96-.096c0 .678.581 1.356 1.26 1.356h20.246c.678 0 1.26-.581 1.26-1.356 0-.678-.582-1.357-1.26-1.357H19.598c-.678.097-1.259.679-1.259 1.357z"
          fill="#FFF"/>
    <path d="M30.448 115.925c-.098.775-.679 1.356-1.454 1.356l-9.01-.678c-.774-.097-1.355-.775-1.259-1.55.097-.775.679-1.356 1.454-1.356l9.009.678c.678.097 1.26.775 1.26 1.55z"
          fill="#E2E2E2"/>
    <path d="M30.544 115.925c-.097.872-.775 1.453-1.55 1.453l-9.01-.678c-.774-.097-1.452-.775-1.355-1.647.096-.871.775-1.453 1.55-1.453l9.009.678c.775.097 1.356.872 1.356 1.647zm-11.819-.872c-.096.678.485 1.357 1.163 1.357l9.01.678c.677 0 1.259-.485 1.356-1.26.097-.678-.485-1.356-1.163-1.356l-9.01-.678c-.677 0-1.259.581-1.356 1.26z"
          fill="#FFF"/>
    <path d="M42.944 108.853c-.194.775-.872 1.26-1.647 1.163l-19.859-4.069c-.775-.194-1.26-.872-1.066-1.647.194-.775.872-1.26 1.647-1.162l19.86 3.972c.678.193 1.162.968 1.065 1.743z"
          fill="#F3F3F3"/>
    <path d="M43.041 108.853c-.194.872-.969 1.357-1.744 1.26l-19.859-3.972c-.775-.194-1.356-.969-1.162-1.84.193-.873.968-1.357 1.743-1.26l19.86 3.972c.775.194 1.259.969 1.162 1.84zM20.469 104.3c-.097.678.29 1.356.969 1.55l19.86 3.972c.678.097 1.356-.29 1.55-1.066.096-.678-.291-1.356-.97-1.55l-19.858-3.971c-.775-.097-1.356.387-1.55 1.065z"
          fill="#FFF"/>
    <path d="M34.226 97.229a1.444 1.444 0 0 1-1.744 1.065l-8.719-2.422c-.775-.194-1.162-.969-.969-1.744a1.444 1.444 0 0 1 1.744-1.065l8.719 2.422c.775.193 1.162.968.969 1.743z"
          fill="#F3F3F3"/>
    <path d="M34.322 97.229c-.193.774-1.065 1.356-1.84 1.065l-8.719-2.422c-.775-.194-1.26-1.066-1.066-1.84.194-.776 1.066-1.357 1.841-1.066l8.719 2.422c.775.194 1.26.969 1.065 1.84zM22.988 94.03c-.194.679.194 1.454.872 1.647l8.719 2.422c.678.194 1.356-.194 1.55-.969.193-.678-.194-1.453-.872-1.646l-8.719-2.422c-.678-.097-1.356.29-1.55.969z"
          fill="#FFF"/>
    <path d="M47.885 92.579c-.29.774-1.163 1.065-1.84.774l-18.698-7.75c-.678-.29-1.065-1.162-.775-1.84.291-.775 1.163-1.066 1.841-.775l18.697 7.75c.775.29 1.066 1.162.775 1.84z"
          fill="#F3F3F3"/>
    <path d="M47.982 92.675a1.505 1.505 0 0 1-1.938.872l-18.697-7.75c-.775-.29-1.065-1.162-.775-2.034a1.505 1.505 0 0 1 1.938-.872l18.697 7.75c.775.387 1.065 1.26.775 2.034zM26.766 83.86c-.29.678 0 1.453.678 1.743l18.697 7.75c.678.291 1.356-.097 1.647-.775.29-.678 0-1.453-.678-1.743l-18.697-7.75c-.678-.194-1.453.097-1.647.775z"
          fill="#FFF"/>
    <path d="M41.588 79.5c-.387.678-1.162.969-1.84.678l-8.041-4.068c-.678-.291-.969-1.163-.581-1.938.387-.678 1.162-.969 1.84-.678l8.04 4.069c.679.387.97 1.26.582 1.937z"
          fill="#F3F3F3"/>
    <path d="M41.685 79.597c-.388.775-1.26 1.066-2.035.678l-8.04-4.069c-.775-.387-1.066-1.259-.678-2.034.387-.775 1.26-1.066 2.034-.678l8.04 4.069c.776.29 1.066 1.26.679 2.034zm-10.463-5.328c-.29.678-.096 1.453.582 1.744l8.04 4.069c.582.29 1.357 0 1.744-.582.29-.678.097-1.453-.581-1.744l-8.139-4.067c-.581-.29-1.356-.097-1.647.581z"
          fill="#FFF"/>
    <path d="M55.828 77.659c-.484.679-1.259.873-1.937.388l-16.76-11.14c-.677-.388-.774-1.26-.387-1.938.388-.678 1.26-.872 1.938-.388l16.856 11.238c.581.388.775 1.26.29 1.84z"
          fill="#F3F3F3"/>
    <path d="M55.925 77.756c-.484.679-1.453.872-2.13.485l-16.76-11.238c-.678-.484-.872-1.356-.388-2.13.485-.679 1.454-.873 2.132-.485l16.759 11.237c.775.485.872 1.453.387 2.131zM36.841 64.969c-.387.581-.29 1.453.29 1.84l16.857 11.239c.581.388 1.356.194 1.744-.387.387-.582.29-1.454-.29-1.841L38.584 64.582c-.581-.388-1.356-.194-1.744.387z"
          fill="#FFF"/>
    <path d="M52.244 63.613c-.484.581-1.356.775-1.937.29l-7.072-5.521c-.581-.485-.678-1.357-.194-1.938.484-.581 1.356-.775 1.938-.29l7.071 5.521c.582.485.679 1.356.194 1.938z"
          fill="#F3F3F3"/>
    <path d="M52.341 63.709c-.484.679-1.453.776-2.131.291l-7.072-5.521c-.678-.484-.775-1.453-.29-2.13.484-.679 1.453-.776 2.13-.291l7.072 5.521c.679.485.776 1.453.291 2.132zm-9.3-7.265c-.484.581-.387 1.356.194 1.84l7.072 5.523c.581.387 1.356.29 1.84-.291.485-.581.388-1.356-.193-1.84l-7.072-5.523c-.581-.387-1.357-.29-1.84.291z"
          fill="#FFF"/>
    <path d="M66.678 64.581c-.58.582-1.453.582-1.937 0l-14.433-14.24c-.581-.581-.485-1.453 0-1.938.581-.58 1.453-.58 1.937 0l14.338 14.241c.581.484.581 1.453.097 1.938z"
          fill="#F3F3F3"/>
    <path d="M66.678 64.679a1.52 1.52 0 0 1-2.13 0L50.209 50.437a1.52 1.52 0 0 1 0-2.132 1.52 1.52 0 0 1 2.131 0l14.338 14.241c.678.581.678 1.55 0 2.131zm-16.273-16.18c-.485.485-.485 1.357 0 1.84L64.742 64.58c.485.485 1.356.485 1.84 0 .485-.484.485-1.356 0-1.84L52.245 48.403c-.484-.484-1.26-.484-1.84.097z"
          fill="#FFF"/>
    <path d="M65.807 50.147c-.581.485-1.453.485-1.938-.097l-5.91-6.781c-.483-.581-.387-1.453.195-1.937.58-.485 1.453-.485 1.937.096l5.91 6.782c.484.484.387 1.356-.194 1.937z"
          fill="#F3F3F3"/>
    <path d="M65.904 50.147c-.678.581-1.55.485-2.132-.097l-5.909-6.781c-.581-.581-.484-1.55.194-2.131.678-.582 1.55-.485 2.131.097l5.91 6.78c.484.679.484 1.648-.194 2.132zm-7.75-8.815c-.582.484-.582 1.259-.194 1.84l5.91 6.781c.484.485 1.259.582 1.84.097.581-.484.581-1.26.194-1.84l-5.91-6.782c-.484-.58-1.26-.58-1.84-.096z"
          fill="#FFF"/>
    <path d="M79.757 53.829c-.678.484-1.55.29-1.938-.388l-11.334-16.76c-.388-.678-.194-1.55.387-1.937.678-.484 1.55-.29 1.938.388l11.237 16.759c.485.678.291 1.55-.29 1.937z"
          fill="#F3F3F3"/>
    <path d="M79.757 53.925c-.678.485-1.647.29-2.132-.387l-11.237-16.76c-.484-.678-.29-1.646.484-2.13.678-.485 1.647-.291 2.132.387l11.237 16.759c.484.775.29 1.647-.484 2.131zM66.968 34.841c-.581.387-.775 1.162-.387 1.744l11.237 16.759c.388.581 1.163.678 1.84.29.582-.387.776-1.162.388-1.743L68.81 35.228c-.388-.58-1.26-.775-1.84-.387z"
          fill="#FFF"/>
    <path d="M81.791 39.491c-.678.387-1.55.194-1.937-.484l-4.457-7.847c-.387-.678-.097-1.55.582-1.938.678-.387 1.55-.194 1.937.485l4.456 7.846c.291.678.097 1.55-.58 1.938z"
          fill="#F3F3F3"/>
    <path d="M81.791 39.588c-.775.387-1.647.194-2.034-.485L75.3 31.257c-.387-.679-.193-1.647.582-2.035.775-.387 1.647-.194 2.034.485l4.456 7.846c.388.678.194 1.55-.58 2.035zm-5.812-10.269c-.582.387-.872 1.162-.485 1.744l4.457 7.847c.387.58 1.162.775 1.743.484.582-.387.872-1.163.485-1.744l-4.457-7.847c-.29-.58-1.162-.872-1.743-.484z"
          fill="#FFF"/>
    <path d="M94.675 45.885c-.774.29-1.55 0-1.84-.678l-7.847-18.698c-.29-.678.097-1.55.775-1.841.775-.29 1.55 0 1.84.678l7.847 18.697c.291.678-.096 1.55-.775 1.84z"
          fill="#F3F3F3"/>
    <path d="M94.675 45.982c-.774.29-1.646 0-2.034-.776L84.794 26.51a1.505 1.505 0 0 1 .872-1.938c.775-.29 1.647 0 2.035.775l7.846 18.697c.291.678-.096 1.55-.871 1.938zM85.86 24.766c-.678.29-.969 1.066-.678 1.647l7.846 18.696c.29.678 1.065.968 1.743.678.678-.29.97-1.066.678-1.647l-7.846-18.697c-.388-.678-1.066-.969-1.744-.678z"
          fill="#FFF"/>
    <path d="M99.422 32.129c-.775.29-1.55-.098-1.84-.872l-2.81-8.526c-.29-.678.194-1.55.872-1.743.678-.194 1.55.097 1.84.872l2.81 8.525c.29.678-.097 1.453-.872 1.743z"
          fill="#F3F3F3"/>
    <path d="M99.519 32.225a1.505 1.505 0 0 1-1.937-.872l-2.81-8.525c-.29-.775.194-1.646.97-1.937a1.505 1.505 0 0 1 1.937.872l2.809 8.525c.194.775-.194 1.647-.969 1.937zm-3.778-11.14c-.678.193-1.066.968-.872 1.646l2.81 8.526c.193.678.968.968 1.647.774.678-.193 1.065-.968.871-1.646l-2.809-8.526a1.223 1.223 0 0 0-1.647-.775z"
          fill="#FFF"/>
    <path d="M110.854 40.944c-.775.194-1.55-.29-1.647-1.066l-4.069-19.859c-.194-.775.388-1.453 1.162-1.647.776-.194 1.55.29 1.647 1.066l4.07 19.86c.096.677-.388 1.452-1.163 1.646z"
          fill="#F3F3F3"/>
    <path d="M110.854 41.041c-.872.194-1.647-.388-1.841-1.163l-4.069-19.859c-.194-.775.388-1.647 1.163-1.744.872-.194 1.647.388 1.84 1.163l4.07 19.86c.193.774-.291 1.55-1.163 1.743zm-4.553-22.572c-.679.097-1.163.775-1.066 1.55l4.069 19.86c.097.677.871 1.162 1.55.968.678-.097 1.162-.775 1.065-1.55l-4.069-19.86c-.193-.677-.871-1.065-1.55-.968z"
          fill="#FFF"/>
    <path d="M118.216 28.35c-.775.097-1.453-.387-1.647-1.162l-1.162-8.913c-.097-.775.484-1.453 1.26-1.55.774-.097 1.452.388 1.646 1.163l1.162 8.912c.097.775-.484 1.453-1.259 1.55z"
          fill="#F3F3F3"/>
    <path d="M118.216 28.447c-.872.097-1.647-.484-1.744-1.26l-1.162-8.912c-.097-.775.484-1.55 1.356-1.647.872-.096 1.647.485 1.744 1.26l1.162 8.912c.097.775-.484 1.55-1.356 1.647zm-1.453-11.625c-.678.097-1.26.775-1.163 1.453l1.163 8.913c.097.678.775 1.162 1.453 1.065.678-.096 1.26-.775 1.163-1.453l-1.163-8.912c-.097-.678-.775-1.163-1.453-1.066z"
          fill="#FFF"/>
    <path d="M208.116 53.15L115.6 112.438h-.097v.096l-.097.097L57.67 207.86l84.862-68.297.097-.096v-.097l65.488-86.219z"
          fill-opacity=".05"/>
    <path d="M206.372 47.628l-91.45 65.003 27.125 26.931 64.325-91.934" fill="#CD151E"/>
    <path d="M115.019 112.438l13.66 13.465 77.693-78.275-91.353 64.81z" fill="#FA5153"/>
    <path d="M115.019 112.438l27.125 26.93-91.45 65.004 64.325-91.935z" fill="#ACACAC"/>
    <path d="M50.694 204.372l77.984-78.469-13.66-13.466-64.324 91.935z" fill="#EEE"/>
</svg>