<svg viewBox="0 0 98 29" xmlns="http://www.w3.org/2000/svg" style="color: #3863a0;"><title>Toptal</title><g class="shape" fill-rule="nonzero" fill="currentColor"><path d="M7.475 0L5.1 2.375 9.504 6.78 0 16.284 11.745 28.03l2.376-2.377-4.404-4.406 9.504-9.502L7.475 0zM5.27 16.707l7.07-7.07 1.456 1.456-7.07 7.07-1.456-1.456zM27.319 3.413v3.599h3.909v2.077h-3.91v8.097c0 1.863.528 2.918 2.048 2.918.745 0 1.18-.064 1.583-.188l.123 2.08c-.526.186-1.364.373-2.42.373-1.271 0-2.295-.436-2.946-1.15-.744-.837-1.055-2.17-1.055-3.94V9.09h-2.327V7.011h2.327V4.218l2.668-.805zM45.913 14.394c0 5.553-3.878 7.974-7.476 7.974-4.033 0-7.197-2.98-7.197-7.726 0-4.995 3.319-7.942 7.445-7.942 4.312 0 7.228 3.133 7.228 7.694m-11.881.155c0 3.288 1.86 5.77 4.529 5.77 2.606 0 4.56-2.45 4.56-5.832 0-2.544-1.272-5.739-4.498-5.739-3.196 0-4.591 2.978-4.591 5.801M47.272 11.913c0-1.924-.062-3.475-.124-4.902h2.42l.155 2.574h.061C50.871 7.755 52.67 6.7 55.121 6.7c3.66 0 6.39 3.07 6.39 7.6 0 5.398-3.32 8.067-6.855 8.067-1.986 0-3.723-.87-4.624-2.358h-.06v8.158h-2.7V11.913zm2.7 4.002c0 .403.03.775.123 1.116.497 1.893 2.14 3.195 4.095 3.195 2.885 0 4.56-2.357 4.56-5.801 0-2.978-1.582-5.553-4.467-5.553-1.862 0-3.63 1.304-4.126 3.35-.093.342-.186.746-.186 1.086v2.607zM66.723 3.413v3.599h3.908v2.077h-3.908v8.097c0 1.863.527 2.918 2.047 2.918.745 0 1.178-.064 1.582-.188l.124 2.08c-.528.186-1.365.373-2.42.373-1.27 0-2.295-.436-2.946-1.15-.745-.837-1.055-2.17-1.055-3.94V9.09h-2.327V7.011h2.327V4.218l2.668-.805M83.06 18.428c0 1.303.061 2.574.215 3.599h-2.45l-.216-1.893h-.093c-.84 1.179-2.452 2.234-4.593 2.234-3.04 0-4.59-2.141-4.59-4.313 0-3.63 3.227-5.615 9.026-5.584v-.31c0-1.21-.34-3.474-3.412-3.443-1.428 0-2.885.403-3.94 1.116l-.62-1.83c1.24-.776 3.07-1.303 4.963-1.303 4.593 0 5.71 3.133 5.71 6.11v5.617zm-2.638-4.064c-2.978-.063-6.36.464-6.36 3.38 0 1.8 1.178 2.607 2.544 2.607 1.986 0 3.259-1.241 3.692-2.513.093-.31.124-.621.124-.868v-2.606zM85.082 22.026h2.729V0h-2.729zM91.62.468h1.116V0H90v.468h1.116V3.96h.504V.468zm5.112 3.492h.504V0h-.774L95.31 2.88 94.158 0h-.774v3.96h.504V.684l1.35 3.276h.144l1.35-3.276V3.96z"></path></g></svg>