<svg xmlns="http://www.w3.org/2000/svg" xmlns:xlink="http://www.w3.org/1999/xlink" viewBox="0 0 1011.33 760.78"><defs><radialGradient id="a" cx="551.16" cy="482.76" r="11.26" gradientUnits="userSpaceOnUse"><stop offset="0" stop-color="#4c5160"/><stop offset=".52" stop-color="#262d3a"/><stop offset="1" stop-color="#121923"/></radialGradient><radialGradient id="r" cx="564.78" cy="482.64" r="10.67" xlink:href="#a"/><linearGradient id="b" x1="665.85" y1="493.52" x2="667.1" y2="504.52" gradientTransform="rotate(-7.2 668.16 504.404)" gradientUnits="userSpaceOnUse"><stop offset="0" stop-color="#909a9d"/><stop offset="1" stop-color="#262d3a"/></linearGradient><linearGradient id="c" x1="662.29" y1="497.01" x2="662.65" y2="497.88" gradientTransform="rotate(-7.2 668.16 504.404)" gradientUnits="userSpaceOnUse"><stop offset="0" stop-color="#1a1818"/><stop offset=".01" stop-color="#1e1c1c"/><stop offset=".11" stop-color="#616060"/><stop offset=".2" stop-color="#999"/><stop offset=".29" stop-color="#c5c5c5"/><stop offset=".37" stop-color="#e5e5e5"/><stop offset=".44" stop-color="#f8f8f8"/><stop offset=".48" stop-color="#fff"/><stop offset=".54" stop-color="#fafafa"/><stop offset=".6" stop-color="#ebebeb"/><stop offset=".68" stop-color="#d2d1d1"/><stop offset=".76" stop-color="#afaeae"/><stop offset=".84" stop-color="#828181"/><stop offset=".93" stop-color="#4d4b4b"/><stop offset="1" stop-color="#1a1818"/></linearGradient><linearGradient id="s" x1="666.89" y1="474.69" x2="667.64" y2="484.44" gradientTransform="rotate(-16.3 681.008 464.832)" xlink:href="#b"/><linearGradient id="t" x1="662.39" y1="480.02" x2="662.71" y2="480.76" gradientTransform="rotate(-16.3 681.008 464.832)" xlink:href="#c"/><linearGradient id="u" x1="552.57" y1="270.49" x2="551.68" y2="286.43" gradientTransform="rotate(16.36 550.197 274.266)" xlink:href="#b"/><linearGradient id="v" x1="565.21" y1="267.91" x2="564.49" y2="280.72" gradientTransform="matrix(.61 .42 -.57 .82 377.79 -184.78)" xlink:href="#b"/><linearGradient id="w" x1="625.1" y1="553.18" x2="626.85" y2="568.68" xlink:href="#b"/><linearGradient id="x" x1="636.98" y1="538.7" x2="638.48" y2="553.2" xlink:href="#b"/><linearGradient id="y" x1="648.53" y1="524.82" x2="649.53" y2="537.32" xlink:href="#b"/><linearGradient id="z" x1="658.62" y1="509.78" x2="659.87" y2="520.78" xlink:href="#b"/><linearGradient id="A" x1="677.64" y1="461.49" x2="678.39" y2="471.24" gradientTransform="rotate(-28.66 676.643 469.925)" xlink:href="#b"/><linearGradient id="B" x1="581.73" y1="263.27" x2="581" y2="276.45" gradientTransform="matrix(.61 .42 -.57 .82 377.79 -184.78)" xlink:href="#b"/><linearGradient id="d" x1="612.9" y1="767.53" x2="292.11" y2="798.08" gradientTransform="rotate(-12.83 471.332 764.47)" gradientUnits="userSpaceOnUse"><stop offset="0" stop-color="#e6e8f0"/><stop offset="1" stop-color="#909a9d"/></linearGradient><linearGradient id="e" x1="501.9" y1="765.65" x2="507.43" y2="697.67" gradientTransform="matrix(-.17 1.1 -1.01 -.18 1303.81 272.48)" gradientUnits="userSpaceOnUse"><stop offset="0" stop-color="#909a9d"/><stop offset="1"/></linearGradient><linearGradient id="C" x1="524.33" y1="701.26" x2="507.16" y2="702.89" gradientTransform="matrix(0 1.07 -1 0 1219.85 150.76)" xlink:href="#d"/><linearGradient id="D" x1="582.26" y1="777.25" x2="587.15" y2="717.16" gradientTransform="matrix(.96 .52 -.5 .87 390.8 -208.66)" xlink:href="#e"/><linearGradient id="E" x1="583.07" y1="732.57" x2="567.77" y2="734.03" gradientTransform="matrix(0 1.07 -1 0 1316.63 103.27)" xlink:href="#d"/><radialGradient id="F" cx="789.67" cy="492.33" r="135.62" xlink:href="#a"/><radialGradient id="G" cx="790.33" cy="439" r="121.34" xlink:href="#a"/><radialGradient id="H" cx="811.67" cy="244.33" r="343.51" xlink:href="#a"/><radialGradient id="I" cx="807.35" cy="234.29" r="253.58" xlink:href="#a"/><radialGradient id="J" cx="427" cy="513.67" r="147.01" xlink:href="#a"/><radialGradient id="K" cx="411" cy="521.67" r="66.75" xlink:href="#a"/><radialGradient id="L" cx="343.67" cy="327" r="304.02" xlink:href="#a"/><radialGradient id="M" cx="345.67" cy="315.67" r="372.78" xlink:href="#a"/><linearGradient id="N" x1="416.78" y1="558.33" x2="432.33" y2="558.33" xlink:href="#d"/><linearGradient id="O" x1="381.4" y1="571.33" x2="419.52" y2="571.33" xlink:href="#d"/><linearGradient id="P" x1="160.27" y1="483.53" x2="349.79" y2="483.53" xlink:href="#d"/><linearGradient id="Q" x1="379.28" y1="411.45" x2="322.28" y2="451.95" xlink:href="#d"/><linearGradient id="R" x1="501.07" y1="567.05" x2="517.57" y2="592.05" xlink:href="#d"/><linearGradient id="S" x1="7" y1="269.76" x2="351.44" y2="269.76" xlink:href="#d"/><linearGradient id="T" x1="180.33" y1="229.84" x2="353.7" y2="229.84" xlink:href="#d"/><radialGradient id="f" cx="350.53" cy="209.1" r="32.43" gradientUnits="userSpaceOnUse"><stop offset="0" stop-color="#e6e8f0"/><stop offset=".23" stop-color="#e2e5ec"/><stop offset=".44" stop-color="#d7dae2"/><stop offset=".64" stop-color="#c4c9cf"/><stop offset=".84" stop-color="#aab1b6"/><stop offset="1" stop-color="#909a9d"/></radialGradient><linearGradient id="U" x1="766.33" y1="531.67" x2="780.06" y2="531.67" xlink:href="#d"/><linearGradient id="V" x1="801.91" y1="362.27" x2="957.2" y2="362.27" xlink:href="#d"/><linearGradient id="W" x1="799.19" y1="346.64" x2="939.69" y2="230.14" xlink:href="#d"/><linearGradient id="X" x1="736.87" y1="504.84" x2="755.37" y2="531.34" xlink:href="#d"/><linearGradient id="Y" x1="802.04" y1="186.43" x2="1018.33" y2="186.43" xlink:href="#d"/><linearGradient id="Z" x1="800.23" y1="165.18" x2="884.78" y2="165.18" xlink:href="#d"/><radialGradient id="aa" cx="802.61" cy="131.6" r="23.61" xlink:href="#f"/><linearGradient id="ab" x1="597.76" y1="688.64" x2="505.89" y2="697.39" gradientUnits="userSpaceOnUse"><stop offset="0" stop-color="#909a9d"/><stop offset=".19" stop-color="#e6e8f0"/><stop offset="1" stop-color="#909a9d"/></linearGradient><linearGradient id="ac" x1="594.18" y1="762.35" x2="625.04" y2="565.65" xlink:href="#b"/><linearGradient id="g" x1="525.28" y1="652.95" x2="703.78" y2="754.7" gradientUnits="userSpaceOnUse"><stop offset="0" stop-color="#fff"/><stop offset=".3" stop-color="#838b8b"/><stop offset=".62" stop-color="#838b8b"/><stop offset="1" stop-color="#fff"/></linearGradient><linearGradient id="ad" x1="544.88" y1="665.38" x2="643.87" y2="640.04" xlink:href="#b"/><linearGradient id="ae" x1="611.67" y1="756.61" x2="632.53" y2="556.74" xlink:href="#b"/><linearGradient id="af" x1="540.75" y1="625.57" x2="704.99" y2="730.82" xlink:href="#g"/><linearGradient id="ag" x1="553.39" y1="638.46" x2="657.84" y2="611.73" xlink:href="#b"/><linearGradient id="ah" x1="652.05" y1="673.78" x2="632.98" y2="559.36" xlink:href="#b"/><linearGradient id="ai" x1="553.3" y1="598.4" x2="735.55" y2="730.9" xlink:href="#g"/><linearGradient id="aj" x1="562.44" y1="612.76" x2="692.21" y2="579.55" xlink:href="#b"/><linearGradient id="ak" x1="526.74" y1="647.61" x2="709.17" y2="751.6" xlink:href="#g"/><linearGradient id="al" x1="743.93" y1="550.76" x2="688.06" y2="556.08" xlink:href="#d"/><linearGradient id="i" x1="723.46" y1="502.37" x2="701.73" y2="616.6" gradientUnits="userSpaceOnUse"><stop offset="0" stop-color="#fff"/><stop offset="1" stop-color="#909a9d"/></linearGradient><linearGradient id="am" x1="665.14" y1="651.95" x2="535.12" y2="664.33" xlink:href="#d"/><linearGradient id="an" x1="689.5" y1="539.11" x2="746.41" y2="539.11" xlink:href="#c"/><radialGradient id="ao" cx="707.67" cy="163.67" r="450.47" xlink:href="#f"/><radialGradient id="j" cx="530.67" cy="386.67" r="68.84" gradientUnits="userSpaceOnUse"><stop offset="0" stop-color="#3a3f47"/><stop offset="1" stop-color="#fff"/></radialGradient><linearGradient id="o" x1="491.83" y1="317.86" x2="481.83" y2="402.86" gradientUnits="userSpaceOnUse"><stop offset="0" stop-color="#1a1818"/><stop offset=".01" stop-color="#1e1c1c"/><stop offset=".11" stop-color="#616060"/><stop offset=".2" stop-color="#999"/><stop offset=".29" stop-color="#c5c5c5"/><stop offset=".37" stop-color="#e5e5e5"/><stop offset=".44" stop-color="#f8f8f8"/><stop offset=".48" stop-color="#fff"/><stop offset=".53" stop-color="#f4f4f4"/><stop offset=".6" stop-color="#d8d8d8"/><stop offset=".7" stop-color="#a9a9a9"/><stop offset=".82" stop-color="#696969"/><stop offset=".96" stop-color="#181818"/><stop offset="1"/></linearGradient><radialGradient id="h" cx="675.64" cy="669.9" r="130.46" gradientUnits="userSpaceOnUse"><stop offset="0" stop-color="#1a1818"/><stop offset=".01" stop-color="#1e1c1c"/><stop offset=".11" stop-color="#616060"/><stop offset=".2" stop-color="#999"/><stop offset=".29" stop-color="#c5c5c5"/><stop offset=".37" stop-color="#e5e5e5"/><stop offset=".44" stop-color="#f8f8f8"/><stop offset=".48" stop-color="#fff"/><stop offset=".53" stop-color="#fafafa"/><stop offset=".6" stop-color="#ebebeb"/><stop offset=".67" stop-color="#d1d1d1"/><stop offset=".74" stop-color="#aeaeae"/><stop offset=".82" stop-color="#818181"/><stop offset=".9" stop-color="#4a4a4a"/><stop offset=".99" stop-color="#0a0a0a"/><stop offset="1"/></radialGradient><linearGradient id="ap" x1="543.85" y1="410.06" x2="525.52" y2="319.72" xlink:href="#h"/><linearGradient id="aq" x1="657.73" y1="711.93" x2="602.36" y2="717.21" xlink:href="#d"/><linearGradient id="ar" x1="612.46" y1="745.88" x2="616.43" y2="717.14" xlink:href="#i"/><linearGradient id="as" x1="681.1" y1="721.9" x2="624.05" y2="727.34" xlink:href="#d"/><linearGradient id="at" x1="671.07" y1="735.08" x2="669.73" y2="714.42" xlink:href="#e"/><linearGradient id="au" x1="689.94" y1="750.75" x2="676.66" y2="752.02" xlink:href="#d"/><linearGradient id="av" x1="685.92" y1="745.73" x2="662.16" y2="747.99" xlink:href="#d"/><linearGradient id="aw" x1="670.94" y1="739.08" x2="646.84" y2="741.38" xlink:href="#d"/><linearGradient id="ax" x1="476.46" y1="661.14" x2="491.46" y2="697.14" xlink:href="#d"/><linearGradient id="ay" x1="481.08" y1="654.09" x2="436.48" y2="658.34" gradientTransform="rotate(4.27 452.636 663.522)" xlink:href="#d"/><linearGradient id="az" x1="464.97" y1="690.26" x2="456.52" y2="658.05" gradientTransform="rotate(4.27 452.636 663.522)" xlink:href="#e"/><linearGradient id="aA" x1="453.46" y1="691.65" x2="441.94" y2="692.75" gradientTransform="rotate(-8.1 478.411 719.244)" xlink:href="#d"/><linearGradient id="aB" x1="441.61" y1="739.29" x2="451.11" y2="670.52" gradientTransform="rotate(-10.39 460.268 694.753)" xlink:href="#i"/><linearGradient id="aC" x1="469.54" y1="693.75" x2="455.13" y2="695.12" gradientTransform="rotate(-8.1 478.411 719.244)" xlink:href="#d"/><linearGradient id="aD" x1="457.5" y1="749.84" x2="468.47" y2="670.49" gradientTransform="rotate(-10.39 460.268 694.753)" xlink:href="#i"/><linearGradient id="aE" x1="485.04" y1="689.45" x2="471.58" y2="690.73" gradientTransform="rotate(-8.1 478.411 719.244)" xlink:href="#d"/><linearGradient id="aF" x1="473.1" y1="740.85" x2="483.11" y2="668.41" gradientTransform="rotate(-10.39 460.268 694.753)" xlink:href="#i"/><linearGradient id="aG" x1="568.44" y1="543.41" x2="563.18" y2="598.62" xlink:href="#d"/><linearGradient id="aH" x1="513.47" y1="566.74" x2="621.39" y2="571.09" xlink:href="#c"/><linearGradient id="aI" x1="684.84" y1="634.65" x2="545.47" y2="745.66" xlink:href="#b"/><linearGradient id="aJ" x1="689.95" y1="674.72" x2="685.65" y2="589.37" xlink:href="#j"/><linearGradient id="aK" x1="531.79" y1="297.7" x2="692.87" y2="509.31" gradientUnits="userSpaceOnUse"><stop offset=".01" stop-color="#fff"/><stop offset=".02" stop-color="#fafafa"/><stop offset=".03" stop-color="#ebebeb"/><stop offset=".05" stop-color="#d1d1d3"/><stop offset=".06" stop-color="#aeaeb1"/><stop offset=".07" stop-color="#828286"/><stop offset=".08" stop-color="#5d5d62"/><stop offset=".15" stop-color="#37373a"/><stop offset=".21" stop-color="#19191a"/><stop offset=".27" stop-color="#070707"/><stop offset=".31"/><stop offset=".64"/><stop offset=".79" stop-color="#5d5d62"/><stop offset=".79" stop-color="#616166"/><stop offset=".85" stop-color="#99999c"/><stop offset=".89" stop-color="#c5c5c7"/><stop offset=".94" stop-color="#e5e5e5"/><stop offset=".97" stop-color="#f8f8f8"/><stop offset="1" stop-color="#fff"/></linearGradient><linearGradient id="k" x1="480.67" y1="309.62" x2="522.62" y2="329.15" gradientUnits="userSpaceOnUse"><stop offset="0" stop-color="#fff"/><stop offset="1" stop-color="#838b8b"/></linearGradient><linearGradient id="aL" x1="486.84" y1="318.05" x2="527.61" y2="332.41" xlink:href="#c"/><linearGradient id="aM" x1="476.26" y1="347.67" x2="520.59" y2="363.27" xlink:href="#c"/><linearGradient id="aN" x1="554.74" y1="422.67" x2="512.97" y2="294.53" gradientUnits="userSpaceOnUse"><stop offset="0" stop-color="#838b8b"/><stop offset="1"/></linearGradient><linearGradient id="aO" x1="505.67" y1="294.45" x2="503.12" y2="340.03" xlink:href="#b"/><linearGradient id="aP" x1="494.37" y1="290.48" x2="511.03" y2="329.68" xlink:href="#c"/><linearGradient id="aQ" x1="518.53" y1="281.77" x2="516.84" y2="311.8" xlink:href="#b"/><linearGradient id="aR" x1="533.43" y1="275.05" x2="532.43" y2="292.99" xlink:href="#b"/><linearGradient id="aS" x1="572.37" y1="559.13" x2="562.87" y2="609.11" xlink:href="#i"/><linearGradient id="aT" x1="468.46" y1="341.11" x2="512.92" y2="361.81" xlink:href="#k"/><linearGradient id="aU" x1="507.37" y1="329.58" x2="505.07" y2="370.64" xlink:href="#b"/><linearGradient id="aV" x1="512.32" y1="404.55" x2="474.32" y2="375.21" xlink:href="#j"/><linearGradient id="aW" x1="575.44" y1="428.09" x2="492.17" y2="436.02" xlink:href="#d"/><linearGradient id="l" x1="519.88" y1="410.25" x2="521.38" y2="455.75" gradientUnits="userSpaceOnUse"><stop offset="0" stop-color="#fff"/><stop offset=".49" stop-color="#909a9d"/><stop offset="1" stop-color="#fff"/></linearGradient><linearGradient id="aX" x1="509.27" y1="338.62" x2="551.37" y2="437.68" xlink:href="#c"/><linearGradient id="aY" x1="569.24" y1="441.76" x2="574.16" y2="480.85" xlink:href="#c"/><linearGradient id="aZ" x1="595.37" y1="492.7" x2="578.84" y2="480.3" xlink:href="#d"/><linearGradient id="ba" x1="505.15" y1="421.95" x2="543.15" y2="515.81" xlink:href="#c"/><linearGradient id="bb" x1="532.53" y1="458.92" x2="519.03" y2="509.59" gradientUnits="userSpaceOnUse"><stop offset="0" stop-color="#b8ffff"/><stop offset=".29" stop-color="#5295d9"/><stop offset=".79" stop-color="#262d3a"/></linearGradient><linearGradient id="bc" x1="534.83" y1="404.81" x2="558.31" y2="444.51" gradientUnits="userSpaceOnUse"><stop offset="0" stop-color="#909a9d"/><stop offset=".13" stop-color="#6f81a9"/><stop offset="1" stop-color="#262d3a"/></linearGradient><radialGradient id="bd" cx="541.12" cy="425.06" r="7.1" gradientUnits="userSpaceOnUse"><stop offset="0" stop-color="#fff"/><stop offset=".67" stop-color="#5295d9"/><stop offset="1" stop-color="#24267e"/></radialGradient><linearGradient id="be" x1="562.31" y1="469.84" x2="579.87" y2="463.05" xlink:href="#i"/><linearGradient id="bf" x1="562.31" y1="469.83" x2="579.86" y2="463.04" xlink:href="#i"/><linearGradient id="bg" x1="534.65" y1="399.68" x2="540.14" y2="443.25" xlink:href="#c"/><linearGradient id="bh" x1="586.53" y1="475.85" x2="586.89" y2="478.75" xlink:href="#c"/><linearGradient id="bi" x1="522.9" y1="499.93" x2="526.65" y2="523.26" xlink:href="#l"/><linearGradient id="m" x1="343.08" y1="301.2" x2="350.66" y2="319.03" gradientTransform="rotate(16.82 347.554 311.824)" gradientUnits="userSpaceOnUse"><stop offset="0" stop-color="#fff"/><stop offset=".11" stop-color="#fafafa"/><stop offset=".24" stop-color="#ebebeb"/><stop offset=".38" stop-color="#d2d1d1"/><stop offset=".54" stop-color="#afaeae"/><stop offset=".7" stop-color="#828181"/><stop offset=".86" stop-color="#4d4b4b"/><stop offset="1" stop-color="#1a1818"/></linearGradient><linearGradient id="bj" x1="799.77" y1="224.87" x2="805.16" y2="237.54" gradientTransform="rotate(16.82 802.869 232.412)" xlink:href="#m"/><linearGradient id="bk" x1="344.59" y1="333.64" x2="395.16" y2="452.63" xlink:href="#c"/><linearGradient id="bl" x1="450.96" y1="495.03" x2="478.62" y2="560.1" xlink:href="#c"/><linearGradient id="bm" x1="400.43" y1="464.8" x2="436.93" y2="509.8" xlink:href="#c"/><linearGradient id="bn" x1="189.36" y1="186.26" x2="325.31" y2="353.87" xlink:href="#c"/><linearGradient id="bo" x1="176.92" y1="380.94" x2="303.11" y2="536.51" xlink:href="#c"/><linearGradient id="bp" x1="354.28" y1="527.5" x2="425.19" y2="614.93" xlink:href="#c"/><linearGradient id="bq" x1="403.45" y1="523.72" x2="447.26" y2="577.75" xlink:href="#c"/><linearGradient id="br" x1="805.78" y1="221.73" x2="932.94" y2="127.88" xlink:href="#c"/><linearGradient id="bs" x1="875.78" y1="339.98" x2="918.27" y2="308.61" xlink:href="#c"/><linearGradient id="bt" x1="738.53" y1="389.88" x2="873.3" y2="290.4" xlink:href="#c"/><linearGradient id="bu" x1="758.54" y1="479.12" x2="806.04" y2="437.62" xlink:href="#c"/><linearGradient id="bv" x1="740" y1="516.65" x2="793.74" y2="469.7" xlink:href="#c"/><linearGradient id="bw" x1="777.17" y1="485.07" x2="778.17" y2="573.57" xlink:href="#c"/><linearGradient id="bx" x1="796.21" y1="485.66" x2="810.64" y2="606.39" xlink:href="#c"/><linearGradient id="by" x1="498.04" y1="370.23" x2="639.44" y2="333.23" xlink:href="#g"/><linearGradient id="bz" x1="629.8" y1="544.1" x2="732.43" y2="517.25" xlink:href="#g"/><linearGradient id="bA" x1="475.21" y1="396.04" x2="501.55" y2="305.37" xlink:href="#g"/><linearGradient id="bB" x1="558.09" y1="266.83" x2="729.43" y2="386.78" xlink:href="#g"/><linearGradient id="bC" x1="519.6" y1="584.62" x2="603.85" y2="668.37" xlink:href="#c"/><linearGradient id="bD" x1="510.51" y1="618.96" x2="583.89" y2="691.9" xlink:href="#c"/><linearGradient id="bE" x1="498.13" y1="645.24" x2="561.25" y2="707.98" xlink:href="#c"/><linearGradient id="bF" x1="548.25" y1="657.34" x2="585.05" y2="693.93" xlink:href="#c"/><linearGradient id="bG" x1="417.58" y1="477.14" x2="405.38" y2="541.28" xlink:href="#i"/><linearGradient id="bH" x1="793.34" y1="444.58" x2="780.81" y2="510.46" xlink:href="#i"/><linearGradient id="bI" x1="487.68" y1="510.49" x2="473.93" y2="582.74" xlink:href="#i"/><linearGradient id="q" x1="396.58" y1="513.85" x2="357.66" y2="336.33" gradientUnits="userSpaceOnUse"><stop offset="0" stop-color="#fff"/><stop offset=".85" stop-color="#909a9d"/><stop offset="1" stop-color="#535d65"/></linearGradient><linearGradient id="bJ" x1="189.8" y1="242.72" x2="184.8" y2="221.72" xlink:href="#i"/><linearGradient id="bK" x1="193.9" y1="240.63" x2="329.1" y2="302.36" xlink:href="#i"/><linearGradient id="bL" x1="-94.41" y1="365.1" x2="175.19" y2="222.82" xlink:href="#i"/><linearGradient id="bM" x1="33.73" y1="760.18" x2="305.07" y2="334.19" xlink:href="#i"/><linearGradient id="bN" x1="193.54" y1="256.83" x2="294.43" y2="203.59" xlink:href="#i"/><linearGradient id="bO" x1="356.88" y1="658.61" x2="404.88" y2="529.95" xlink:href="#i"/><linearGradient id="bP" x1="405" y1="608.13" x2="432.27" y2="535.05" xlink:href="#i"/><linearGradient id="bQ" x1="348.69" y1="319.31" x2="350.79" y2="333.29" xlink:href="#i"/><linearGradient id="bR" x1="923.67" y1="65.93" x2="800.91" y2="213.03" xlink:href="#i"/><linearGradient id="bS" x1="901.05" y1="162.39" x2="904.71" y2="137.06" xlink:href="#i"/><linearGradient id="bT" x1="902.5" y1="157.85" x2="812.17" y2="222.51" xlink:href="#i"/><linearGradient id="bU" x1="979.72" y1="170.8" x2="939.46" y2="199.62" xlink:href="#i"/><linearGradient id="bV" x1="750.5" y1="213.61" x2="968.5" y2="423.94" xlink:href="#i"/><linearGradient id="bW" x1="779.72" y1="663.29" x2="809.05" y2="499.62" xlink:href="#i"/><linearGradient id="bX" x1="762.79" y1="593.03" x2="779.8" y2="498.16" xlink:href="#i"/><linearGradient id="bY" x1="862.08" y1="186.34" x2="767.41" y2="433.34" xlink:href="#i"/><linearGradient id="bZ" x1="751.63" y1="524.98" x2="770.96" y2="486.31" xlink:href="#i"/><linearGradient id="ca" x1="803.91" y1="238.08" x2="805.18" y2="246.59" xlink:href="#i"/><linearGradient id="cb" x1="713.95" y1="584.56" x2="718.56" y2="589.14" xlink:href="#c"/><linearGradient id="cc" x1="706.9" y1="604.67" x2="711.7" y2="609.45" xlink:href="#c"/><linearGradient id="cd" x1="694.99" y1="624.38" x2="700.55" y2="629.91" xlink:href="#c"/><linearGradient id="ce" x1="450.95" y1="663.81" x2="454.4" y2="638.84" xlink:href="#i"/><linearGradient id="cf" x1="438.58" y1="637.25" x2="479.28" y2="677.7" xlink:href="#c"/><linearGradient id="cg" x1="444.32" y1="633.3" x2="463.3" y2="652.16" xlink:href="#c"/><linearGradient id="ch" x1="426.75" y1="673.09" x2="465.28" y2="711.39" xlink:href="#c"/><linearGradient id="ci" x1="437.28" y1="666.57" x2="484.27" y2="713.28" xlink:href="#c"/><linearGradient id="cj" x1="454.83" y1="662.26" x2="496.04" y2="703.23" xlink:href="#c"/><linearGradient id="ck" x1="486.75" y1="720.19" x2="493.14" y2="673.97" xlink:href="#i"/><linearGradient id="cl" x1="673.95" y1="711.63" x2="651.45" y2="770.88" xlink:href="#i"/><linearGradient id="cm" x1="688.47" y1="711.83" x2="661.86" y2="781.89" xlink:href="#i"/><linearGradient id="cn" x1="696.88" y1="723.23" x2="673.26" y2="785.41" xlink:href="#i"/><linearGradient id="co" x1="645.61" y1="724.39" x2="668.99" y2="747.63" xlink:href="#c"/><linearGradient id="cp" x1="655.87" y1="728.16" x2="686.14" y2="758.25" xlink:href="#c"/><linearGradient id="cq" x1="676" y1="753.3" x2="693.3" y2="770.49" xlink:href="#c"/><linearGradient id="cr" x1="624.46" y1="717" x2="632.75" y2="725.24" xlink:href="#c"/><linearGradient id="cs" x1="648.46" y1="696" x2="685.62" y2="732.95" xlink:href="#c"/><linearGradient id="ct" x1="642.54" y1="691.46" x2="658.51" y2="707.33" xlink:href="#c"/><linearGradient id="cu" x1="645.92" y1="703.06" x2="633.34" y2="736.19" xlink:href="#i"/><linearGradient id="cv" x1="497.74" y1="325.29" x2="511.29" y2="357.17" xlink:href="#c"/><linearGradient id="cw" x1="509.04" y1="280.98" x2="518.98" y2="304.36" xlink:href="#c"/><linearGradient id="n" x1="532.4" y1="273.53" x2="533.44" y2="284.69" gradientUnits="userSpaceOnUse"><stop offset="0" stop-color="#fff"/><stop offset=".18" stop-color="#cdcdcd"/><stop offset=".59" stop-color="#606060"/><stop offset=".87" stop-color="#1b1b1b"/><stop offset="1"/></linearGradient><linearGradient id="cx" x1="548.55" y1="269.92" x2="549.32" y2="278.22" xlink:href="#n"/><linearGradient id="cy" x1="564.08" y1="271.16" x2="564.56" y2="276.3" xlink:href="#n"/><linearGradient id="cz" x1="578.69" y1="273.75" x2="578.94" y2="276.4" xlink:href="#n"/><linearGradient id="cA" x1="527.14" y1="275.51" x2="532.23" y2="287.48" xlink:href="#c"/><linearGradient id="cB" x1="624.17" y1="557.09" x2="625.65" y2="560.57" xlink:href="#c"/><linearGradient id="cC" x1="636.15" y1="542.89" x2="637.25" y2="545.47" xlink:href="#c"/><linearGradient id="cD" x1="646.49" y1="527.72" x2="647.09" y2="529.13" xlink:href="#c"/><linearGradient id="cE" x1="655.06" y1="513.28" x2="655.43" y2="514.15" xlink:href="#c"/><linearGradient id="cF" x1="672.14" y1="467" x2="672.29" y2="467.35" gradientTransform="rotate(-28.66 676.643 469.925)" xlink:href="#c"/><linearGradient id="cG" x1="496.24" y1="308.7" x2="500.48" y2="355.61" xlink:href="#o"/><linearGradient id="cH" x1="597.34" y1="568.08" x2="684.34" y2="608.58" xlink:href="#k"/><linearGradient id="cI" x1="613.65" y1="582.32" x2="698.15" y2="612.07" xlink:href="#c"/><linearGradient id="cJ" x1="622.48" y1="535.84" x2="696.31" y2="570.21" xlink:href="#k"/><linearGradient id="cK" x1="634.99" y1="550.45" x2="707.26" y2="575.9" xlink:href="#c"/><linearGradient id="cL" x1="640.71" y1="507.07" x2="704.07" y2="536.57" xlink:href="#k"/><linearGradient id="cM" x1="651.79" y1="518.63" x2="714.01" y2="540.53" xlink:href="#c"/><linearGradient id="cN" x1="657.2" y1="471.84" x2="710.41" y2="496.62" xlink:href="#k"/><linearGradient id="cO" x1="666.72" y1="481.31" x2="719.31" y2="499.83" xlink:href="#c"/><linearGradient id="cP" x1="665.59" y1="435.34" x2="712.88" y2="457.35" xlink:href="#k"/><linearGradient id="cQ" x1="673.56" y1="443.31" x2="721.18" y2="460.08" xlink:href="#c"/><linearGradient id="cR" x1="668.26" y1="396.07" x2="709.87" y2="415.43" xlink:href="#k"/><linearGradient id="cS" x1="674.84" y1="403.24" x2="717.51" y2="418.26" xlink:href="#c"/><linearGradient id="cT" x1="663.43" y1="359.26" x2="694.95" y2="373.93" xlink:href="#k"/><linearGradient id="cU" x1="668.23" y1="363.86" x2="702.15" y2="375.8" xlink:href="#c"/><linearGradient id="cV" x1="478.64" y1="381.54" x2="492.28" y2="387.89" xlink:href="#k"/><linearGradient id="cW" x1="480.37" y1="384.16" x2="496.28" y2="389.76" xlink:href="#c"/><linearGradient id="cX" x1="520.91" y1="293.94" x2="549.33" y2="307.17" xlink:href="#k"/><linearGradient id="cY" x1="525.96" y1="299.55" x2="551.66" y2="308.6" xlink:href="#c"/><linearGradient id="cZ" x1="566.26" y1="289.52" x2="586.14" y2="298.78" xlink:href="#k"/><linearGradient id="da" x1="572.75" y1="292.76" x2="589.92" y2="298.8" xlink:href="#c"/><linearGradient id="db" x1="618.21" y1="302.11" x2="627.57" y2="306.47" xlink:href="#k"/><linearGradient id="dc" x1="619.62" y1="303.05" x2="630.52" y2="306.89" xlink:href="#c"/><linearGradient id="dd" x1="647.14" y1="325.06" x2="667.13" y2="334.36" xlink:href="#k"/><linearGradient id="de" x1="649.97" y1="328.12" x2="672.09" y2="335.9" xlink:href="#c"/><linearGradient id="df" x1="485.9" y1="672" x2="537.29" y2="723.08" xlink:href="#c"/><linearGradient id="dg" x1="603.71" y1="711.14" x2="607.47" y2="714.87" xlink:href="#c"/><linearGradient id="dh" x1="601.88" y1="717.67" x2="615.15" y2="730.86" xlink:href="#c"/><linearGradient id="di" x1="477.71" y1="670.81" x2="512.39" y2="705.28" xlink:href="#c"/><linearGradient id="dj" x1="482.17" y1="427.48" x2="515.1" y2="505.39" xlink:href="#g"/><linearGradient id="dk" x1="472.39" y1="436.69" x2="498.56" y2="402.94" xlink:href="#c"/><linearGradient id="dl" x1="487.86" y1="348.85" x2="514.78" y2="412.53" xlink:href="#g"/><linearGradient id="dm" x1="525.45" y1="349.77" x2="569.3" y2="453.53" xlink:href="#g"/><linearGradient id="dn" x1="551.84" y1="488.84" x2="560.29" y2="489.19" gradientUnits="userSpaceOnUse"><stop offset="0" stop-color="#1a1818"/><stop offset=".01" stop-color="#1d1c1c"/><stop offset=".11" stop-color="#506060"/><stop offset=".2" stop-color="#7a9999"/><stop offset=".29" stop-color="#9bc5c5"/><stop offset=".37" stop-color="#b3e5e5"/><stop offset=".44" stop-color="#c2f8f8"/><stop offset=".48" stop-color="#c7ffff"/><stop offset=".54" stop-color="#c3fafa"/><stop offset=".6" stop-color="#b8ebeb"/><stop offset=".68" stop-color="#a5d1d1"/><stop offset=".76" stop-color="#8baeae"/><stop offset=".84" stop-color="#698181"/><stop offset=".93" stop-color="#404b4b"/><stop offset="1" stop-color="#1a1818"/></linearGradient><linearGradient id="do" x1="517.53" y1="705.75" x2="521.28" y2="676.5" xlink:href="#k"/><linearGradient id="dp" x1="583.73" y1="729.43" x2="586.1" y2="710.95" xlink:href="#k"/><linearGradient id="dq" x1="584.15" y1="441.1" x2="587.77" y2="490.22" xlink:href="#g"/><linearGradient id="dr" x1="246.6" y1="810.43" x2="500.63" y2="725.58" xlink:href="#c"/><linearGradient id="ds" x1="237.02" y1="778.24" x2="398.68" y2="724.24" xlink:href="#c"/><linearGradient id="dt" x1="468.15" y1="845.84" x2="639.35" y2="788.66" xlink:href="#c"/><linearGradient id="du" x1="236.48" y1="826.66" x2="520.43" y2="760.51" xlink:href="#g"/><linearGradient id="dv" x1="447.37" y1="845.15" x2="661.77" y2="795.21" xlink:href="#g"/><linearGradient id="dw" x1="285.91" y1="841.11" x2="525.74" y2="738.44" gradientUnits="userSpaceOnUse"><stop offset="0" stop-color="#fff"/><stop offset=".89" stop-color="#5b686a"/><stop offset="1" stop-color="#0f1e23"/></linearGradient><linearGradient id="dx" x1="232.51" y1="773.63" x2="380.26" y2="739.22" xlink:href="#g"/><linearGradient id="dy" x1="205.68" y1="721.45" x2="367.54" y2="835.61" xlink:href="#g"/><linearGradient id="p" x1="554.35" y1="684.37" x2="369.69" y2="795.7" gradientUnits="userSpaceOnUse"><stop offset="0" stop-color="#fff"/><stop offset=".61" stop-color="#5b686a"/><stop offset=".82" stop-color="#0f1e23"/><stop offset="1" stop-color="#fff"/></linearGradient><linearGradient id="dz" x1="235.64" y1="771.64" x2="384.75" y2="736.9" xlink:href="#g"/><linearGradient id="dA" x1="495.49" y1="724.05" x2="532.15" y2="741.11" xlink:href="#k"/><linearGradient id="dB" x1="502.97" y1="729.69" x2="536.5" y2="741.5" xlink:href="#c"/><linearGradient id="dC" x1="463.42" y1="732.87" x2="505.8" y2="752.6" xlink:href="#k"/><linearGradient id="dD" x1="471.3" y1="739.42" x2="510.96" y2="753.39" xlink:href="#c"/><linearGradient id="dE" x1="433.43" y1="755.59" x2="468.63" y2="771.97" xlink:href="#k"/><linearGradient id="dF" x1="439.26" y1="761.26" x2="472.09" y2="772.82" xlink:href="#c"/><linearGradient id="dG" x1="399.69" y1="774.48" x2="434.6" y2="790.73" xlink:href="#k"/><linearGradient id="dH" x1="404.52" y1="779.88" x2="437.04" y2="791.32" xlink:href="#c"/><linearGradient id="dI" x1="361.68" y1="791.74" x2="396.6" y2="807.99" xlink:href="#k"/><linearGradient id="dJ" x1="366.07" y1="797.54" x2="398.07" y2="808.81" xlink:href="#c"/><linearGradient id="dK" x1="320.55" y1="806.05" x2="354.46" y2="821.83" xlink:href="#k"/><linearGradient id="dL" x1="324.56" y1="810.83" x2="356.07" y2="821.92" xlink:href="#c"/><linearGradient id="dM" x1="279.78" y1="811.94" x2="308.46" y2="825.29" xlink:href="#k"/><linearGradient id="dN" x1="283.8" y1="816.6" x2="309.5" y2="825.65" xlink:href="#c"/><linearGradient id="dO" x1="239.93" y1="802.58" x2="258.75" y2="811.34" xlink:href="#k"/><linearGradient id="dP" x1="243.94" y1="805.98" x2="265.87" y2="813.7" xlink:href="#c"/><linearGradient id="dQ" x1="216.83" y1="772.35" x2="243.96" y2="784.98" xlink:href="#k"/><linearGradient id="dR" x1="222.08" y1="777.66" x2="250.05" y2="787.51" xlink:href="#c"/><linearGradient id="dS" x1="219.8" y1="740.69" x2="253.27" y2="756.28" xlink:href="#k"/><linearGradient id="dT" x1="224.46" y1="746.84" x2="257.17" y2="758.36" xlink:href="#c"/><linearGradient id="dU" x1="241.99" y1="727.43" x2="267.02" y2="739.09" xlink:href="#k"/><linearGradient id="dV" x1="244.57" y1="733.28" x2="268.81" y2="741.81" xlink:href="#c"/><linearGradient id="dW" x1="278.38" y1="724.58" x2="289.94" y2="729.96" xlink:href="#k"/><linearGradient id="dX" x1="279.72" y1="726.19" x2="289.31" y2="729.56" xlink:href="#c"/><linearGradient id="dY" x1="310.51" y1="728.05" x2="321.2" y2="733.03" xlink:href="#k"/><linearGradient id="dZ" x1="314.28" y1="729.76" x2="323.35" y2="732.96" xlink:href="#c"/><linearGradient id="ea" x1="342.41" y1="738.94" x2="353.26" y2="743.99" xlink:href="#k"/><linearGradient id="eb" x1="346.51" y1="741.79" x2="357.5" y2="745.66" xlink:href="#c"/><linearGradient id="ec" x1="371.21" y1="752.62" x2="384.06" y2="758.61" xlink:href="#k"/><linearGradient id="ed" x1="376.18" y1="755.1" x2="387.33" y2="759.03" xlink:href="#c"/><linearGradient id="ee" x1="401.6" y1="766.48" x2="406.31" y2="768.68" xlink:href="#k"/><linearGradient id="ef" x1="404.05" y1="767.05" x2="409.68" y2="769.03" xlink:href="#c"/><linearGradient id="eg" x1="449.71" y1="794.5" x2="456.7" y2="797.75" xlink:href="#k"/><linearGradient id="eh" x1="452.56" y1="796.27" x2="458.5" y2="798.36" xlink:href="#c"/><linearGradient id="ei" x1="483.71" y1="813.07" x2="490.54" y2="816.25" xlink:href="#k"/><linearGradient id="ej" x1="486.56" y1="814.53" x2="491.8" y2="816.38" xlink:href="#c"/><linearGradient id="ek" x1="520.68" y1="829.63" x2="525.51" y2="831.88" xlink:href="#k"/><linearGradient id="el" x1="522.76" y1="830.55" x2="526.74" y2="831.95" xlink:href="#c"/><linearGradient id="em" x1="553.41" y1="840.5" x2="558.79" y2="843" xlink:href="#k"/><linearGradient id="en" x1="556.6" y1="841.57" x2="561.21" y2="843.19" xlink:href="#c"/><linearGradient id="eo" x1="588.94" y1="847.73" x2="592.76" y2="849.51" xlink:href="#k"/><linearGradient id="ep" x1="591.27" y1="848.59" x2="594.21" y2="849.63" xlink:href="#c"/><linearGradient id="eq" x1="617.7" y1="849.62" x2="621.06" y2="851.18" xlink:href="#k"/><linearGradient id="er" x1="621.1" y1="850.6" x2="623.76" y2="851.54" xlink:href="#c"/><linearGradient id="es" x1="648.82" y1="847.07" x2="652.2" y2="848.64" xlink:href="#k"/><linearGradient id="et" x1="650.72" y1="847.59" x2="653.82" y2="848.68" xlink:href="#c"/><linearGradient id="eu" x1="690.38" y1="453.84" x2="525.28" y2="307.95" xlink:href="#p"/><linearGradient id="ev" x1="736.77" y1="442.96" x2="576.77" y2="263.21" xlink:href="#p"/><linearGradient id="ew" x1="668.57" y1="352.96" x2="645.24" y2="565.3" xlink:href="#p"/><linearGradient id="ex" x1="682.79" y1="557.18" x2="636.79" y2="553.18" gradientUnits="userSpaceOnUse"><stop offset="0" stop-color="#fff"/><stop offset="1" stop-color="#5b686a"/></linearGradient><linearGradient id="ey" x1="602.17" y1="259.68" x2="728.14" y2="550.97" xlink:href="#p"/><linearGradient id="ez" x1="209.74" y1="143.82" x2="358.47" y2="327.18" xlink:href="#c"/><linearGradient id="eA" x1="816.78" y1="147.15" x2="853.23" y2="192.1" xlink:href="#c"/><linearGradient id="eB" x1="162.62" y1="311.22" x2="297.53" y2="240.03" xlink:href="#i"/><linearGradient id="eC" x1="89.89" y1="231.74" x2="134.96" y2="287.31" xlink:href="#c"/><linearGradient id="eD" x1="929.28" y1="96.85" x2="821.92" y2="225.5" xlink:href="#i"/><linearGradient id="eE" x1="934.98" y1="186.56" x2="976.14" y2="156.18" xlink:href="#c"/><linearGradient id="eF" x1="389.98" y1="537.46" x2="379.65" y2="344.47" xlink:href="#q"/><linearGradient id="eG" x1="502.27" y1="602.87" x2="445.27" y2="488.87" xlink:href="#q"/><linearGradient id="eH" x1="699.55" y1="496.83" x2="854.3" y2="244.08" xlink:href="#q"/><linearGradient id="eI" x1="736.77" y1="533.89" x2="773.78" y2="473.45" xlink:href="#q"/><linearGradient id="eJ" x1="767.54" y1="456.7" x2="782.37" y2="468.18" xlink:href="#q"/><linearGradient id="eK" x1="421.05" y1="465.7" x2="425.38" y2="524.03" xlink:href="#q"/></defs><g data-name="Layer 2 copy"><path d="M565.5 487.75s-7.5 5.25-14.83 4.92c9.83-6.17 10.33-11 10.33-11z" transform="translate(-7 -93.67)" fill="url(#a)"/><path d="M577.67 486.67a21.34 21.34 0 0 1-13.34 6.33c6.5-6 8.5-11.5 8.5-11.5z" transform="translate(-7 -93.67)" fill="url(#r)"/><path d="M673.16 497.26c-.28-2.3-5.24-2-11.58.49-5.71 2.27-3.41 2.54-.52 3.87 4.58 2.1 6.4 4.3 6.66 3.92 2.95-4.27 5.56-7.26 5.44-8.28z" transform="translate(-7 -93.67)" fill="url(#b)"/><path d="M658.42 499.8a7.7 7.7 0 0 1 3.19-1.8 18.69 18.69 0 0 1 3.38-1s-4.2 1.62-6.57 2.8z" transform="translate(-7 -93.67)" style="mix-blend-mode:screen" fill="url(#c)"/><path d="M679.61 481.36c-.64-2.23-5.5-1.18-11.35 2.32-5.28 3.15-3 3 .09 3.9 4.86 1.35 7 3.23 7.2 2.82 2.24-4.68 4.34-8.05 4.06-9.04z" transform="translate(-7 -93.67)" fill="url(#s)"/><path d="M665.58 486.17s3.29-2.29 4.17-2.42-4.17 2.42-4.17 2.42z" transform="translate(-7 -93.67)" style="mix-blend-mode:screen" fill="url(#t)"/><path d="M543.69 285.42c-3-.88 3-9.48 8.59-14.62 3.39-3.14 2-2.26 1.55 2.7-.33 3.83 4.13 8.57 1.46 8.66-6.73.25-10.29 3.65-11.6 3.26z" transform="translate(-7 -93.67)" fill="url(#u)"/><path d="M559.52 282.36c-1.91-1.31.64-5.59 5.81-10 4.67-4 3.83-1.83 3.67 1.33-.27 5 .83 7.67.38 7.72-5.16.59-9.02 1.53-9.86.95z" transform="translate(-7 -93.67)" fill="url(#v)"/><path d="M633.54 560.71c.27-2.31-4.63-3.2-11.37-2.21-6.08.88-3.9 1.68-1.41 3.64 4 3.11 5.23 5.67 5.57 5.36 3.86-3.5 7.09-5.77 7.21-6.79z" transform="translate(-7 -93.67)" fill="url(#w)"/><path d="M645.31 544.95c0-2.32-4.95-2.67-11.55-1-6 1.54-3.7 2.1-1 3.77 4.28 2.66 5.81 5.07 6.12 4.72 3.47-3.82 6.43-6.44 6.43-7.49z" transform="translate(-7 -93.67)" fill="url(#x)"/><path d="M656.56 529.2c0-2.32-4.95-2.67-11.55-1-6 1.54-3.7 2.1-1 3.77 4.28 2.66 5.81 5.07 6.12 4.72 3.47-3.82 6.43-6.47 6.43-7.49z" transform="translate(-7 -93.67)" fill="url(#y)"/><path d="M666.81 514.2c0-2.32-4.95-2.67-11.55-1-6 1.54-3.7 2.1-1 3.77 4.28 2.66 5.81 5.07 6.12 4.72 3.47-3.82 6.43-6.47 6.43-7.49z" transform="translate(-7 -93.67)" fill="url(#z)"/><path d="M683.3 463.12c-1.1-2-5.62 0-10.59 4.69-4.48 4.21-2.24 3.61.93 3.79 5 .28 7.53 1.66 7.64 1.21 1.17-5.05 2.51-8.81 2.02-9.69z" transform="translate(-7 -93.67)" fill="url(#A)"/><path d="M571.85 285.69c-1.91-1.31.64-5.59 5.81-10 4.67-4 4.56-2.78 3.67 1.33-.63 2.92 2.4 8.09.38 7.72-5.11-.95-9.01 1.53-9.86.95z" transform="translate(-7 -93.67)" fill="url(#B)"/><path d="M579 720.5c-77.07 35.19-197.84 119.86-282 115.83-69.47-3.33-82.52-46.53-76-73.14 8.27-33.68 44.35-52.64 83.56-45.58 55 9.89 98.54 43.21 190 93.62C594 866 667.94 845.07 709.19 832.59c-86.63 36.15-152 28.47-259.29-30.67-48-26.45-88.07-44.08-119.84-56.38C249.25 714.25 227.93 789.31 276 803c43.07 12.26 138.25-20.5 249-109 150.63-120.37 54 26.5 54 26.5z" transform="translate(-7 -93.67)" fill="url(#d)"/><ellipse cx="512.2" cy="701.38" rx="22.43" ry="18.52" transform="rotate(-66.44 437.252 659.907)" fill="url(#e)"/><ellipse cx="517.82" cy="702.5" rx="16.92" ry="12.82" transform="rotate(-66.45 442.777 660.988)" fill="url(#C)"/><path d="M607 724.5c-3.5 11.5-12.5 21.5-28 15.5-7.85-3-10.91-14.66-7.42-24.22s12.72-15 20.64-12.1S610 714.76 607 724.5z" transform="translate(-7 -93.67)" fill="url(#D)"/><ellipse cx="583.37" cy="718.89" rx="15.08" ry="11.43" transform="rotate(-70.1 511.29 676.83)" fill="url(#E)"/><path d="M776.33 581s-19.33 3.33-56.67 23.33S641 663.67 641 663.67l48.77-94.84s31.23 1.5 54.57-35.16 27.33-46 27.33-46 8.66 20 4.66 93.33z" transform="translate(-7 -93.67)" fill="url(#F)"/><path d="M812.33 616.33A89.34 89.34 0 0 0 797 595.67 75.65 75.65 0 0 0 776.33 581s2-40.67 0-64.67-4.67-32.67-4.67-32.67 16-16 28.67 52 12 80.67 12 80.67z" transform="translate(-7 -93.67)" fill="url(#G)"/><path d="M930.33 381s-7.19 55.62-44 130c-32.67 66-74 105.33-74 105.33S807 563 797 527s-14.67-53.33-14.67-53.33 24.67-62.67 26-124A770.1 770.1 0 0 0 802 235.54s53.71-5.21 89 60.12S930.33 381 930.33 381z" transform="translate(-7 -93.67)" fill="url(#H)"/><path d="M975 177s12.66 50.67 7.33 140.67S955 479 955 479s-23.92-144.13-82.67-206.67c-41.33-44-64-34-64-34S888.33 105 975 177z" transform="translate(-7 -93.67)" fill="url(#I)"/><path d="M429 601s19.33.67 52 16.67 48.67 44.67 48.67 44.67S558.33 677 581 645s14-58 14-58-49.33 8.67-101.33-28-71.33-62-71.33-62S417 524.33 429 601z" transform="translate(-7 -93.67)" fill="url(#J)"/><path d="M381.67 649s12.3-18.22 24-29.33C419 607 429 601 429 601s-4-13.33-7.33-48 .67-56 .67-56-41.34 10-40.67 152z" transform="translate(-7 -93.67)" fill="url(#K)"/><path d="M190.33 491s21.38 41.69 90 92.67c70 52 101.33 65.33 101.33 65.33S385 592.33 393 545.67s12.67-62 12.67-62-18-12.67-36.67-73.34-19.33-88-19.33-88-51.33-8-98 46.67-61.34 122-61.34 122z" transform="translate(-7 -93.67)" fill="url(#L)"/><path d="M73.67 264.33S69 339 92.33 441 161 639 161 639s16.44-163.14 62.67-232c62.67-93.33 118-86 118-86S299 271 216.33 249.67 73.67 264.33 73.67 264.33z" transform="translate(-7 -93.67)" fill="url(#M)"/><path d="M424.33 503.67c-16.67 0-2 84.67 8 109.33-16-82-.66-109.33-8-109.33z" transform="translate(-7 -93.67)" fill="url(#N)"/><path d="M405.67 483.67c-10 4.67-18.67 53.33-22 101.33s-2 74-2 74 6.67-129.33 36.67-148c5.99-14-12.67-27.33-12.67-27.33z" transform="translate(-7 -93.67)" fill="url(#O)"/><path d="M349.67 319c-36-2-90.67-11.33-144.67 119.33S161 649 161 649s25.33-306.67 184-325.33c6-2.67 4.67-4.67 4.67-4.67z" transform="translate(-7 -93.67)" fill="url(#P)"/><path d="M415.67 482.33s-15-14.79-36-62C353 360.33 359 325 360.33 323s-10 2.67-11.33 11.33-1.74 83.89 56 154c9.33 11.34 10.67-6 10.67-6z" transform="translate(-7 -93.67)" fill="url(#Q)"/><path d="M595 587s-54.67-4.67-95.33-30.67-64-51.33-64-51.33 4.67-5.33-2-12-26.62-21.33-30.67-21.33-4 6.67-4 10.67-2.67 46-.67 51.33S409.67 505 425.67 517c3.42 2.56 15.69 22 71.33 52 68 36.67 98 18 98 18z" transform="translate(-7 -93.67)" fill="url(#R)"/><path d="M348.33 317a787.61 787.61 0 0 0-90-63.33C203.67 221 179 217 179 217s8.67 8 7.33 12S129.8 221.13 72 259.67c-55 36.66-65 62.66-65 62.66S129.67 151 339 321c10 1.33 16.67 4 9.33-4z" transform="translate(-7 -93.67)" fill="url(#S)"/><path d="M353.67 310.33s7-34.67-173.33-170.67C352.33 287 333 310.33 339.67 317s14 1.33 14-6.67z" transform="translate(-7 -93.67)" fill="url(#T)"/><circle cx="341.33" cy="223.33" r="17.33" fill="url(#f)"/><path d="M770.5 477.11c14-5.11 9.66 84.12 5.45 109.33 2.55-82.65-18.2-104.68-5.45-109.33z" transform="translate(-7 -93.67)" fill="url(#U)"/><path d="M778.5 359.83c7.09 4 15.07 54 22 101.5s6.59 73.89 6.59 73.89-17.14-128.27-38.88-144.89c-5.36-13.52 10.29-30.5 10.29-30.5z" fill="#909a9d"/><path d="M802 235.54c23.67-4.31 59-16 106.78 87s48.42 169.18 48.42 169.18S912.31 242.53 805.48 239c-4.22-1.72-3.48-3.46-3.48-3.46z" transform="translate(-7 -93.67)" fill="url(#V)"/><path d="M781.67 450.33s20-48.67 20.67-110c.68-62.57-3.18-101.53-4.63-103.18S801.58 233 805 241s22 138.67-12 221.33c-4.92 11.96-11.33-12-11.33-12z" transform="translate(-7 -93.67)" fill="url(#W)"/><path d="M689.77 568.83s29.08-7.56 48.5-35.61a288.08 288.08 0 0 0 29.53-54.5s-3-5.06-.1-12S780 444 782.17 443.8s8.33 5.64 10.16 9.2c6.33 12.33-1 46.83-1.54 52.25s-8.94-27.92-16.41-15.13c-1.59 2.73-6.31 22.73-33.43 55.56-33.13 40.12-51.18 23.15-51.18 23.15z" transform="translate(-7 -93.67)" fill="url(#X)"/><path d="M804 233.67s25.18-33.51 56.52-63.33c34.33-32.67 49.82-36.67 49.82-36.67s-5.44 8-4.61 12 35.5-7.87 71.8 30.67c34.52 36.66 40.8 62.66 40.8 62.66s-77-171.33-208.48-1.33c-6.28 1.33-10.46 4-5.85-4z" transform="translate(-7 -93.67)" fill="url(#Y)"/><path d="M800.55 229s-10.22-30 84.23-135.34C801.2 210.5 810.59 229 807.35 234.29s-6.8 1.06-6.8-5.29z" transform="translate(-7 -93.67)" fill="url(#Z)"/><ellipse cx="796.33" cy="142" rx="11.84" ry="12.67" fill="url(#aa)"/><path d="M577.5 674.5c-44.75-23.48-79-12.5-89.5-9s4.5-2.5 28.5 19c24.4 21.86-.5 44.5 4 47.5s24.42-14 51.25-19c29.5-5.5 38.42 3.17 43.42 7.67 4.7 4.23 12.83-19.67-37.67-46.17z" transform="translate(-7 -93.67)" fill="url(#ab)"/><path d="M514 643s12.67 11.33 21.67 45c8.17 30.55 17.3 37.13 27.33 34 122.67-38.33 114-83 154.67-116.33-32 2-97.17 75.33-111.17 70.33S555 630.5 514 643z" transform="translate(-7 -93.67)" fill="url(#ac)"/><path d="M514 643s30.75 1.5 49.25 20.5 30.06 36 16 32.25c-34.75-9.25-17.5-48-65.25-52.75z" transform="translate(-7 -93.67)" style="mix-blend-mode:multiply" opacity=".8" fill="url(#g)"/><path d="M514 643s28.67 1.67 41.33 16 18 21.67 25.67 26.33 24.33-17.67-10.67-35S514 643 514 643z" transform="translate(-7 -93.67)" fill="url(#ad)"/><path d="M522.5 621.5s16.37 14.45 31.5 43.5c16.67 32 29.76 43.52 53.33 34.67C673 675 693 611 733 583.67 717 570.33 646 658 620 650s-45.5-36.5-97.5-28.5z" transform="translate(-7 -93.67)" fill="url(#ae)"/><path d="M522.75 621.25s35 1.5 53.5 20.5 40.37 29.53 26 27.25c-36.25-5.75-15.5-39.25-79.5-47.75z" transform="translate(-7 -93.67)" style="mix-blend-mode:multiply" opacity=".8" fill="url(#af)"/><path d="M522.5 621.5s20.84-.5 39.5 10.83 25 17 34.33 19.33 10.34-19.3-15.67-26.33c-36.99-10-58.16-3.83-58.16-3.83z" transform="translate(-7 -93.67)" fill="url(#ag)"/><path d="M525 595.33s19.21 3.74 46 40.67c12.33 17 24.75 42.67 53 39 25.67-3.33 40.43-15.34 49-30.33 36-63 74-85 74-85s-82.33 0-222 35.66z" transform="translate(-7 -93.67)" fill="url(#ah)"/><path d="M525.75 595.25s34.54 0 54.5 17.5c12 10.5 20.25 15 33.5 16 8.82.67 7.43 2 0 2.75-29.75 3-30.5-29.75-88-36.25z" transform="translate(-7 -93.67)" style="mix-blend-mode:multiply" opacity=".8" fill="url(#ai)"/><path d="M525 595.33S556.67 593 588 619c18 14.9 33.33 8 34 .33s-1.07-10.74-21.67-22.67c-31.66-18.33-75.33-1.33-75.33-1.33z" transform="translate(-7 -93.67)" fill="url(#aj)"/><path d="M605.75 607.5s14.18 8.82.5 47.25c-23.5 66-86 74.5-86 74.5s13.25-9.5 16.25-17S540 701 540 701a50.43 50.43 0 0 0 2.67 6.5 38.45 38.45 0 0 1 2 4.17 136.77 136.77 0 0 0 12.08-11.42c5.5-6 6.25-19.42 6.25-19.42s3.5 5.67 5.83 8 5.75-3.3 11.33-10.83c11.1-15 4.33-23 4.33-23s5 6.83 6.67 7.67c2.13 1.07 6.06-9.59 8.17-14.67 6.75-16.25 3.83-20.67 3.83-20.67S590.61 613.5 575.25 607c-21.25-9-33-17-33-17s54.5 10 63.5 17.5z" transform="translate(-7 -93.67)" style="mix-blend-mode:multiply" opacity=".8" fill="url(#ak)"/><path d="M690 539c3.5-2 15.25 1.5 32.25-7 14.62-7.31 19-14 21-15.5a6.78 6.78 0 0 1 4.75-1s4.75 2.5 4.25 6.5-6.37 32.28-26.25 48.5C707 586 683.5 594 680.5 591s9.5-52 9.5-52z" transform="translate(-7 -93.67)" fill="url(#al)"/><path d="M704.25 558s14.14.11 28.25-14c12.75-12.75 17-26 17-26s1.75-.25 2.25 2.75-5 48-56.5 67.75 9-30.5 9-30.5z" transform="translate(-7 -93.67)" style="mix-blend-mode:multiply" fill="url(#i)"/><path d="M625 578c-17.4 7.73-21 20-18 45.5s-33 82.5-91.5 108c2.25 8.75 17.32 12.23 19.25 11.5 153-58 162-122.25 147.5-152.25C674.61 574.94 634 574 625 578z" transform="translate(-7 -93.67)" fill="url(#am)"/><path d="M691.5 541a87.79 87.79 0 0 0 34.5-9c12.28-6.14 16.25-12.75 18.75-13.25s4.14 5.54-10.25 22.25c-15.5 18-45 18.5-45 18.5z" transform="translate(-7 -93.67)" style="mix-blend-mode:screen" fill="url(#an)"/><path d="M610.5 606c34.5 26 35.88 54.61 53.5 48 8-3 11.5-11.25 21.5-37 13-33.54 29-85 33.5-163 6.68-115.85-71-174-132.5-176s-113.5 34-113 95.5 26 75 41.5 71.5 29.5-24 16-43.5c-26.67-38.5-16.59-92.63 50-89.17 70.5 3.67 101.47 78.43 92.5 150.17-8 64-56 112-60.5 122.5-2.05 4.72-12.51 13.46-2.5 21z" transform="translate(-7 -93.67)" fill="url(#ao)"/><path d="M509.33 363.67S494 332.33 515 310.83s41-28.17 62-30-3.5 28-22.33 33.33-40 18-37.33 52.83-8.01-3.32-8.01-3.32z" transform="translate(-7 -93.67)" style="mix-blend-mode:multiply" opacity=".8" fill="url(#j)"/><path d="M497 316.33s-15.68 17.06-18.33 49.33c-3.67 44.67 10.33 41 10.33 41s-18-40.66 8-90.33z" transform="translate(-7 -93.67)" style="mix-blend-mode:screen" fill="url(#o)"/><path d="M655 654.33c-7-4.42-15.75-29.42-43.3-48.26-6-4.1-3.39-8.8.64-14.57a25.23 25.23 0 0 0 2.49-4c.92-2.13 4.23-6.51 8.42-12.05 14.92-19.74 46-60.81 52.23-111 5.81-46.48-5-91.27-28.91-119.81 39.75 20.4 73.75 91.73 52.75 194.4-13.06 63.88-35.73 120.71-44.32 115.29z" transform="translate(-7 -93.67)" style="mix-blend-mode:screen" opacity=".6" fill="url(#h)"/><path d="M517 307.33c-15.33 14.33-31 48.33 25.33 94.67 6.7 5.51-19.87 39.27-27.77 41a19.11 19.11 0 0 1-4.21.46c-15.82 0-34.43-18.34-34.85-70-.2-24.72 8.34-46.5 24.7-63 19.55-19.71 48.48-30.57 81.45-30.57-20.98 2.11-38.71 3.2-64.65 27.44z" transform="translate(-7 -93.67)" style="mix-blend-mode:screen" fill="url(#ap)"/><path d="M597.5 714s11.36 2.79 27-7.5c19-12.5 31-17.5 40.5-6s-2.5 17-16.5 17-23 8-36 11.5c-3.91 1.05-11 6.8-13.5 7-5.77.46-6.5-6-6.5-6s5.5-4.5 5-16z" transform="translate(-7 -93.67)" fill="url(#aq)"/><path d="M592.5 730s5.34 1.62 12.25-2.75c9.5-6 25.25-11.5 31.5-10.75 7.65.92-5 .75-15.25 10-13 3-16.5 6.75-19.25 8.75s-8.25 1-9.25-5.25z" transform="translate(-7 -93.67)" style="mix-blend-mode:multiply" fill="url(#ar)"/><path d="M646 721.5c-5-8.5-27.67 1.05-31 30 0 0-5.5-28.5 23-43.5s41.88-3.75 46-1c4.5 3 11.5 10.5 6.5 17.5-5.55 7.77-7.9 9.66-26.5 7-7-1-14.6-4.22-18-10z" transform="translate(-7 -93.67)" fill="url(#as)"/><path d="M651.5 721.67c-.78-3 7.33-11.5 15.17-9 4 1.26 4.52-1.92 9.5-.33 7.33 2.33 7.9 6.2 10.5 8 2.17 1.5 3 2.47 1.83 5.17-2 4.49-33.17 10.82-37-3.84z" transform="translate(-7 -93.67)" fill="url(#at)"/><path d="M684.5 722c5.46 6.83 15.5 25-5 65 8.5-54.5-5.5-55.5-8-63.5s7-9 13-1.5z" transform="translate(-7 -93.67)" fill="url(#au)"/><path d="M680.5 716.5c14.14 6.19 13.5 32-20 64 21-41.5 11-50.5 9.5-58.5s2.5-9 10.5-5.5z" transform="translate(-7 -93.67)" fill="url(#av)"/><path d="M667.5 715.5c6.1 2.84 20.5 23-23 52 31.5-41 9.5-43 10.5-47.5s5-8 12.5-4.5z" transform="translate(-7 -93.67)" fill="url(#aw)"/><path d="M509.5 687.5s-5.5-2-10.5-14-15-34.5-26-33.5-26 17.5-15.5 25 19.5 5 27 15 9.5 20.5 9.5 24.5 5 6 7.5 4.5-4.5-7.5 8-21.5z" transform="translate(-7 -93.67)" fill="url(#ax)"/><path d="M486.31 670.2c3.72-3.92 6.19-12.25 2.52-20.37-2.26-5-11.06-6.34-13.64-12-3.51-7.76-33.63.5-39.67 7.57-7.37 8.62-8.81 19.58-5.92 25.63 5.2 10.87 46.92 9.47 56.71-.83z" transform="translate(-7 -93.67)" fill="url(#ay)"/><path d="M432.33 671.33c-.1-5.2 5.83-10.5 12.83-9.83 3.71.35 6.17-5.67 14.33-4.5 5.23.75 8-2.45 13.5-2.33 8.93.19 12.68 5.9 11.67 10.17-3.16 13.33-52.14 16.39-52.33 6.49z" transform="translate(-7 -93.67)" fill="url(#az)"/><path d="M449.17 670.65c.24-12.16-13-3-13.67 3-.89 7.71 4.8 32.34 16.95 49.77-7.96-37.25-3.58-37.86-3.28-52.77z" transform="translate(-7 -93.67)" fill="url(#aA)"/><path d="M452.46 723.41s-8.41-25.59-9.7-35.31c-1.75-13.24 1.44-23.25 2.47-23.5 1.38-.34 10.29 1.59 5 10.61-1.56 2.65-5.71 15.1 2.23 48.2z" transform="translate(-7 -93.67)" style="mix-blend-mode:multiply" fill="url(#aB)"/><path d="M465.11 665.27c-.59-7-18.35-8.36-17.64 4.12 1 17.06 3.73 35 25.38 58.58-14.85-32.2-6.35-46.23-7.74-62.7z" transform="translate(-7 -93.67)" fill="url(#aC)"/><path d="M472.85 728s-8.64-12.54-13.25-38.13c-2.87-15.91-1.52-29.23-.49-29.48 2.92-.71 10.5 5.27 6.68 14.7-1.23 2.99-6.59 25.5 7.06 52.91z" transform="translate(-7 -93.67)" style="mix-blend-mode:multiply" fill="url(#aD)"/><path d="M480.28 662.17c.49-7.89-16.18-7.36-16 1.2.46 17.1.82 29.31 21.27 55.12-13.55-25.69-6.01-44.43-5.27-56.32z" transform="translate(-7 -93.67)" fill="url(#aE)"/><path d="M485.56 718.2s-9.14-12.89-11.85-38.75c-1.59-15.13.08-23.32 1.1-23.08 3.63.86 6.8 1 5.11 10.75-.61 3.48-7.3 27.19 5.64 51.08z" transform="translate(-7 -93.67)" style="mix-blend-mode:multiply" fill="url(#aF)"/><path d="M624 573c.27-3-5.77-6.59-11.25-10.5-3.5-2.5-10.25-5.5-12.25-5.5s-8.33 11.33-42.83 8.33S521 559 518 559s-9.67 2.5-9.67 2.5a14.8 14.8 0 0 1 5.33 3.83 6.29 6.29 0 0 1 1.67 4.67c2.5 2.5 62.28 45.4 95.17 36 3.5-1 13-27.5 13.5-33z" transform="translate(-7 -93.67)" fill="url(#aG)"/><path d="M519.5 560s18.5 18.75 56 20.75 47.25-8 47.25-8-2.5-3.75-10-8.25a77.79 77.79 0 0 0-11.5-5.75S579.5 577.5 519.5 560z" transform="translate(-7 -93.67)" style="mix-blend-mode:screen" fill="url(#aH)"/><path d="M541.5 741.25c-3.25 1-6.75 1.75-6.75 1.75s31.7-15.52 68.75-37.75c20.83-12.5 46.5-33.87 53.5-50.37 21-10.54 30.33-42.21 30.33-42.21S696 653.33 636 692.5c-39.67 25.9-76.29 43.15-94.5 48.75z" transform="translate(-7 -93.67)" fill="url(#aI)"/><path d="M657 654.88s20.42-5.27 34.75-54.12c16.5-56.25 34-109.5 5.75-190.75 14.25 55.75 14.71 100.08-15.75 195C671 638.5 657 654.88 657 654.88z" transform="translate(-7 -93.67)" style="mix-blend-mode:multiply" opacity=".8" fill="url(#aJ)"/><path d="M512.17 314c-1.82 4.72 14.83-53.67 107.83-27.75 64.4 17.95 85.32 123.52 56.33 206.08-16.5 47-49 82.67-49 82.67s79-88.43 49.33-216c-23.85-102.48-140.33-87.67-164.49-45z" transform="translate(-7 -93.67)" style="mix-blend-mode:screen" fill="url(#aK)"/><path d="M488.33 322.67s10-14.67 25.67-7 6.67 21.67 6.67 21.67 7.13-17.84-10.42-22.33a20.52 20.52 0 0 0-21.92 7.66z" transform="translate(-7 -93.67)" style="mix-blend-mode:multiply" opacity=".3" fill="url(#k)"/><path d="M488.08 323.42s10-14.67 25.67-7 5.5 24.33 5.5 24.33 8.3-20.51-9.25-25a20.52 20.52 0 0 0-21.92 7.67z" transform="translate(-7 -93.67)" style="mix-blend-mode:screen" opacity=".6" fill="url(#aL)"/><path d="M475.33 361.25s3.54-16.22 18.92-17.5C515.34 342 516 360.92 516 360.92s3.32-17.54-19.33-18.33c-19-.67-21.34 18.66-21.34 18.66z" transform="translate(-7 -93.67)" style="mix-blend-mode:screen" opacity=".6" fill="url(#aM)"/><path d="M512.5 385.5c-2.17-1.5-9.13-1.75-13-29.83-3.83-27.83 2.83-42.5 12.5-53.17s27.75-18.46 32.56-19.56c-3.85 1.08-29.06 12.06-34.9 34.23-5.42 20.61.67 39.5 6.33 57s-3.49 11.33-3.49 11.33z" transform="translate(-7 -93.67)" style="mix-blend-mode:multiply" fill="url(#aN)"/><path d="M507.16 328.23c-.19 3.52.17 11.57-2 11-.87-.22-1.87 3.67-2.28 2.5-5.82-16.33-2.53-38.26.69-48 3.73-11.37 2.75-4.91 2.84 1 .22 14.08 2.87 20.75 2.66 21.42a62 62 0 0 0-1.91 12.08z" transform="translate(-7 -93.67)" fill="url(#aO)"/><path d="M502.91 339.42a77.18 77.18 0 0 1-1.44-32.67c2.46-13.68 4.31-18.25 4.31-18.25s-3 23.75.22 42c-1.35 9.5-3.09 8.92-3.09 8.92z" transform="translate(-7 -93.67)" style="mix-blend-mode:screen" fill="url(#aP)"/><path d="M513.56 307.5c-.36.64-3.06 5.66-3.19 5.19-1.94-6.87 2.42-23 7-31.17s2.64-3.23 2.84 2.84c.31 9.39 6.79 8.8 4.19 10.83-6.96 5.39-9.34 9.62-10.84 12.31z" transform="translate(-7 -93.67)" fill="url(#aQ)"/><path d="M526.06 293.4c0-3.2 1.75-11.25 5.94-18.4 2.83-4.83 2.79-2.49 3.33 2.17.67 5.67 4.16 7.7 3.9 7.83a62.91 62.91 0 0 0-13.17 8.4z" transform="translate(-7 -93.67)" fill="url(#aR)"/><path d="M610.5 606c5.27-1.21 13.27-30.26 13.26-32.26s-8.26 10.76-46 8.51-51.83-15.92-56.58-18.92c-2.25 5.5-4.5 5.58-5 6.33S575 614.17 610.5 606z" transform="translate(-7 -93.67)" style="mix-blend-mode:multiply" fill="url(#aS)"/><path d="M475.33 360s3.54-16.22 18.92-17.5c21.09-1.75 21.75 17.17 21.75 17.17s3.32-17.54-19.33-18.33c-19-.67-21.34 18.66-21.34 18.66z" transform="translate(-7 -93.67)" style="mix-blend-mode:multiply" opacity=".3" fill="url(#aT)"/><path d="M510 372.67s9.51-20.07-5.28-49.39c-1.32-1.06-1.53 2.12-1.58 4.23-.36 14.68-3.92 18.25-3.92 18.25s.66 25.24 10.78 26.91z" transform="translate(-7 -93.67)" fill="url(#aU)"/><path d="M478.88 413.63s-9.62-30.87-3.12-61.62c3.27-15.47 15.88 3.63 29.5 18.75S524 414.13 502 415s-23.12-1.37-23.12-1.37z" transform="translate(-7 -93.67)" style="mix-blend-mode:multiply" opacity=".8" fill="url(#aV)"/><path d="M512 408s4.5-8.5-5.5-25c-12.44-20.53-21-28-21-28s39.5 5 71 40.5 19 46.5 19 46.5 0 10 6 17.5 15 12 15 15-17.5 19-24 18.5-17.56-9.27-27.5-25c-6-9.5-10-10.5-10-10.5s-9 1.5-5.5 20 12 27.5 10 31.5-12 6.5-19.5 5-16.5-3.5-12-13.5 3.5-31.5-5-36c-3.67-1.94-21.69-12.43-24.83-16.83-4.17-5.83-3.5-32.33 1.33-35.33C494.57 403 512 408 512 408z" transform="translate(-7 -93.67)" fill="url(#aW)"/><path d="M512.5 407.83c6 2.17 18 7 14.5 20.83-3.91 15.46-3.67 17.33-2.83 21.17a20.59 20.59 0 0 0 1.5 5s-1.5-1-7.5-.17c2.5-19.66 18.16-37.99-5.67-46.83z" transform="translate(-7 -93.67)" style="mix-blend-mode:multiply" opacity=".6" fill="url(#l)"/><path d="M487 355.33s40.33 8.67 66.5 38.17c26.43 29.8 25.37 40 21.33 48.67-3.71 8-18.83-.17-21.5-3.5-6.08-7.61-20.33-55.34-66.33-83.34z" transform="translate(-7 -93.67)" style="mix-blend-mode:screen" fill="url(#aX)"/><path d="M574.63 446.88S577 459 584 464.67s12.33 9.33 10.67 11-13.71 3.16-16.33 2c-3-1.33.63-5.36-8.33-10.67a51.07 51.07 0 0 1-22.62-27.62s18.36 14.7 27.24 7.5z" transform="translate(-7 -93.67)" style="mix-blend-mode:screen" fill="url(#aY)"/><path d="M572.5 493c4.88-.37 9.63-4.5 14.63-8.5a61 61 0 0 0 8.88-9 19 19 0 0 1-18.17 3.17c-2.34 3.66-8.02 14.54-5.34 14.33z" transform="translate(-7 -93.67)" opacity=".6" fill="url(#aZ)"/><path d="M512 408s14 5.33 10.83 17.33-7.83 22.5-9.33 39.17 1.24 39.21 5.5 41.75c11.17 6.67 16.83 2.67 18.25.25s-3.69-7.61-7.92-23.33c-5.83-21.67 3.67-26.34 3.67-26.34a45.08 45.08 0 0 0-7.33-2 30.7 30.7 0 0 0-7.5-.17s.47-4.74 4-16S530.67 413.5 512 408z" transform="translate(-7 -93.67)" style="mix-blend-mode:screen" fill="url(#ba)"/><path d="M531 456.17s-9 4.5-4.67 23.5 10.41 25.34 8.92 26.83c-1.75 1.75-12.16 1.87-15.58-2.83-2.67-3.67-4.42-9.08-4-26.67.33-14 2.5-22.33 2.5-22.33s7-1 12.83 1.5z" transform="translate(-7 -93.67)" fill="url(#bb)"/><path d="M524.5 394.83s11.78 15.46 19 28.17c4.17 7.33 5 13.12 10 16.75 15 10.92 21.17 2.8 21.67 3.92.85 1.93-8.42 10.33-27-4.43-1.84-1.46-6-2.6-9.43-4.24-8.5-4-8.58-8.17-7.25-20.5s-12.16-25.17-6.99-19.67z" transform="translate(-7 -93.67)" fill="url(#bc)"/><path d="M531.78 321.76c-4.59-.55-7.21 8.57-3.38 14.16 5 7.24 11.43 3.89 12.29 2.17a74.4 74.4 0 0 0-8.91-16.33z" style="mix-blend-mode:multiply" opacity=".65"/><path d="M539.25 416.83c-3.23.38-5.63 8.29-2.25 12.92 4.27 5.85 9.13 3 9.88 1.5a63.84 63.84 0 0 0-7.63-14.42z" transform="translate(-7 -93.67)" fill="url(#bd)"/><path d="M558.44 460.33a27.34 27.34 0 0 0 9.61 7.82c6.28 3.08 6.28 5.38 6.28 6.79s-3.59 4.87-7.56-2.69-6.02-5.77-8.33-11.92z" transform="translate(-7 -93.67)" style="mix-blend-mode:multiply" fill="url(#be)"/><path d="M558.44 460.33a27.34 27.34 0 0 0 9.61 7.82c6.28 3.08 6.28 5.38 6.28 6.79 0 .76-1.27 2.12-2.12 1.86s2.49-.45.71-3.52c-2.3-3.98-8.84-3.85-14.48-12.95z" transform="translate(-7 -93.67)" style="mix-blend-mode:multiply" fill="url(#bf)"/><path d="M524.38 395.25s5 6.63 6.5 13.25-.87 11.75.25 17.63 4.53 8.15 10 9.88c6.75 2.13 8.38 4.38 8.38 4.38s-4-3-11.12-2.87c-3.6.06-9-2.75-9.62-10.25-.59-6.91 5.98-15.27-4.39-32.02z" transform="translate(-7 -93.67)" style="mix-blend-mode:screen" fill="url(#bg)"/><path d="M577.38 476.63a23.81 23.81 0 0 0 11.5.38c6.25-1.37 6.75-2.37 6.75-2.37s-.5 2.88-7.62 3.88-10.63-1.89-10.63-1.89z" transform="translate(-7 -93.67)" style="mix-blend-mode:screen" fill="url(#bh)"/><path d="M517.75 506.5a17.93 17.93 0 0 0 10.5 4.25c6.75.5 10.25-1.87 10.25-1.87s.38 4.5-12.5 5.25c-11.76.68-24.37-8.5-8.25-7.63z" transform="translate(-7 -93.67)" style="mix-blend-mode:multiply" opacity=".6" fill="url(#bi)"/><ellipse cx="347.62" cy="311.89" rx="12.57" ry="10.39" transform="rotate(-16.82 27.265 288.688)" style="mix-blend-mode:screen" fill="url(#m)"/><ellipse cx="803" cy="232.47" rx="8.94" ry="7.38" transform="rotate(-16.82 482.592 209.306)" style="mix-blend-mode:screen" fill="url(#bj)"/><path d="M356 337.5s3.5 42.5 19 76.5 27 55 27 55-46-44-46-131.5z" transform="translate(-7 -93.67)" style="mix-blend-mode:screen" fill="url(#bk)"/><path d="M502.5 560.5s-23.5-15-39.5-28-29-25.5-29-25.5-4.5 25 68.5 53.5z" transform="translate(-7 -93.67)" style="mix-blend-mode:screen" fill="url(#bl)"/><path d="M434.5 498.5c-.85 2.55-4.5 4.5-9.5 2.5s-27.5-28.67-21.5-27.83 32 22.33 31 25.33z" transform="translate(-7 -93.67)" style="mix-blend-mode:screen" fill="url(#bm)"/><path d="M327.67 305.67s-69.33-53-139.33-80C192.67 234 191.5 240 191.5 240s37.67-.33 136.17 65.67z" transform="translate(-7 -93.67)" style="mix-blend-mode:screen" fill="url(#bn)"/><path d="M327 320.5s-52.55-8.25-96 69c-58.5 104-69 218.5-69 218.5s32.62-181 96-249c34-36.5 69-38.5 69-38.5z" transform="translate(-7 -93.67)" style="mix-blend-mode:screen" fill="url(#bo)"/><path d="M394.5 515s-7.83 31-9.5 60.33c-1.42 25-2 49.67-2 49.67s12-92.33 11.5-110z" transform="translate(-7 -93.67)" style="mix-blend-mode:screen" fill="url(#bp)"/><path d="M426.5 579.67s-10-41.5-5-56.5 0 35 5 56.5z" transform="translate(-7 -93.67)" style="mix-blend-mode:screen" fill="url(#bq)"/><path d="M814 224.5s43.33-53.5 89-82.75a49 49 0 0 0-3 13.92s-40.5 14.83-86 68.83z" transform="translate(-7 -93.67)" style="mix-blend-mode:screen" fill="url(#br)"/><path d="M818.5 236s25.95-4.92 56.5 32.5c44.5 54.5 72 165.17 72 165.17S898 246.5 818.5 236z" transform="translate(-7 -93.67)" style="mix-blend-mode:screen" fill="url(#bs)"/><path d="M786.5 446s20.5-73 18-126.5-2.5-68-2.5-68S825 339 786.5 446z" transform="translate(-7 -93.67)" style="mix-blend-mode:screen" fill="url(#bt)"/><path d="M770.5 477.11C761.42 475.68 781 445 784 447s-4 31.61-13.5 30.11z" transform="translate(-7 -93.67)" style="mix-blend-mode:screen" fill="url(#bu)"/><path d="M753.5 515.5s3.5-7 7-15 8.5-20 8.5-20 2 22-15.5 35z" transform="translate(-7 -93.67)" style="mix-blend-mode:screen" fill="url(#bv)"/><path d="M777.5 499.5s2 10 1.5 33.5-2 37.5-2 37.5-2-57.5.5-71z" transform="translate(-7 -93.67)" style="mix-blend-mode:screen" fill="url(#bw)"/><path d="M796.67 494s4.33 24 8.83 56.5 6.5 51 6.5 51-17.33-88-15.33-107.5z" transform="translate(-7 -93.67)" style="mix-blend-mode:screen" fill="url(#bx)"/><path d="M515.8 362.08c0-15.83 2.45-41.58 32.45-50.33 44.87-13.09 82.5 6.75 100.25 30.5 19.59 26.22 18.61 36.11 13.5 25.5-5.5-11.42-31.56-63.59-99-55.25-44.5 5.5-46.25 37-47.2 49.58z" transform="translate(-7 -93.67)" style="mix-blend-mode:multiply" opacity=".8" fill="url(#by)"/><path d="M670.25 643.5s23.5-36.75 35.5-122.25 10.5-109.75 10.5-109.75 8.5 136.25-46 232z" transform="translate(-7 -93.67)" style="mix-blend-mode:multiply" opacity=".8" fill="url(#bz)"/><path d="M480 403.67s-8.92-21.77-3.33-51.67c6.67-35.67 39-55 39-55S463 331.67 480 403.67z" transform="translate(-7 -93.67)" style="mix-blend-mode:multiply" opacity=".8" fill="url(#bA)"/><path d="M544.67 287.75s48.77-18.88 94.67 6.67c70.67 39.33 75.5 110.33 75.5 110.33s-26.17-141.33-170.17-117z" transform="translate(-7 -93.67)" style="mix-blend-mode:multiply" opacity=".5" fill="url(#bB)"/><path d="M527 595.5s18.92 4.56 39.75 31.25c17.75 22.75 17.75 26.75 25.5 34.5-1.25.75-5.25-1.5-16-18.75s-30.75-40-49.25-47z" transform="translate(-7 -93.67)" style="mix-blend-mode:screen" opacity=".8" fill="url(#bC)"/><path d="M523.25 622.11s7.82 3.27 23.5 26.64C560 668.5 564.06 682.56 570.5 689c-1 .62-7-8.92-15.5-23.5s-18.25-33-31.75-43.39z" transform="translate(-7 -93.67)" style="mix-blend-mode:screen" opacity=".8" fill="url(#bD)"/><path d="M514 643s12 10.75 19.25 34.75 11.5 32.75 11.5 32.75-3.75-13.75-9.5-32.75-15-31.25-21.25-34.75z" transform="translate(-7 -93.67)" style="mix-blend-mode:screen" opacity=".8" fill="url(#bE)"/><path d="M605.75 607.5s2.25 14.17 2.25 20.17-6.56 29-28.33 56.67C556.33 714 515.5 731.5 515.5 731.5s-.5 3.17 12.5-2.5 49.67-27.67 67-59 20.17-46.33 10.75-62.5z" transform="translate(-7 -93.67)" style="mix-blend-mode:screen" opacity=".8" fill="url(#bF)"/><path d="M403 480.33s-.33 1.33 10 12 13.33 9 13.33 12.33-9 4.14-17.58 13.08c-8.33 8.67-7.42 13.08-8.75 11.75s-.33-34.82 3-49.16z" transform="translate(-7 -93.67)" style="mix-blend-mode:multiply" fill="url(#bG)"/><path d="M787.33 450c.25-2.84 6.67 10.33 6.33 23.67s-2.67 28-3.67 27.67 0-10-6.67-17.33c-3.33-3.67-5.33-6-3.67-7.67 2.68-2.67 6.35-11.01 7.68-26.34z" transform="translate(-7 -93.67)" style="mix-blend-mode:multiply" fill="url(#bH)"/><path d="M515.25 570.75s-36.92-15.42-59.25-33.08S434 507 434 507s-16.75 2.81 9.33 25c44.67 38 89.42 50 89.42 50s-12-6.5-17.5-11.25z" transform="translate(-7 -93.67)" style="mix-blend-mode:multiply" fill="url(#bI)"/><path d="M399.25 474s-31-45.5-38.5-83.5-3.75-52.33-5.75-54.83-2.75-1.83-4 .67.67 79.66 48.25 137.66z" transform="translate(-7 -93.67)" style="mix-blend-mode:multiply" fill="url(#q)"/><path d="M183.33 219.33s6.33 4.67 7.33 14.67-.33 11-3 11 4.67-7-4.33-25.67z" transform="translate(-7 -93.67)" style="mix-blend-mode:multiply" fill="url(#bJ)"/><path d="M330.33 309s-31.41-27.37-83-50c-38-16.67-61-20.09-55.67-17 12.01 7 84.67 25.67 138.67 67z" transform="translate(-7 -93.67)" style="mix-blend-mode:multiply" fill="url(#bK)"/><path d="M11.33 315.17s56.83-79.5 148.33-84.67c48.59-2.74 16.33 12.83.33 12.83s-92.32 5.34-148.66 71.84z" transform="translate(-7 -93.67)" style="mix-blend-mode:multiply" fill="url(#bL)"/><path d="M164.67 608.67s17.08-157.27 89.33-245c37.33-45.33 74.33-43.33 73.33-40.67s-66 7.33-110.67 110.33-51.99 175.34-51.99 175.34z" transform="translate(-7 -93.67)" style="mix-blend-mode:multiply" fill="url(#bM)"/><path d="M181.67 140.67S285 218.67 324 265c32.65 38.79 15.5 36 13.33 37.67s-20.33-49.34-155.66-162z" transform="translate(-7 -93.67)" style="mix-blend-mode:multiply" fill="url(#bN)"/><path d="M382 639.67s9.33-84.67 11.33-99 1-26.67 2-30.67 2.67-10 2.67-10-1 17.67-.33 25.67.33 10.33 2.66 6.33a95.36 95.36 0 0 1 7-9.67s-8.67 12.33-13.67 35.67S382 639.67 382 639.67z" transform="translate(-7 -93.67)" style="mix-blend-mode:multiply" fill="url(#bO)"/><path d="M429 601s-10-46-10.67-60.67-1-23.66 0-25 4.67 1 6 1.33-2.67 2.67-3.67 7-.99 34.67 8.34 77.34z" transform="translate(-7 -93.67)" style="mix-blend-mode:multiply" fill="url(#bP)"/><path d="M333 318s3.42 11.68 16.5 10.33 14.17-13 14.17-13 1 17.5-15 17.5C333.33 332.83 333 318 333 318z" transform="translate(-7 -93.67)" style="mix-blend-mode:multiply" fill="url(#bQ)"/><path d="M884.78 93.67S828 156.58 811 193.25c-7.1 15.32-11.12 26.45-10.62 30a10.31 10.31 0 0 1 7.81.69c3.25-10.75 11.81-45.61 76.59-130.27z" transform="translate(-7 -93.67)" style="mix-blend-mode:multiply" fill="url(#bR)"/><path d="M907 135.67s-5.33 5-6.33 14.67S902 163 903 162.67s-1-13.67 4-27z" transform="translate(-7 -93.67)" style="mix-blend-mode:multiply" fill="url(#bS)"/><path d="M815.33 227.67s21-30.33 48.67-49.67 34.33-16 34.33-16-44 16-83 65.67z" transform="translate(-7 -93.67)" style="mix-blend-mode:multiply" fill="url(#bT)"/><path d="M1011.25 221.75s-38.75-75-96-75c-13.67 0-11.25 12.25 3.08 12.58s50.92 2.42 92.92 62.42z" transform="translate(-7 -93.67)" style="mix-blend-mode:multiply" fill="url(#bU)"/><path d="M818 238s30.87-2.13 64.67 47.33c54.67 80 71.33 185.33 71.33 185.33S928.67 353 882.67 289C842.94 233.73 818 238 818 238z" transform="translate(-7 -93.67)" style="mix-blend-mode:multiply" fill="url(#bV)"/><path d="M794.33 481s1.67 13.67 1.67 22.67 14 86.67 16.33 104.67C801 547 794.67 515 791.67 511s-5.33-11.67-5.33-11.67 3.33 5.33 4.67 3.67 3.32-22 3.32-22z" transform="translate(-7 -93.67)" style="mix-blend-mode:multiply" fill="url(#bW)"/><path d="M776.67 488.33c1 2-.33 32.67 0 42.67s.33 29.33.33 29.33-3-46-4.33-52.67-1.67-8.33-1-10.33 5-9 5-9z" transform="translate(-7 -93.67)" style="mix-blend-mode:multiply" fill="url(#bX)"/><path d="M791 448.33c0-2.33 14.67-43.67 16.67-86.67s-.33-103.17-4-111.33c2.33-3.17 2.67 2.33 4.67 19.67s9.33 125.67-14 181.33c-2.34 4.34-3.34-3-3.34-3z" transform="translate(-7 -93.67)" style="mix-blend-mode:multiply" fill="url(#bY)"/><path d="M753.5 515.5a28.64 28.64 0 0 0 12.17-13.83c4.33-10 3.33-21.17 3.33-21.17s2-1.5 4.33 1.83-4 26-19.83 33.17z" transform="translate(-7 -93.67)" style="mix-blend-mode:multiply" fill="url(#bZ)"/><path d="M794 237.33s3.33 8 11 6.33 8.33-8.33 8.33-8.33 1.67 9.67-8.67 11-10.66-9-10.66-9z" transform="translate(-7 -93.67)" style="mix-blend-mode:multiply" fill="url(#ca)"/><path d="M690.17 616.67a271.08 271.08 0 0 1 20.67-25.5 229.29 229.29 0 0 1 34.83-30.83s-31.5 16.33-55.5 56.33z" transform="translate(-7 -93.67)" style="mix-blend-mode:screen" opacity=".4" fill="url(#cb)"/><path d="M687.67 632.5s2-1.27 13-16.5A152.61 152.61 0 0 1 733 583.67s-15.17 7.33-31.83 30c-9.86 13.4-13.5 18.83-13.5 18.83z" transform="translate(-7 -93.67)" style="mix-blend-mode:screen" opacity=".4" fill="url(#cc)"/><path d="M681 648.33s2.66-2.88 11.83-15.67c16.5-23 22.83-25.58 22.83-25.58s-4.25-1.19-21.5 22.08C683.67 643.33 681 648.33 681 648.33z" transform="translate(-7 -93.67)" style="mix-blend-mode:screen" opacity=".4" fill="url(#cd)"/><path d="M430.5 654.25a27.21 27.21 0 0 1 5.67-7.25c4-3.75 25.19-10.76 35.67-8.67A12.05 12.05 0 0 1 476 640s-34.75-1-45.5 14.25z" transform="translate(-7 -93.67)" style="mix-blend-mode:multiply" fill="url(#ce)"/><path d="M429.17 665s.83-11 4.58-14 18.54-11.52 40.25-9.67c4.35.37 6.83 4 11.5 6 5.25 2.25 4.17 10.83 4.17 10.83s-5-13-24.17-10.17c-13.38 2.01-30.58 5.51-36.33 17.01z" transform="translate(-7 -93.67)" style="mix-blend-mode:screen" opacity=".8" fill="url(#cf)"/><path d="M433.83 648.17s4.5-6.83 19.5-10.5 20.5-.33 20.5-.33-24.5-2.01-40 10.83z" transform="translate(-7 -93.67)" style="mix-blend-mode:screen" opacity=".8" fill="url(#cg)"/><path d="M442.5 668.5c-3.33 13.17-.81 30.6 7.67 49.5a111.76 111.76 0 0 1-11.83-30.83c-2.83-12.83-1.33-16.83 1.67-18.83.81-.55 3.23-2.78 2.49.16z" transform="translate(-7 -93.67)" style="mix-blend-mode:screen" opacity=".8" fill="url(#ch)"/><path d="M457 663.5c-3.33 13.17 1.67 37.83 10.17 56.5 0 0-12.83-14.33-17.33-38.5-2.41-12.92-1.33-16.83 1.67-18.83.81-.55 6.23-2.11 5.49.83z" transform="translate(-7 -93.67)" style="mix-blend-mode:screen" opacity=".8" fill="url(#ci)"/><path d="M473 659.5c-3.33 13.17-1 31.5 7.5 50.17 0 0-10.33-11.5-14.67-32.17-2.7-12.86-1.33-16.83 1.67-18.83.82-.55 6.24-2.11 5.5.83z" transform="translate(-7 -93.67)" style="mix-blend-mode:screen" opacity=".8" fill="url(#cj)"/><path d="M479.5 674.83A16.35 16.35 0 0 0 483 673a35.68 35.68 0 0 0 5.17-5.17s3.83 7 6.5 19.5 9 20.17 6.83 21.67-7.33-.83-7.33-3.17 0-8-4.5-17.67-10.17-13.33-10.17-13.33z" transform="translate(-7 -93.67)" style="mix-blend-mode:multiply" fill="url(#ck)"/><path d="M663.5 714.75c1.5 0 10.47 1 11.25 15 1 18-30.25 37.75-30.25 37.75s22.75-17.75 23-38.25c.18-14.5-4-14.5-4-14.5z" transform="translate(-7 -93.67)" style="mix-blend-mode:multiply" fill="url(#cl)"/><path d="M676.75 715.25s9.15 2 11.25 11.5c5.5 25-27.5 53.75-27.5 53.75s21-24 21.75-47.25c.5-15.49-5.5-18-5.5-18z" transform="translate(-7 -93.67)" style="mix-blend-mode:multiply" fill="url(#cm)"/><path d="M679.5 787s11.75-23.75 12-38.5-3.5-21.75-3.5-21.75 4.25 25.25-8.5 60.25z" transform="translate(-7 -93.67)" style="mix-blend-mode:multiply" fill="url(#cn)"/><path d="M660 715c4.25-.75 16 15.25-6.25 42.75C673 724.75 660 715 660 715z" transform="translate(-7 -93.67)" style="mix-blend-mode:screen" opacity=".8" fill="url(#co)"/><path d="M675 715.5c4 .25 16.5 19-8.5 55.75C689 728 675 715.5 675 715.5z" transform="translate(-7 -93.67)" style="mix-blend-mode:screen" opacity=".8" fill="url(#cp)"/><path d="M687.25 745.75s.5 4-1 14.5A91.66 91.66 0 0 1 682 778s3.5-22.75 5.25-32.25z" transform="translate(-7 -93.67)" style="mix-blend-mode:screen" opacity=".8" fill="url(#cq)"/><path d="M615.25 741s1.61-16.69 13.25-26c11.25-9 17.5-9.75 17.5-9.75S621 715 615.25 741z" transform="translate(-7 -93.67)" style="mix-blend-mode:screen" opacity=".8" fill="url(#cr)"/><path d="M645 715.25s-4.25-11.25 11.25-13.75 33.75 6 35 17.5c-3.75-9.25-28.28-17-37.25-7.5-7.75 8.25-8.75 5.75-9 3.75z" transform="translate(-7 -93.67)" style="mix-blend-mode:screen" opacity=".8" fill="url(#cs)"/><path d="M638.25 699.25s11.25-7 18.75-3.5c4.26 2 5.75 3.75 5.75 3.75s-8-.25-14.5 3.25c-2.46 1.33.5-4.25-10-3.5z" transform="translate(-7 -93.67)" style="mix-blend-mode:screen" opacity=".8" fill="url(#ct)"/><path d="M649.5 724.67a24.62 24.62 0 0 1-3.33-4c-2-2.83-13.33-5.83-25.83 10.17 9.33-20.17 25-23.83 23.33-20.33s.5 10 4.17 7.5 5.67-5.83 9.33-6.67-9 3.83-7.67 13.33z" transform="translate(-7 -93.67)" style="mix-blend-mode:multiply" fill="url(#cu)"/><path d="M504.5 359.25s1.75-3.25 1.5-17.5-1.5-17-1.5-17 10 13.25 7 37.5a59.33 59.33 0 0 0-7-3z" transform="translate(-7 -93.67)" style="mix-blend-mode:screen" fill="url(#cv)"/><path d="M510.5 311.75a72.59 72.59 0 0 1 3-19.75c2.75-9.25 6-13.75 6-13.75s-6 15.5-6.5 24.75c-.25 2.75-2.5 8.75-2.5 8.75z" transform="translate(-7 -93.67)" style="mix-blend-mode:screen" fill="url(#cw)"/><path d="M534.38 273.63a10.84 10.84 0 0 0 1 6 31.7 31.7 0 0 0 2.83 5.17A22.24 22.24 0 0 0 534 287a51.11 51.11 0 0 0-4.75 3.38s1.21-9.84 5.13-16.75z" transform="translate(-7 -93.67)" style="mix-blend-mode:screen" opacity=".7" fill="url(#n)"/><path d="M544.25 282.63s.54-3.13 4.88-7.62c3.38-3.5 4.88-5.37 4.88-5.37s-1 4.63-.62 6.25a36.62 36.62 0 0 0 1.38 4.13s-7.77 1.86-10.52 2.61z" transform="translate(-7 -93.67)" style="mix-blend-mode:screen" opacity=".7" fill="url(#cx)"/><path d="M560.38 279.13a20.22 20.22 0 0 1 4.13-5.25c3-2.87 4-3 4-3s-.12 1.63-.12 3.5a36.23 36.23 0 0 0 .25 3.88s-5.26.37-8.26.87z" transform="translate(-7 -93.67)" style="mix-blend-mode:screen" opacity=".7" fill="url(#cy)"/><path d="M576.5 277.5s4.13-4.25 4.63-3.87-.5 3.88-.5 3.88h-4.13z" transform="translate(-7 -93.67)" style="mix-blend-mode:screen" opacity=".7" fill="url(#cz)"/><path d="M526.75 291.75a72.15 72.15 0 0 1 3.13-11.12c2.13-5.62 3.75-7 3.75-7s-4.75 11-6.88 18.12z" transform="translate(-7 -93.67)" style="mix-blend-mode:screen" fill="url(#cA)"/><path d="M618.88 559.63s1.5-1 6.13-1.25 6.25.38 6.25.38-8.76-.26-12.38.87z" transform="translate(-7 -93.67)" style="mix-blend-mode:screen" fill="url(#cB)"/><path d="M630.75 545.38a25.47 25.47 0 0 1 6.38-1.75 20.43 20.43 0 0 1 5.75-.12s-8.63.49-12.13 1.87z" transform="translate(-7 -93.67)" style="mix-blend-mode:screen" fill="url(#cC)"/><path d="M642 529.88s1.25-1 4.88-1.75a29.25 29.25 0 0 1 4.88-.75 79.12 79.12 0 0 0-9.76 2.5z" transform="translate(-7 -93.67)" style="mix-blend-mode:screen" fill="url(#cD)"/><path d="M651.88 514.88a7.7 7.7 0 0 1 3.39-1.39 18.68 18.68 0 0 1 3.48-.61s-4.37 1.12-6.87 2z" transform="translate(-7 -93.67)" style="mix-blend-mode:screen" fill="url(#cE)"/><path d="M670.62 470.82s.83-1.88 1.65-2.19-1.65 2.19-1.65 2.19z" transform="translate(-7 -93.67)" style="mix-blend-mode:screen" fill="url(#cF)"/><path d="M499.63 322.88c-3.12 9.25-3.44 24.06.38 35.5a86.28 86.28 0 0 1-1.5-17.75c.38-8.37 1.13-14 1.13-14a24.41 24.41 0 0 0-.01-3.75z" transform="translate(-7 -93.67)" style="mix-blend-mode:screen" fill="url(#cG)"/><path d="M501.38 213.08s1.31-1.69 1.69-2.06c0-.44.19-1.69.19-1.69a23.08 23.08 0 0 0-2 2.25 10.46 10.46 0 0 0 .12 1.5z" style="mix-blend-mode:screen" fill="#fff"/><path d="M625.75 568.25s-2.25 12.5 14.75 23 27.69 28.42 35.5 28.25c11.25-.25 16.75-22.5 16.75-22.5s-8.5 23-17.25 21.25-18.92-18.83-31.75-26c-18.69-10.44-18-24-18-24z" transform="translate(-7 -93.67)" style="mix-blend-mode:multiply" opacity=".3" fill="url(#cH)"/><path d="M624.75 569.25s-2.25 12.5 14.75 23 27.69 28.42 35.5 28.25c11.25-.25 16.75-19.75 16.75-19.75S685 621 674.5 619.25c-8.8-1.47-18.92-18.83-31.75-26-18.69-10.44-18-24-18-24z" transform="translate(-7 -93.67)" style="mix-blend-mode:screen" opacity=".6" fill="url(#cI)"/><path d="M644.25 541s-3.75 10 13.75 22.5 25.62 16.21 32.75 14.75c9.75-2 12.75-19 12.75-19s-5 26.75-25.5 15.5-34-20.25-33.75-33.75z" transform="translate(-7 -93.67)" style="mix-blend-mode:multiply" opacity=".3" fill="url(#cJ)"/><path d="M643.58 541.83s-3.75 10 13.75 22.5 25.62 16.21 32.75 14.75c9.75-2 12.75-16.25 12.75-16.25s-5 24-25.5 12.75-34-20.25-33.75-33.75z" transform="translate(-7 -93.67)" style="mix-blend-mode:screen" opacity=".6" fill="url(#cK)"/><path d="M658.75 512.88s2.5 17.21 26.5 23.46 24.5-6.58 24.5-6.58-5.64 13.59-28.75 4.24c-21-8.5-22.25-21.12-22.25-21.12z" transform="translate(-7 -93.67)" style="mix-blend-mode:multiply" opacity=".3" fill="url(#cL)"/><path d="M658.25 513.88s2.54 17 26.5 23.46c22.42 6 24.75-5.67 24.75-5.67s-5.89 12.69-29 3.33c-21-8.5-22.25-21.12-22.25-21.12z" transform="translate(-7 -93.67)" style="mix-blend-mode:screen" opacity=".6" fill="url(#cM)"/><path d="M670.67 480.33s3.08 10.34 19.33 14.33c20.33 5 25.67-4 25.67-4s-8.92 7.08-23.17 3.83c-18.84-4.29-21.83-14.16-21.83-14.16z" transform="translate(-7 -93.67)" style="mix-blend-mode:multiply" opacity=".3" fill="url(#cN)"/><path d="M670.67 481.58s3.08 10.34 19.33 14.33c20.33 5 25.67-4 25.67-4s-8.92 7.08-23.17 3.83c-18.84-4.29-21.83-14.16-21.83-14.16z" transform="translate(-7 -93.67)" style="mix-blend-mode:screen" opacity=".6" fill="url(#cO)"/><path d="M675.33 447.67s6.33 9 23 10.33 20.33-8.33 20.33-8.33-7.66 10.08-22.66 7.08c-17.26-3.45-20.67-9.08-20.67-9.08z" transform="translate(-7 -93.67)" style="mix-blend-mode:multiply" opacity=".3" fill="url(#cP)"/><path d="M675.33 448.67s6.33 9 23 10.33 20.33-8.33 20.33-8.33-7.66 10.08-22.66 7.08c-17.26-3.45-20.67-9.08-20.67-9.08z" transform="translate(-7 -93.67)" style="mix-blend-mode:screen" opacity=".6" fill="url(#cQ)"/><path d="M674 413s9.33 4.65 24.33 2.67c17.67-2.33 18.33-11.33 18.33-11.33s-3.92 8.92-18.17 10.42C683.16 416.36 674 413 674 413z" transform="translate(-7 -93.67)" style="mix-blend-mode:multiply" opacity=".3" fill="url(#cR)"/><path d="M674.25 414.25s9.33 4.65 24.33 2.67c17.67-2.33 17.67-10.42 17.67-10.42s-3.25 8-17.5 9.5c-15.34 1.61-24.5-1.75-24.5-1.75z" transform="translate(-7 -93.67)" style="mix-blend-mode:screen" opacity=".6" fill="url(#cS)"/><path d="M665.33 377.33s16.67-2.67 26.33-7 11-10 11-10-6.66 10.92-37.33 17z" transform="translate(-7 -93.67)" style="mix-blend-mode:multiply" opacity=".3" fill="url(#cT)"/><path d="M665.83 378.08s16.67-2.67 26.33-7 11-10 11-10-6.66 10.92-37.33 17z" transform="translate(-7 -93.67)" style="mix-blend-mode:screen" opacity=".6" fill="url(#cU)"/><path d="M476.67 400s1.89-12.88 9.83-20.5c8.33-8 13.5-6.83 13.5-6.83l-1.67-1.33s-18.66 5.33-21.66 28.66z" transform="translate(-7 -93.67)" style="mix-blend-mode:multiply" opacity=".3" fill="url(#cV)"/><path d="M476.67 401s1.89-12.88 9.83-20.5c8.33-8 13.5-6.83 13.5-6.83l-1.67-1.33s-18.66 5.33-21.66 28.66z" transform="translate(-7 -93.67)" style="mix-blend-mode:screen" opacity=".6" fill="url(#cW)"/><path d="M532.67 288.67s12.86 2.94 14.33 11.58c2.33 13.67-2 17.08-2 17.08s5.33-3.33 3.33-15.67-15.66-12.99-15.66-12.99z" transform="translate(-7 -93.67)" style="mix-blend-mode:multiply" opacity=".3" fill="url(#cX)"/><path d="M531.42 289.67s12.86 2.94 14.33 11.58c2.33 13.67-2 17.08-2 17.08s5.33-3.33 3.33-15.67-15.66-12.99-15.66-12.99z" transform="translate(-7 -93.67)" style="mix-blend-mode:screen" opacity=".6" fill="url(#cY)"/><path d="M577.67 279a15.28 15.28 0 0 1 8.08 15c-.75 12.25-6.75 17.33-6.75 17.33s8-5.67 7.67-17.67-9-14.66-9-14.66z" transform="translate(-7 -93.67)" style="mix-blend-mode:multiply" opacity=".3" fill="url(#cZ)"/><path d="M578.92 279a15.28 15.28 0 0 1 8.08 15c-.75 12.25-6.75 17.33-6.75 17.33s8-5.67 7.67-17.67-9-14.66-9-14.66z" transform="translate(-7 -93.67)" style="mix-blend-mode:screen" opacity=".6" fill="url(#da)"/><path d="M613.67 319s7.75-2.17 13.08-12.5 1.25-18.83 1.25-18.83 5.15 10.22-.67 20C620 320 613.67 319 613.67 319z" transform="translate(-7 -93.67)" style="mix-blend-mode:multiply" opacity=".3" fill="url(#db)"/><path d="M614.67 319.5s7.75-2.17 13.08-12.5 1.25-18.83 1.25-18.83 5.15 10.22-.67 20c-7.33 12.33-13.66 11.33-13.66 11.33z" transform="translate(-7 -93.67)" style="mix-blend-mode:screen" opacity=".6" fill="url(#dc)"/><path d="M645.33 343s12.33-3.14 20.42-10c8.25-7 6.58-15 6.58-15a18 18 0 0 1-8.33 18c-12.67 8-18.67 7-18.67 7z" transform="translate(-7 -93.67)" style="mix-blend-mode:multiply" opacity=".3" fill="url(#dd)"/><path d="M646.08 344s12.33-3.14 20.42-10c8.25-7 6.58-15 6.58-15a18 18 0 0 1-8.33 18c-12.67 8-18.67 7-18.67 7z" transform="translate(-7 -93.67)" style="mix-blend-mode:screen" opacity=".6" fill="url(#de)"/><path d="M498.25 670.75s22.44 12.08 28 24.75C532.5 709.75 521 728 521 728s17.92-22.11 2.75-39.25c-13.5-15.25-25.5-18-25.5-18z" transform="translate(-7 -93.67)" style="mix-blend-mode:screen" opacity=".8" fill="url(#df)"/><path d="M603.17 712.5a18.06 18.06 0 0 1 2.67 1.33c1-.17 2.17-.33 2.17-.33s-2.51-2.33-4.84-1z" transform="translate(-7 -93.67)" style="mix-blend-mode:screen" opacity=".8" fill="url(#dg)"/><path d="M592.5 730s5.33 1.67 14-4a57 57 0 0 1 18-7.5s-9.67.67-17.5 6-14.5 5.5-14.5 5.5z" transform="translate(-7 -93.67)" style="mix-blend-mode:screen" opacity=".8" fill="url(#dh)"/><path d="M488.17 667.83s5.67 11 7.33 20.67 4.33 13 5.33 15.83a14.16 14.16 0 0 1 1 3.83s-.83-5.67-2.33-8.83-3-8-4.17-15.33-7.16-16.17-7.16-16.17z" transform="translate(-7 -93.67)" style="mix-blend-mode:screen" opacity=".8" fill="url(#di)"/><path d="M475.75 436.5s.64 7.74 1.92 10.17c1.58 3 7.7 7.05 16.25 12.42 9.17 5.75 15 6 16.67 21.92 1.25 12.08-1.92 17.67-2.67 19.92s4.08-2.93 4.21-15.43.88-23.5-6.5-24.87-28-9.5-29.88-24.13z" transform="translate(-7 -93.67)" style="mix-blend-mode:multiply" opacity=".8" fill="url(#dj)"/><path d="M478.83 442.54s-2.83-4.5-1.92-15.17 2.17-13.67 2.92-14.42 12-7.58 25.42-6.25c-15.25.42-22.92 5.67-24.5 7.5s-5.25 19.26-1.92 28.34z" transform="translate(-7 -93.67)" style="mix-blend-mode:screen" fill="url(#dk)"/><path d="M485.5 355s12.65 10.67 24.38 34.38C515.75 401.25 512 408 512 408s-1.12-.25-2.37-.5c8.12-16.12-24.13-52.5-24.13-52.5z" transform="translate(-7 -93.67)" style="mix-blend-mode:multiply" opacity=".8" fill="url(#dl)"/><path d="M512.83 363.5s31.33 13.5 51.5 41.83c17.55 24.66 13.33 32 11.83 36 1.01-26.16-26.16-56.5-63.33-77.83z" transform="translate(-7 -93.67)" style="mix-blend-mode:multiply" opacity=".8" fill="url(#dm)"/><path d="M559.25 486a26.82 26.82 0 0 1-7.08 6c6.5-2.25 8.33-5.17 8.33-5.17z" transform="translate(-7 -93.67)" style="mix-blend-mode:screen" opacity=".5" fill="url(#dn)"/><path d="M510.83 680s11 7 14.67 16.67 1 16.67 1 16.67 1.5-14.08-9.25-18.83C507.08 690 510.83 680 510.83 680z" transform="translate(-7 -93.67)" style="mix-blend-mode:multiply" fill="url(#do)"/><path d="M597.75 715.5s-9.33 5-14.25 7.67c-5.5 3-11.83 5.83-11.83 5.83s-2.5 5.83 7.67 1.67 18.41-15.17 18.41-15.17z" transform="translate(-7 -93.67)" style="mix-blend-mode:multiply" fill="url(#dp)"/><path d="M575.5 442s0 12.38 7.75 19.75S597.88 472.5 596 475.5s-9.37 10.5-17.87 15.5c13.38-10.25 16.88-15 17-16.12s-.37-2.25-8.12-8S575.13 452 575.5 442z" transform="translate(-7 -93.67)" style="mix-blend-mode:multiply" opacity=".8" fill="url(#dq)"/><path d="M501 723s-75.41 52.68-142.5 74.5c-82.25 26.75-111.5 6-121.25-15.75C251 842.75 379 823.25 501 723z" transform="translate(-7 -93.67)" style="mix-blend-mode:screen" fill="url(#dr)"/><path d="M228.25 752s16.91-45.34 78.75-32c48.67 10.5 107 47.75 107 47.75S322.5 719 280.33 722.5c-40.91 3.4-52.08 29.5-52.08 29.5z" transform="translate(-7 -93.67)" style="mix-blend-mode:screen" fill="url(#ds)"/><path d="M449 788.5s71.25 43.25 118 52.75c59.79 12.15 92.25 4.5 92.25 4.5s-90 28.75-210.25-57.25z" transform="translate(-7 -93.67)" style="mix-blend-mode:screen" fill="url(#dt)"/><path d="M534.13 743.25C490.47 767.54 394.7 819.07 342.25 831 259.61 849.79 234 798.25 234 798.25S266.67 845.5 351.67 819s167.58-82 167.58-82 7.75 5.63 14.88 6.25z" transform="translate(-7 -93.67)" style="mix-blend-mode:multiply" opacity=".8" fill="url(#du)"/><path d="M438.75 794.75s74.5 42 135 53 112-7 112-7-55.75 21.56-117.5 8.75c-60.25-12.5-129.5-54.75-129.5-54.75z" transform="translate(-7 -93.67)" style="mix-blend-mode:multiply" opacity=".8" fill="url(#dv)"/><path d="M534.13 743.25S448.18 789 396.67 810.5c-72 30-121 18.17-121 18.17s68.12 15.66 241.46-93.67c5 5.63 17 8.25 17 8.25z" transform="translate(-7 -93.67)" style="mix-blend-mode:multiply" opacity=".8" fill="url(#dw)"/><path d="M260.75 795.25c-21-5.75-34.08-23.25-24.08-46.58s49-35.67 99.67-11.33 54.17 32.17 61.42 37.42c-12.75-5.5-37.66-17.51-61.75-27C311.25 738 287.5 733 269.5 743c-28.27 15.71-21.25 45-8.75 52.25z" transform="translate(-7 -93.67)" style="mix-blend-mode:multiply" opacity=".8" fill="url(#dx)"/><path d="M230 744.25S212 766 223.5 796c10.13 26.41 43.5 44.75 95.17 39 45.82-5.1 103.58-33.5 103.58-33.5S315.5 854.5 252.5 821c-49.92-26.54-22.5-76.75-22.5-76.75z" transform="translate(-7 -93.67)" style="mix-blend-mode:multiply" opacity=".8" fill="url(#dy)"/><path d="M496.54 716.4s-36.29 25.85-71 45.35c-30 16.81-63 29.75-63 29.75s58.25-9 139.3-70.26a16.08 16.08 0 0 1-5.3-4.84z" transform="translate(-7 -93.67)" style="mix-blend-mode:multiply" opacity=".8" fill="url(#p)"/><path d="M234.75 758.5c-1.5-8.75 15.5-44.25 70.5-31.25C359.08 740 402 771 402 771s-143.25-82.75-167.25-12.5z" transform="translate(-7 -93.67)" style="mix-blend-mode:multiply" opacity=".8" fill="url(#dz)"/><path d="M507.67 723.67a22.07 22.07 0 0 0 12 15.67c10.67 5.33 13.08 4.17 13.08 4.17s-2.42 3.17-13.08-2.17-12-17.67-12-17.67z" transform="translate(-7 -93.67)" style="mix-blend-mode:multiply" opacity=".3" fill="url(#dA)"/><path d="M507.67 723.67s.58 10.21 9.38 16.42c9.82 6.93 14.21 4.67 14.21 4.67s-4.4 2.77-14.62-3.37c-9.51-5.72-8.97-17.72-8.97-17.72z" transform="translate(-7 -93.67)" style="mix-blend-mode:screen" opacity=".2" fill="url(#dB)"/><path d="M480.34 728s-7 12.52 3.82 23.62c12.16 12.5 20.84 6.95 20.84 6.95s-10.77 6.95-22.58-7.29-2.08-23.28-2.08-23.28z" transform="translate(-7 -93.67)" style="mix-blend-mode:multiply" opacity=".3" fill="url(#dC)"/><path d="M479.34 728.82s-7 12.52 3.82 23.62c12.16 12.5 20.84 6.95 20.84 6.95s-10.77 6.95-22.58-7.29-2.08-23.28-2.08-23.28z" transform="translate(-7 -93.67)" style="mix-blend-mode:screen" opacity=".35" fill="url(#dD)"/><path d="M467 779s-8.61 4.87-18.73-6 .75-24.34.75-24.34-12 15-2.25 25.09C458.76 786.12 467 779 467 779z" transform="translate(-7 -93.67)" style="mix-blend-mode:multiply" opacity=".3" fill="url(#dE)"/><path d="M465.55 780s-8.61 4.87-18.73-6 .75-24.34.75-24.34-12 15-2.25 25.09c11.99 12.35 20.23 5.25 20.23 5.25z" transform="translate(-7 -93.67)" style="mix-blend-mode:screen" opacity=".35" fill="url(#dF)"/><path d="M414.27 769s-10.2 16.08 2.35 23.14 18 2 18 2-8.24 7.84-20.4-1.18c-11.57-8.65.05-23.96.05-23.96z" transform="translate(-7 -93.67)" style="mix-blend-mode:multiply" opacity=".3" fill="url(#dG)"/><path d="M411.13 770.57s-8.63 15.69 3.92 22.75 16.47 2.35 16.47 2.35S425 802 412.85 793c-11.62-8.59-1.72-22.43-1.72-22.43z" transform="translate(-7 -93.67)" style="mix-blend-mode:screen" opacity=".35" fill="url(#dH)"/><path d="M376.92 786s-12.91 15.41-2.5 23.74a21.89 21.89 0 0 0 21.24 3.75s-8.75 3.33-18.74-4.58 0-22.91 0-22.91z" transform="translate(-7 -93.67)" style="mix-blend-mode:multiply" opacity=".3" fill="url(#dI)"/><path d="M373.18 787.67s-10.78 14.68-.36 23 19.11 4.48 19.11 4.48-8 2.5-18-5.41-.75-22.07-.75-22.07z" transform="translate(-7 -93.67)" style="mix-blend-mode:screen" opacity=".35" fill="url(#dJ)"/><path d="M336.26 800.33s-12.13 10-3.35 21.76 20.09 6.28 20.09 6.28-13.39 2.51-19.25-8.79a16.3 16.3 0 0 1 2.51-19.25z" transform="translate(-7 -93.67)" style="mix-blend-mode:multiply" opacity=".3" fill="url(#dK)"/><path d="M332.92 801.17s-11.14 8.52-2.35 20.24 19.09 7.79 19.09 7.79-12.77 2.1-18.66-9.2 1.92-18.83 1.92-18.83z" transform="translate(-7 -93.67)" style="mix-blend-mode:screen" opacity=".35" fill="url(#dL)"/><path d="M297.61 805.67s-14.63 4.7-9.24 19.91c4.06 11.45 16.63 10 16.63 10s-14.84-2.17-15.89-14.78c-.74-8.85 8.5-15.13 8.5-15.13z" transform="translate(-7 -93.67)" style="mix-blend-mode:multiply" opacity=".3" fill="url(#dM)"/><path d="M295.21 806.41s-14 5.16-8.5 20.32c3.46 9.51 15.89 9.61 15.89 9.61s-14.84-2.17-15.89-14.78c-.71-8.87 8.5-15.15 8.5-15.15z" transform="translate(-7 -93.67)" style="mix-blend-mode:screen" opacity=".35" fill="url(#dN)"/><path d="M265.49 798.76s-12.84-8-21 7.39c-6.68 12.59 1.73 15.25 1.73 15.25s-8-10.84 3.46-19.81c10.15-7.96 15.81-2.83 15.81-2.83z" transform="translate(-7 -93.67)" style="mix-blend-mode:multiply" opacity=".3" fill="url(#dO)"/><path d="M268 800s-11.74-9-21.79 6.29c-7.85 11.9 2.52 16.35 2.52 16.35s-11.32-9.59 3.35-21C261.61 794.31 268 800 268 800z" transform="translate(-7 -93.67)" style="mix-blend-mode:screen" opacity=".35" fill="url(#dP)"/><path d="M249.66 775.46s-3.43-8.32-16.64-6.36-10.77 20.56-10.77 20.56-2-17.38 12.24-19.09c12.23-1.47 15.17 4.89 15.17 4.89z" transform="translate(-7 -93.67)" style="mix-blend-mode:multiply" opacity=".3" fill="url(#dQ)"/><path d="M250.27 777.18s-3.43-8.32-16.64-6.36S222 791.37 222 791.37s-1.13-17.37 13.1-19.09c12.24-1.47 15.17 4.9 15.17 4.9z" transform="translate(-7 -93.67)" style="mix-blend-mode:screen" opacity=".35" fill="url(#dR)"/><path d="M225 753.65s4.05-13.53 17.32-11.87c19.79 2.47 8.9 22.26 8.9 22.26s5.45-19.36-8.9-20.28c-15.37-.99-17.32 9.89-17.32 9.89z" transform="translate(-7 -93.67)" style="mix-blend-mode:multiply" opacity=".3" fill="url(#dS)"/><path d="M224 755.38s4.05-13.53 17.32-11.87c19.79 2.47 8.9 22.26 8.9 22.26s7.67-18.86-8.9-20.29c-15.32-1.31-17.32 9.9-17.32 9.9z" transform="translate(-7 -93.67)" style="mix-blend-mode:screen" opacity=".35" fill="url(#dT)"/><path d="M250.76 726.21s10.86-5.17 16.55 3.62-5.69 18.11-5.69 18.11 9.83-14 0-19.66-10.86-2.07-10.86-2.07z" transform="translate(-7 -93.67)" style="mix-blend-mode:multiply" opacity=".3" fill="url(#dU)"/><path d="M248.63 727s10.93-3.94 16.62 4.85-5.7 18.15-5.7 18.15 12.93-14 1.29-20.43c-9.94-5.48-12.21-2.57-12.21-2.57z" transform="translate(-7 -93.67)" style="mix-blend-mode:screen" opacity=".35" fill="url(#dV)"/><path d="M285.71 717s4.41 3.43 3.92 11.77-4.9 9.8-4.9 9.8 6.37-6.4.98-21.57z" transform="translate(-7 -93.67)" style="mix-blend-mode:multiply" opacity=".3" fill="url(#dW)"/><path d="M283.81 716.67s4.41 3.43 3.92 11.76-4.9 9.8-4.9 9.8 6.37-6.36.98-21.56z" transform="translate(-7 -93.67)" style="mix-blend-mode:screen" opacity=".35" fill="url(#dX)"/><path d="M317.86 721.67s-5.31 5.72-4.09 11.44 4.09 8.17 4.09 8.17-6.13-7.76 0-19.61z" transform="translate(-7 -93.67)" style="mix-blend-mode:multiply" opacity=".3" fill="url(#dY)"/><path d="M319.29 721.72s-5.31 5.72-4.09 11.44 4.09 8.17 4.09 8.17-6.12-7.76 0-19.61z" transform="translate(-7 -93.67)" style="mix-blend-mode:screen" opacity=".35" fill="url(#dZ)"/><path d="M353.63 734s-6.89-.46-8.57 7.75c-1.72 8.4 4.75 10.77 4.75 10.77a10.34 10.34 0 0 1-2.14-11.94c2.84-6.12 5.96-6.58 5.96-6.58z" transform="translate(-7 -93.67)" style="mix-blend-mode:multiply" opacity=".3" fill="url(#ea)"/><path d="M355.67 735.23s-6.17-2.76-8.57 7.75c-1.91 8.36 6.12 11 6.12 11s-7.84-5.82-4.08-12.65c4.49-8.15 6.53-6.1 6.53-6.1z" transform="translate(-7 -93.67)" style="mix-blend-mode:screen" opacity=".35" fill="url(#eb)"/><path d="M381.67 748s-6-.78-6.33 6.7c-.37 9.68 5.59 11.92 5.59 11.92s-4.5-3.82-3.72-11.92c.73-7.81 4.46-6.7 4.46-6.7z" transform="translate(-7 -93.67)" style="mix-blend-mode:multiply" opacity=".3" fill="url(#ec)"/><path d="M383.9 748.38s-6-.78-6.33 6.7c-.37 9.68 5.59 11.92 5.59 11.92s-4.5-3.82-3.72-11.92c.74-7.82 4.46-6.7 4.46-6.7z" transform="translate(-7 -93.67)" style="mix-blend-mode:screen" opacity=".35" fill="url(#ed)"/><path d="M409.33 762.67s-8 .5-7.67 10.67c.05 1.67 1.67.17 1.67.17s-1.17-2.17 1.17-6.5 4.83-4.34 4.83-4.34z" transform="translate(-7 -93.67)" style="mix-blend-mode:multiply" opacity=".3" fill="url(#ee)"/><path d="M411 763.33s-7.17-2-7.67 9.67l1.67-.83s-.5-3.5.83-5.33c3.61-4.96 5.17-3.51 5.17-3.51z" transform="translate(-7 -93.67)" style="mix-blend-mode:screen" opacity=".35" fill="url(#ef)"/><path d="M458.25 791.38s-4.37-2-6.92 4.63c-1.85 4.83 2.92 7.71 2.92 7.71s-3.76-3.38-.67-9c2.05-3.72 4.67-3.34 4.67-3.34z" transform="translate(-7 -93.67)" style="mix-blend-mode:multiply" opacity=".3" fill="url(#eg)"/><path d="M459.67 792s-4.29-1.75-6.67 4.33c-1.88 4.82 2.67 8 2.67 8s-3.67-3.33-.67-9 4.67-3.33 4.67-3.33z" transform="translate(-7 -93.67)" style="mix-blend-mode:screen" opacity=".35" fill="url(#eh)"/><path d="M491.67 810.33s-4.5-.16-6 3.33c-2 4.67 2.67 8 2.67 8s-7.01-6.33 3.33-11.33z" transform="translate(-7 -93.67)" style="mix-blend-mode:multiply" opacity=".3" fill="url(#ei)"/><path d="M493.17 810.67s-4.5-.16-6 3.33a6.34 6.34 0 0 0 1.58 7.5s-5.92-5.83 4.42-10.83z" transform="translate(-7 -93.67)" style="mix-blend-mode:screen" opacity=".35" fill="url(#ej)"/><path d="M525 826.33s-2.67 1.33-2.67 4a19.69 19.69 0 0 0 1.33 6s-1.66-6.66 1.34-10z" transform="translate(-7 -93.67)" style="mix-blend-mode:multiply" opacity=".3" fill="url(#ek)"/><path d="M526 826.46s-2.67 1.33-2.67 4a19.69 19.69 0 0 0 1.33 6s-1.66-6.67 1.34-10z" transform="translate(-7 -93.67)" style="mix-blend-mode:screen" opacity=".35" fill="url(#el)"/><path d="M556.67 837.67A9.26 9.26 0 0 0 555 842c0 2 2.33 4.67 2.33 4.67a25.49 25.49 0 0 1-.66-9z" transform="translate(-7 -93.67)" style="mix-blend-mode:multiply" opacity=".3" fill="url(#em)"/><path d="M558.67 837.92a9.26 9.26 0 0 0-1.67 4.33c0 2 2.33 4.67 2.33 4.67a25.49 25.49 0 0 1-.66-9z" transform="translate(-7 -93.67)" style="mix-blend-mode:screen" opacity=".35" fill="url(#en)"/><path d="M591.58 844.75a11.27 11.27 0 0 0-1.14 4 17.44 17.44 0 0 0 .86 4.29s.85-6.04.28-8.29z" transform="translate(-7 -93.67)" style="mix-blend-mode:multiply" opacity=".3" fill="url(#eo)"/><path d="M592.87 845a11.28 11.28 0 0 0-1.14 4 17.44 17.44 0 0 0 .86 4.29s.85-6.04.28-8.29z" transform="translate(-7 -93.67)" style="mix-blend-mode:screen" opacity=".35" fill="url(#ep)"/><path d="M620.1 846.83a2.08 2.08 0 0 1 1.7 3.06 8.58 8.58 0 0 1-3.4 4.07s3.05-3.39 1.7-7.13z" transform="translate(-7 -93.67)" style="mix-blend-mode:multiply" opacity=".3" fill="url(#eq)"/><path d="M622.35 847.63a1.85 1.85 0 0 1 1.51 2.71 7.62 7.62 0 0 1-3 3.62s2.69-3.01 1.49-6.33z" transform="translate(-7 -93.67)" style="mix-blend-mode:screen" opacity=".35" fill="url(#er)"/><path d="M650.58 845.67a2.89 2.89 0 0 1 2 1.69c.56 1.41-2 2.81-2 2.81s1.12-2.53 0-4.5z" transform="translate(-7 -93.67)" style="mix-blend-mode:multiply" opacity=".3" fill="url(#es)"/><path d="M651.63 845.67a2.89 2.89 0 0 1 2 1.69c.56 1.41-2 2.81-2 2.81s1.12-2.53 0-4.5z" transform="translate(-7 -93.67)" style="mix-blend-mode:screen" opacity=".35" fill="url(#et)"/><path d="M517 357.33s-.63-57.69 78-44.33c68.67 11.67 100.33 114.67 64.67 200.33 50-98 12.86-179.43-38.67-202-40.33-17.66-108.67-11.66-104 46z" transform="translate(-7 -93.67)" style="mix-blend-mode:multiply" opacity=".6" fill="url(#eu)"/><path d="M556 280s46.33-11 91 17.33 81.33 81 70 177.33C730.5 342.25 649 274.67 556 280z" transform="translate(-7 -93.67)" style="mix-blend-mode:multiply" opacity=".5" fill="url(#ev)"/><path d="M624 570.33s46.22-58.39 50.67-114.33c5.67-71.33-28.33-110.33-28.33-110.33s39.67 19 35.67 91.67S641.67 555 624 570.33z" transform="translate(-7 -93.67)" style="mix-blend-mode:multiply" opacity=".5" fill="url(#ew)"/><path d="M622.67 614.67c-4.58-4.58 0-11.33 26.33-47.67s40.67-98.67 40.67-98.67S691.33 549 677 594s-25.29 56.73-33.33 46c-4-5.33-17-21.33-21-25.33z" transform="translate(-7 -93.67)" style="mix-blend-mode:multiply" opacity=".3" fill="url(#ex)"/><path d="M599 286s87.67 9.33 115 109.75c19.81 72.79-21.25 181.75-25.75 190.25 24.42-81 69.08-253-89.25-300z" transform="translate(-7 -93.67)" style="mix-blend-mode:multiply" opacity=".5" fill="url(#ey)"/><path d="M223.33 175S322 255.67 339 292.33C327.83 297 344.33 278.5 223.33 175z" transform="translate(-7 -93.67)" style="mix-blend-mode:screen" fill="url(#ez)"/><path d="M866.5 117.17s-54.67 60.17-64 103.67c16-19.51 3.17-22.01 64-103.67z" transform="translate(-7 -93.67)" style="mix-blend-mode:screen" fill="url(#eA)"/><path d="M179 217s27.07 4.49 80.33 37.17c47 28.83 75.34 51.83 75.34 51.83s-1.85 1.35-9-3c-57-34.67-99.34-68.67-146.67-86z" transform="translate(-7 -93.67)" style="mix-blend-mode:multiply" fill="url(#eB)"/><path d="M183 233s-36.83-3.5-78.33 12.5S41 285 41 285s64-52.5 142-52z" transform="translate(-7 -93.67)" style="mix-blend-mode:screen" fill="url(#eC)"/><path d="M910.33 133.67s-24.58 9.08-60.58 47.33-39 44.5-39 44.5 1.15.68 8-6c29.92-29.17 47.92-58.83 91.58-85.83z" transform="translate(-7 -93.67)" style="mix-blend-mode:multiply" fill="url(#eD)"/><path d="M910 150s24.25-2 44.75 11S994 198 994 198s-37.5-46.25-84-48z" transform="translate(-7 -93.67)" style="mix-blend-mode:screen" fill="url(#eE)"/><path d="M408.5 473.75s-24.76-38-36.75-71.75c-13.5-38-13.25-70.25-13.25-70.25s-10 67.75 50 142z" transform="translate(-7 -93.67)" style="mix-blend-mode:multiply" fill="url(#eF)"/><path d="M435.67 505a13.4 13.4 0 0 1-3.67 2.33c-1.83.67-5.67 2.5-5.67 2.5s2.83-.33 5.17-.83c2.92-.62 4.5-.83 6.5 1.5s24.5 29 74.17 53.33c-4.67-2.66-49.34-29.5-76.5-58.83z" transform="translate(-7 -93.67)" style="mix-blend-mode:multiply" fill="url(#eG)"/><path d="M799.75 248s3.42 29.17 2.58 92.33S784.5 443 784.5 443s16.84-19.69 20.5-92.75c3.83-76.5-5.25-102.25-5.25-102.25z" transform="translate(-7 -93.67)" style="mix-blend-mode:multiply" fill="url(#eH)"/><path d="M767.8 478.72s-3.63 9-7.47 16.62-11.17 20.83-11.17 20.83 20.11-25.24 18.64-37.45z" transform="translate(-7 -93.67)" style="mix-blend-mode:multiply" fill="url(#eI)"/><path d="M769 479.5s-4.85-3.16-1.3-12.83 13-21.42 13-21.42-17.7 24.5-11.7 34.25z" transform="translate(-7 -93.67)" style="mix-blend-mode:multiply" fill="url(#eJ)"/><path d="M435.67 505s5.75-5.3-2-12c-8.67-7.5-21.17-17.5-26.17-19.5 5.5 7.75 32.75 21.75 28.17 31.5z" transform="translate(-7 -93.67)" style="mix-blend-mode:multiply" fill="url(#eK)"/></g></svg>