<svg xmlns="http://www.w3.org/2000/svg" viewBox="0 0 100 100">
    <defs>
        <linearGradient id="a" x1="0" x2="1" y1="0" y2="1">
            <stop offset="0%" stop-color="#2196F3"/>
            <stop offset="100%" stop-color="#8FCDFF"/>
        </linearGradient>
    </defs>
    <g fill="none">
        <path d="M1.816.258C1.24.401.782.665-.31 1.774M1.656-.13C1.014.696.335 1.327-.22 1.93m4.2-3.108C4.473 2.278.147 5.038.01 6.106M5.592.696C2.72 2.927 1.542 3.651.587 6.195M-.718 2.65c1.887-.4 4.201-.742 5.082-2.228M.06 1.37C2.267 1.685 3.776.915 4.924.188m6.398-.18C7.142 4.313 1.914 3.5 1.675 8.765m7.534-7.687c-3.278 2.974-8.03 7.67-9.751 9.53m.337-5.631c4.001-2.088 7.79-2.482 10.85-2.946M-.43 5.341C4.041 4.994 7.411.587 10.44-.444m3.249-.763C7.063 4.776 6.168 9.411-1.907 14.963M15.018 1.62C9.852 5.8 8.511 8.38-.105 14.56m.323-1.734C3.763 4.862 8.342 7.857 11.424-2.637M.414 11.97C5.674 7.544 8.75.892 14.487.421m-.578-2.113c-.956 9.493-2.913 13.406-14.97 19.31M16.412 1.78c-5.622 3.753-9.31 11.437-18.091 19.49M.15 12.987c1.728-5.43 5.365-4.49 20.904-15.606M-.421 13.611c4.583-4.924 13.865-7.4 19.344-15.23m1.863.647C15.404 9.863 4.206 16.924-2.536 21.132M20.595.325c-8.875 11.083-17.444 19.67-22.14 24.59m5.049-4.84c3.991-8.78 8.904-13.84 17.472-19.032M1.97 18.895c5.96-5.7 13.668-13.325 17.74-20.529m3.227 5.08C22.293 6.022 8.87 15.556.022 32.123M26.346-.057C16.69 8.577 9.246 16.351-.438 29.504m-.666-5.509c5.3-6.587 18.48-15.133 22.669-24.29M1.567 25.79C6.36 16.104 12.91 12.311 27.093 1.996m.088-2.299C16.974 15.034 10.407 26.225-1.215 35.35M29.2-.225C25.436 6.217 18.107 14.983.149 34.348m-2.522-4.274c7.457-5.956 18.497-18.639 34.048-28.889M-1.558 27.933C10.937 18.003 24.724 6.819 29.76.591m3.693-3.787c-8.357 11.529-15.46 27.738-36.496 43.86m35.546-41.5C21.895 12.65 11.904 25.936-1.245 36.975m-1.971-3.17C6.202 22.552 21.294 15.097 32.473-.742m-30.87 33.81c7.249-5.83 16.447-15.236 32.955-34.343M34.15-.218C20.946 15.732 9.564 31.835-1.78 42.662M38.859-1.526C24.836 10.723 15.472 22.45-1.098 43.523m.219-8.629c14.327-8.26 24.115-14.325 39.39-35.42M-.994 37.09C6.517 32.244 15.91 22.084 37.683-.03m.33-1.165C34.488 8.554 18.426 21.626-2.887 49.7M39.408-1.475C26.816 16.522 12.233 31.04 1.566 47.001M.393 44.134C11.786 29.292 25.937 14.65 39.663.393M.93 43.439C7.355 31.666 16.73 24.089 43.193 1.067M48.07-1.68C28.428 14.694 17.548 38.407-.6 49.546M46.006-.699C31.8 12.107 18.29 27.811-1.315 52.647m2.711-9.172C15.276 29.656 30.837 11.076 46.529 3.71M1.044 49.407C18.527 28.06 37.694 9.862 44.691.96m4.204-2.44C37.842 13.252 21.145 32.463 3.214 58.747m44.23-57.002C31.12 22.08 15.346 42.306-1.31 55.092m3.232-5.286C15.825 36.652 33.665 19.48 52.472 1.746M.722 50.078C9.98 39.494 20.372 28.96 49.394-.364m5.79-3.402C45.136 14.197 26.125 25.202.512 65.164M51.486-1.19C36.203 17.681 20.106 37.211.998 60.914m-1.26-1.811C20.523 42.474 33.59 23.136 54.148-1.384M-.609 55.417C9.525 42.93 22.923 32.305 51.998-.275m6.328-.755C42.855 20.26 25.358 35.983-.327 67.682m58.25-69.125C34.763 25.068 15.252 51.007-.12 65.991m-1.679-4.238C20.122 37.773 44.23 11.91 58.336 1.538M-.18 62.44C14.832 42.68 31.433 27.328 57.995.905m2.015-3.868C34.698 31.003 12.426 55.567.314 68.973m59.73-70.57C38.42 27.823 17.67 50.86 1.835 69.87M.272 62.707c20.92-18.18 40.086-45.949 58.837-59.33M-.544 66.756C24.291 41.292 46.581 16.715 63.073-.208m-1.662.97C44.385 19.159 30.276 41.322 1.58 71.406M65.499-.969C49.63 18.43 29.027 40.235-1.1 74.123m2.897-.117c9.9-13.533 26.446-34.068 62.464-71.54m-65.6 67.474C22.2 43.328 48.209 20.191 63.496 1.58m4.111.833C46.187 26.896 19.999 58.283-3.36 82.837M69.233-.849C47.059 24.966 26.462 50.259.456 80.546m-.255-4.597C25.27 50.47 43.833 30.207 70.056-2.131M.78 75.652c22.066-26.4 45.718-51.333 66.99-74.371m5.175-4.338C51.323 24.757 32.21 48.303 3.248 82.098m68.754-80.43C56.062 17.47 38.805 36.988.115 86.008m3.073-9.065C25.93 48.383 52.546 20.114 73.68.789M1.311 80.697C26.876 49.872 54.127 21.48 73.492 1.063m2.408 1.694C58.941 23.65 46.834 37.366-.599 91.691M78.484-.647C51.783 26.478 31.267 53.296-.41 87.245m4.389-1.855c22.72-28.868 45.877-59.243 73.796-82.234M-.138 85.855C27.251 49.798 55.556 20.698 78.805.179m4.53-3.712C56.918 24.537 30.193 54.973.334 91.338M79.33-1.407C64.143 17.882 48 35.71 1.707 92.896m-1.75-3.112c26.225-33.51 61.18-60.93 79.155-91.57M-.517 89.748c22.877-25.76 49.18-54.924 79.773-90.74m7.484 3.58C52.16 37.457 14.313 79.871 2.778 97.924M83.758-.078C56.857 32.657 28.796 66.78.933 99.73m-1.666-9.984c23.475-18.252 41.841-45.98 84.155-91.876M.448 92.797C26.246 64.582 50.8 38.686 86.749.215m4.985-3.144C51.789 33.469 22.617 79.564.234 96.953M90.292-1.473C73.81 20.777 51.859 40.42 2.26 101.476m1.021-5.102C30.885 67.884 58.964 35.906 90.06-3.53M1.45 98.676C29.574 67.727 58.792 31.668 90.822 1.583m-1.238-3.537C74.822 20.896 55.049 44.868 9.928 100.618M92.695-1.1C62.123 35.238 31.625 72.077 7.1 100.835m-5.043-.888C35.408 60.874 72.759 30.44 91.868-.151M2.275 99.34C35.963 64.226 70.961 23.83 94.645.89m-.042.077C72.79 23.51 57.218 52.107 12.783 98.87M98.82.364C75.838 26.725 54.794 48.155 11.59 100.982m-9.205-.583C38.598 64.102 68.143 30.762 99.207 3.383M6.578 101.804c34.439-40.62 68.81-76.488 89.066-100.423m1.14 1.34c-12.602 25.893-37.82 46.16-81.128 95.544m82.86-95.423c-23.94 29.532-48.42 58.301-86.12 98.328m-1.808-1.276C40.38 62.276 78.28 31.114 100.105-.267M11.242 100.87C30.914 79.166 54.586 56.757 101.082-.675m-1.32 4.406c-31.225 33.88-54.557 68.846-85.227 100.04M98.888 4.268c-16.643 22.834-33.167 44.041-82.73 97.57m.983-.451c18.29-22.653 29.567-41.339 86.75-95.171m-90.995 95.07C46.94 63.828 77.98 28.69 99.702 4.98m-1.818 5.558C73.335 45.38 47.365 70.202 24.84 103.675m76.71-93.587c-21.088 25.276-40.881 46.52-79.966 89.953m-6.935.503C43.804 78.456 62.424 51.02 101.64 9.789M16.88 100.73c21.577-22.65 42.784-47.737 82.52-91.063m4.284 8.478C78.795 35.31 65.032 57.72 29.312 102.23m70.115-88.756C79.98 35.467 62.003 56.34 27.23 101.821m-5.762-2.174C46.967 70.43 69.21 44.52 98.344 17.71M20.532 98.312c16.359-17.76 35.184-35.005 78.323-82.92m1.197 1.595c-23.718 23.643-46 53.177-71.068 80.291m71.78-77.796c-17.902 20.41-33.225 38.915-70.558 82.294m-6.99-4.489C48.86 70.897 79.29 43.11 96.246 19.874m-68.624 80.952c20.35-26.683 46.645-52.206 72.104-80.715m-2.633 2.875c-20.887 20.409-42.436 49.66-59.287 73.78m60.366-72.872c-15.196 21.208-30.85 40.039-63.26 77.593m-3.883-1.057c13.588-19.502 34.988-40.411 68.759-75.804M28.366 99.93c13.852-16.087 31.66-32.531 73.08-74.2m-3.658 5.703C86.384 47.412 69.778 65.57 41.28 103.465m57.4-74.917C85.425 44.716 73.499 58.7 38.808 98.78m-2.839 1.3c16.089-18.614 31.51-42.844 61.529-71.553M35.039 98.245c15.464-16.969 32.68-36.215 66.29-71.346m-.96 10C81.79 49.775 64.28 71.098 38.6 97.37m60.318-63.315c-16.6 21.358-34.913 40.624-56.682 66.931m-5.535 1.394c14.129-20.19 32.47-34.623 64.23-67.351M36.841 98.239C52.165 83.097 63.1 71.284 98.572 33.627m-1.95 3.83C88.152 54.772 71.244 72.793 47.12 97.46m54.616-59.684c-19.29 19.911-37.369 41.175-54.432 61.188m-2.819-.614c12.888-18.814 29.01-35.837 55.484-62.762M43.03 99.527c10.845-11.08 24.655-24.728 58.423-63.692m-.72 6.63c-15.81 21.054-33.84 38.992-48.341 53.725m46.986-55.07C85.705 59.023 71.055 76.982 47.916 99.121m-4.105-3.071c17.288-17.317 37.454-35.128 53.784-56.004m-50.86 61.115C67.408 76.47 89.416 55.31 101.402 42.98m1.842 6.384c-21.368 16.053-32.827 36.233-48.58 51.625M98.78 45.248c-10.492 12.23-19.561 21.487-45.017 54.59m-2.492 1.96c9.821-13.343 16.71-23.791 48.325-54.47m-49.71 50.75C63.639 85.472 82.03 67.665 99.298 46.78m-2.044 6.515C89.71 66.868 78.898 75.697 56.51 96.954m44.241-45.801c-10.805 15.569-25.169 25.632-42.12 50.42m-3.738-.08C59.105 89.06 71.59 77.814 97.99 50.232m-43.97 50.81c16.622-16.974 31.198-36.04 45.23-51.263m-.53 3.017c-5.848 15.996-19.11 25.32-38.026 48.232m41.23-45.72c-11.82 11.515-19.616 18-40.567 45.083m-4.216 2.232c8.449-14.537 17.87-25.578 44.292-47.712m-44.166 45.186C69.008 85.117 80.086 76.011 99.23 57.216m.284 6.433C86.78 71.552 82.224 86.83 61.87 96.642m39.12-37.116c-10.148 8.759-18.621 21.67-35.052 38.596m-5.765 4.172c15.191-18.105 28.1-25.299 39.921-37.904m-38.007 36.057c8.739-9.732 18.369-21.75 37.016-40.636m.083 5.623C89.671 77.967 82.75 86.649 67.65 100.17m30.736-36.95c-5.864 11.776-18.046 22.875-30.224 38.02m.534 1.163C78.87 86.13 89.081 73.923 102.133 63.12M66.62 99.88c7.439-10.093 12.748-14.95 31.805-35.33m5.386 5.586c-11.97 4.758-18.177 9.288-29.252 28.086m25.977-30.007c-6.3 8.3-10.42 15.097-25.153 31.593m-9.78 2.466c10.34-11.651 16.133-14.048 33.007-30.653m-27.12 27.37c6.455-3.453 12.965-10.669 27.004-29.9m2.636 3.77c-5.593 10.993-12.944 19.671-27.336 26.484m26.589-25.928C92.83 84.14 85.77 94.188 78.149 100.915m-2.012-4.137c5.337 1.344 6.579-4.395 27.435-24.133M74.704 99.092C80.66 93.442 84.98 88.3 98.258 73.864m2.038 3.526c-7.089 6.939-12.114 9.656-19.518 24.632m20.76-24.493c-7.684 7.117-16.42 17.332-18.683 22.784m-5.534 2.56c8.777-6.84 13.87-14.47 24.077-21.197m-22.192 17.6c3.277-4.925 11.798-10.628 20.483-18.655m1.503.932c-9.39 9.724-12.89 16.775-19.095 18.344m16.678-17.649C96.645 89.865 89.67 94.4 85.103 98.86m-6.434-1.716c11.109-3.37 13.144-10.413 23.621-13.61m-19.583 17.677c4.086-9.177 13.509-15.52 18.656-19.78m-.521 3.74c-4.066 8.336-11.604 15.553-8.337 15.192m8.37-13.936c-4.179 4.685-9.654 11.698-10.553 13.598m-1.59-2.22c.483-1.696 7.096-2.153 8.875-11.257M84.819 98.575c4.348-3.258 9.338-4.489 16.982-12.1m-.684 7.528c-3.563 1.536-7.318 3.321-8.108 4.064m6.327-6.303c-.46 2.268-3.334 5.164-6.694 7.734m-2.352 2.498c4.899-3.495 5.642-7.79 10.074-8.89m-11.826 7.223c2.522-.866 5.654-3.804 10.313-6.868m.848 3.89c.102 1.55-1.97 1.199-1.6 2.459m1.877-2.947c-.863.708-1.716 1.56-2.73 3.414m-5.216-.34c4.454.446 5.87-3.17 9.36-3.665m-8.169 3.66c3.489-1.57 5.883-2.573 7.07-3.039"
              stroke="url(#a)"/>
        <path d="M.55 3.459c38.663-1.564 72.237-2.37 96.007-.526M.882 1.661C28.937-.853 53.962 1.228 99.13-.59m-2.986-1.621c5.326 24.565 4.857 43.963 5.21 99.731M99.145 1.1c.016 28.039-.22 55.19.835 97.865m2.499-.413c-42.502 2.676-78.832-2.994-100.81 4.889m99.571-4.75c-28.573 1.943-56.974-1.46-102.655 2.18m3.23 1.815C2.914 73.958-2.638 54.095-3.95-.19m2.826 98.196C-.074 74.98 2.995 51.945-1.46.327"
              stroke="rgba(0,0,0,.1)" stroke-width="2"/>
    </g>
</svg>