<svg xmlns="http://www.w3.org/2000/svg" viewBox="0 0 100 100">
    <defs>
        <linearGradient id="grad1" x1="0" x2="1" y1="0" y2="1">
            <stop offset="0%" stop-color="#2196F3"/>
            <stop offset="100%" stop-color="#8FCDFF"/>
        </linearGradient>
    </defs>
    <g>
        <path d="M1.8159458976251412 0.2582669188259459 C1.241374146587486 0.401107439451906, 0.781669187224232 0.6650576526638934, -0.30948252799696335 1.7744827202634714 M1.6564140414656054 -0.13060523130716425 C1.013827294086386 0.6962617653311277, 0.33453888201165033 1.3271655893695056, -0.21996350988602553 1.9302146892849277 M3.980726274234452 -1.1777386966940684 C4.471695175954107 2.2780053893841314, 0.1459288660415563 5.038038330007053, 0.010163244613508482 6.105554408262284 M5.59154516915294 0.6951028288077303 C2.7205197275436976 2.9282614068740376, 1.5413186212403795 3.6519968073558084, 0.5865900243162996 6.195084340176035 M-0.7180067221074933 2.6502184696497024 C1.1690155181068727 2.249564616610657, 3.4831877746300046 1.9078578117408653, 4.363659852491511 0.42248445008178637 M0.060857631551150204 1.3688701840346624 C2.2670927500464075 1.6845515643848303, 3.7761218726745085 0.914873315419115, 4.923790272865906 0.18769076296217369 M11.322406341938324 0.007744071820674936 C7.142321257776101 4.312801475209249, 1.9140400865370752 3.5007586033681535, 1.6748735148419178 8.764906041296893 M9.209184026827177 1.0783636427354588 C5.930707185582225 4.051701212099222, 1.179532249485908 8.748510511315342, -0.5424581247431376 10.607531273248526 M-0.20537901464986863 4.977015942042099 C3.7961630078212587 2.8891344604791946, 7.584458207996299 2.494902040768083, 10.644869053293526 2.031262697848715 M-0.4286051783346614 5.3414875481421085 C4.040421796096926 4.993898228726956, 7.41044984218614 0.5869817232464478, 10.438674512464653 -0.44444634577002906 M13.687879184709608 -1.2065728035645567 C7.062949306096318 4.7756405686763, 6.167952058616775 9.410596299534934, -1.906749384509503 14.962457871663554 M15.018396668840001 1.6203927728445722 C9.852157441044625 5.798845509183697, 8.510574784781422 8.379209522919826, -0.10504336011674464 14.560056998218638 M0.21760168196498775 12.825875312434295 C3.763497292780281 4.862292606432428, 8.342149912539048 7.857394024727325, 11.423851996939385 -2.637235013678629 M0.41414868792552295 11.970980949414782 C5.674757601953785 7.543574418800673, 8.748695921264664 0.8922098740106263, 14.486656817255616 0.42072305731058735 M13.908954831061042 -1.6923312631574596 C12.95349685599237 7.800683546062222, 10.995694137137763 11.71387717747445, -1.0616367881641349 17.617516322699384 M16.41298074293779 1.7812756058709054 C10.790679985892128 5.533885395106004, 7.103686018139405 13.218076499524923, -1.678048428600336 21.27133723748431 M0.1499105599697046 12.987101448227751 C1.87842908502153 7.557528408848178, 5.515212009802568 8.496798774656558, 21.05369370067404 -2.6186702186687647 M-0.42147961879453 13.61158088949873 C4.16244528257694 8.687193660626463, 13.443682717340097 6.210933228245388, 18.922847774310107 -1.6199067929972903 M20.78649821979382 -0.9720637683062172 C15.404358047069937 9.863382881213418, 4.2058402848860705 16.924194543104516, -2.535522826609796 21.131781937482746 M20.595419613184916 0.3245419116255013 C11.720119277135431 11.407795490525961, 3.1511424305536258 19.99529599803584, -1.5446831829130172 24.9140871580409 M3.5036796690404106 20.075936046710375 C7.49502283298749 11.294340761123959, 12.408256111470589 6.235228193801445, 20.976109890692655 1.0428301646996356 M1.9701263967976024 18.894855080810714 C7.929623425738663 13.195403561324596, 15.638059781267707 5.570490868362182, 19.710940987604896 -1.6338999407172379 M22.936850474568526 3.445688419231871 C22.293195203648665 6.021809217252043, 8.869617151997943 15.556146457951767, 0.021500480111471987 32.12316264537819 M26.345859334423466 -0.05777000515431485 C16.6895301512784 8.577975086058878, 9.246333432851381 16.351979043481638, -0.4379958782044593 29.504568239912675 M-1.1042247455192218 23.99598925385559 C4.196675324110283 17.40944242651024, 17.37559650872359 8.862857464550572, 21.56476343073577 -0.2946335921962149 M1.567403726483585 25.790118277120868 C6.360003092088008 16.10443289119938, 12.909863731176387 12.311491534660739, 27.09322708345649 1.9961369715419846 M27.180854092481887 -0.3027433340309731 C16.97379540556525 15.033885872366234, 10.40709668013347 26.22482260914255, -1.214664453140598 35.35019345157832 M29.198509754013205 -0.22531193929382098 C25.435902968899608 6.216824456764874, 18.1067082359773 14.983454644369285, 0.14908253269251315 34.348434233433665 M-2.3733060043079757 30.074104834487954 C5.08364638846676 24.11817182182131, 16.123778561493822 11.435213464852028, 31.674955517986387 1.1849522337619565 M-1.557898859900206 27.93297108720729 C10.936751249763647 18.003373758019514, 24.7237802855252 6.819171248469893, 29.760329786698925 0.5906507210291956 M33.45277721207033 -3.1962135520436945 C25.095583726468732 8.332908164485872, 17.99360654883884 24.541786762253363, -3.0431421219797254 40.66425770878601 M32.50302708033003 -0.8351886348676318 C21.894809273937476 12.650070998437975, 11.904311645502148 25.935230907516036, -1.2446529945904334 36.974506697343266 M-3.2159984093847473 33.80363696222631 C6.2023825446707015 22.55217343195727, 21.29491662302282 15.097022366802099, 32.472773172517364 -0.7423277725778785 M1.6022460901214437 33.06874632550907 C8.85195525766973 27.238251920221273, 18.05002397936637 17.83171947902906, 34.557988925311804 -1.2748946546834903 M34.14991601963824 -0.21808593290881362 C20.945687318776535 15.732884255064443, 9.564035138518058 31.834809977821656, -1.780166941175242 42.66178013533659 M38.858606644946235 -1.5264521896920256 C24.83573439992402 10.722600019305762, 15.471613984342358 22.450681749932546, -1.097649753993232 43.52256941921097 M-0.8791985543551153 34.89405404284829 C13.448338032052272 26.634059400058504, 23.235643280735466 20.56850414490559, 38.51019151731384 -0.5255059767054231 M-0.9931820344684974 37.0887967137331 C6.517139479027458 32.2441454596011, 15.90991594315014 22.08424619879306, 37.68325157128228 -0.02948926034844046 M38.01218383503913 -1.1935452676907872 C34.48878459803159 8.553678019107698, 18.427454749810344 21.626608475931228, -2.8858715528676786 49.69967423155054 M39.40847385290545 -1.4748692332345534 C26.816129809783103 16.522491715104902, 12.233267253881955 31.03880715959547, 1.5659082052007092 47.00102865887369 M0.39312831100675716 44.134215670124874 C11.785570800495778 29.29192800753046, 25.937277169538476 14.648684541307814, 39.662123799768196 0.39294850424959904 M0.9312461705086141 43.438770897305005 C7.354759847719089 31.666244690004127, 16.729078538419987 24.088180244796533, 43.192789487876695 1.0669137699407791 M48.07012515315769 -1.6802056637639193 C28.427999460632 14.694439911415815, 17.548133213094847 38.40737519062647, -0.5992505377764754 49.54646783380737 M46.00491491803935 -0.6988315905362388 C31.800482545458937 12.106854749934437, 18.290170069212227 27.81156259197428, -1.3157723256044225 52.64653665056942 M1.3960455710855282 43.47549448910557 C15.276395899383093 29.6564633571637, 30.837287228615445 11.076160728932736, 46.52943889654359 3.708797896909646 M1.0441678225121915 49.40683211964066 C18.526812288928067 28.059554044848234, 37.69307281883969 9.862330060171768, 44.691339885871855 0.960612606844796 M48.89534146350775 -1.4792282991771035 C37.84184839442803 13.2520721926515, 21.144234570761938 32.46278929552457, 3.2140333020215497 58.74741721035865 M47.44338311066523 1.7450549124279595 C31.119703133042886 22.08003616033463, 15.346524096613866 42.30620919125254, -1.3093689823635586 55.09202472575446 M1.9230331242969818 49.80585272909133 C15.824978739526928 36.651948239958394, 33.66482424810143 19.479764728791498, 52.47155204255602 1.7458093438563722 M0.7220789238447693 50.077526812354954 C9.980255581037556 39.49422546460566, 20.37151089579587 28.960566631735702, 49.393602859370226 -0.3635934478374372 M55.184496188903125 -3.766083095627298 C45.13559506966145 14.197206954415266, 26.125208510211422 25.202392873263683, 0.5118347588177485 65.16494940453558 M51.48637423529853 -1.1906173566969516 C36.202592807016956 17.680816647930833, 20.106735797406138 37.210798937405904, 0.9978239539412002 60.91359179943967 M-0.261739024742635 59.10273330873559 C20.522787358526777 42.47446035327179, 33.58954369126358 23.13553173900315, 54.14814431712179 -1.3837828909294263 M-0.6090822129913462 55.41736128874474 C9.524999471844588 42.930089045588055, 22.923259955126138 32.30528696586201, 51.99777452536052 -0.2746511008070742 M58.32601084859127 -1.0295963714369396 C42.854756409321084 20.26016919392253, 25.357933942333258 35.98257451925507, -0.3268919017933918 67.68194367846132 M57.92242755326942 -1.4426472585559313 C34.764129109846316 25.06825153803267, 15.252739619787313 51.006724983651615, -0.11905762092731909 65.99084789925308 M-1.7976761741310057 61.7527114720621 C20.121756275356695 37.772810202420246, 44.23044903008113 11.910066356753113, 58.33578669531593 1.5375817269887335 M-0.17989226407846814 62.440646283906425 C14.832496990617049 42.68193242406147, 31.432844082549437 27.327757206234327, 57.99482346045125 0.9048354523976645 M60.01047897524316 -2.963311062352261 C34.698450403264104 31.00344014864073, 12.426067160299297 55.56670144184396, 0.31367152175429425 68.97341932675994 M60.044181621322664 -1.5975265122221671 C38.42033707092662 27.824357518002593, 17.668863792077396 50.859877537621124, 1.8353996312959824 69.8703548079791 M0.27242147301791064 62.70732682703082 C21.192821850183176 44.527916505005734, 40.358214599630934 16.758037534509192, 59.10928819601861 3.3764560846202976 M-0.5440318757402434 66.75735875310218 C24.29103728954373 41.29219189369698, 46.58106029707115 16.715142186345876, 63.07253114171968 -0.20825377160150005 M61.41051254373715 0.7617386478814225 C44.385132395542456 19.15869004932092, 30.27557667355388 41.322688834726435, 1.5816251191833484 71.40642476264046 M65.4978618690116 -0.9690839199579324 C49.631324187128214 18.43180886934867, 29.026893630322306 40.23538656544795, -1.09947942690036 74.12273156843695 M1.7980055041626102 74.00640985433594 C11.697447874429159 60.47265482083494, 28.244285490663202 39.93772179805945, 64.26181110295441 2.4659314176729588 M-1.337488590551465 69.94014579415816 C22.198800676430114 43.327930825116795, 48.20775988682676 20.191413912322613, 63.49465415520161 1.5804977698405658 M67.60598878530053 2.412600576393414 C46.18742199254504 26.895713115126654, 19.998541712931722 58.283458093053376, -3.3603731748202517 82.83738477166249 M69.23302549894693 -0.8494964087621257 C47.059420998074955 24.965801299787238, 26.461508897605032 50.25856199828626, 0.45648399195602973 80.54597838056152 M0.20057288296181142 75.948903809934 C25.270723498805047 50.47085126060142, 43.833408285904916 30.20725013279015, 70.05598954998264 -2.1314953119461446 M0.7799291556379435 75.65151929912288 C22.846341485407873 49.25292440405843, 46.498208076553745 24.318687646525138, 67.76953569233748 1.2809659025796085 M72.94509220718462 -3.0565687724962167 C51.32334359574083 24.75673848273029, 32.208650293056806 48.302629910168136, 3.2476205116085506 82.09816731181314 M72.00158758949581 1.6677072863980644 C56.0617441429468 17.470493777594264, 38.80517529503858 36.98718099364041, 0.11529470557782773 86.00759923842098 M3.187842127045874 76.94277699180545 C25.931425355058558 48.38334385687125, 52.546127548425034 20.114447663329976, 73.68099845644086 0.7890399217251343 M1.310388486084027 80.69735302142419 C26.876939215035314 49.872041470822886, 54.12750428024241 21.479155730761914, 73.4934103186314 1.0627681889974019 M75.9014326024288 2.757331842033077 C58.940441104452155 23.650339861435157, 46.833737604792184 37.36594628611686, -0.5984072333650605 91.69076342916783 M78.48330359048686 -0.6469016227779258 C51.78360430005897 26.47783417397751, 31.267278159348994 53.29601739233015, -0.4114206122688797 87.24520426077113 M3.978038308504221 85.38950137649502 C26.697222166204007 56.522456631084125, 49.85475271733867 26.146502625985853, 77.77410389950316 3.1560381983475505 M-0.13788890653109576 85.85479109919562 C27.25080985831059 49.79778722123614, 55.556442364772145 20.69847262950885, 78.80540695776764 0.17904415532202478 M83.33578575966358 -3.5330012431636177 C56.91660645978085 24.53699806705058, 30.191683020367776 54.9729254186705, 0.33283963208401346 91.33825161709339 M79.32975358249476 -1.407280343525601 C64.14260691212051 17.881828656737, 48.0012800613982 35.71119309039262, 1.7071836709088863 92.89591586393783 M-0.04284019270881423 89.78443882161685 C26.181679752567014 56.27422165861478, 61.13636451585901 28.85323902027895, 79.11187044055428 -1.7867079828030707 M-0.5166284767338265 89.74876107352362 C22.359744302021376 63.98986777277658, 48.66382267156592 34.82493955795324, 79.25620082409607 -0.9914826089183011 M86.73960745669716 2.5890999248166864 C52.1595608400742 37.45670174142371, 14.312644866529931 79.87080862877833, 2.778319701885321 97.92400086551027 M83.75841032018901 -0.07814699975973305 C56.85683470936857 32.65728507347013, 28.79633110131301 66.7804415527333, 0.9333380081687839 99.73096625624456 M-0.7331410322676764 89.7472395997897 C22.742273387617132 71.49545613332556, 41.108173444293534 43.766310718570935, 83.42157725889183 -2.128995568829991 M0.44785109558935066 92.79664788722684 C26.245681865137104 64.58200337217487, 50.80005780765753 38.685943109973316, 86.74930173033869 0.2151827440001446 M91.73367593023343 -2.929181127640117 C51.78933058609012 33.468753797929416, 22.617309039664114 79.56444699912585, 0.23327496467595887 96.95297210907414 M90.29280108239233 -1.4732617112407658 C73.80970345540635 20.77621988812221, 51.85880314123625 40.42123659022991, 2.259645919911392 101.47551554739445 M3.281237304608256 96.3739855072412 C30.885060279771313 67.88489976828778, 58.96361876228608 35.905986322686715, 90.05938966238551 -3.52989959134076 M1.4485399646151507 98.67568608083369 C29.57418371526393 67.72720797376962, 58.7920188897194 31.66829699028674, 90.82246647565059 1.583161913350791 M89.58367283894536 -1.9535179061472387 C74.82189452042785 20.896394642679837, 55.04857250647919 44.86821265111927, 9.927790350638 100.6184102377984 M92.69496924151122 -1.099844123675921 C62.12271722375045 35.237741822805525, 31.624549357432098 72.07749851198767, 7.100369579322106 100.8348588199357 M2.056765838389078 99.94693785339429 C35.407977447699984 60.87403609363569, 72.75904632817486 30.440074415747258, 91.86819067483634 -0.15085909854131252 M2.2749572333508508 99.33830894357678 C35.96347246548163 64.22743643830584, 70.96116473726038 23.831262134735304, 94.64564400953954 0.890244526601383 M94.60345889285752 0.9667296124361862 C72.78999551987488 23.51029630556066, 57.217852340023775 52.106987377585305, 12.78367482092387 98.86975048471355 M98.82002703373533 0.36394965439262705 C75.83825847090228 26.725172113803364, 54.79364754935732 48.15511318833651, 11.589571582632702 100.98198609206267 M2.3850602242125216 100.39911154965091 C38.59795406006246 64.10210016376318, 68.14306656806176 30.76197426890312, 99.20706525343779 3.382614415232533 M6.578058489360394 101.8040855023977 C41.01665427831014 61.184288478237384, 75.38817426342469 25.31622792081002, 95.64382869022954 1.3806173513582474 M96.78326898669917 2.7212381303426714 C84.18212461733879 28.614132842448594, 58.963394432569444 48.88060555000179, 15.656403951776216 98.26500660904065 M98.51568467577431 2.8418721487408973 C74.57551987873379 32.37388437322191, 50.095205782333245 61.14321083756595, 12.39628567878963 101.17031216300157 M10.58756617761083 99.8935074945556 C40.38045077092227 62.27629182043619, 78.27962723188847 31.11348394601039, 100.10525692957447 -0.26708626738323815 M11.24181562159418 100.86985182605802 C30.913651998791163 79.16577640182558, 54.58622445986431 56.75737907463649, 101.08287180850338 -0.6754539096095176 M99.76107553969494 3.7310037255532684 C68.5370908223141 37.61125661372546, 45.20450324778242 72.57650197661516, 14.535455269470212 103.7712826789438 M98.88845277750517 4.268081217033392 C82.24513667160565 27.102219906350797, 65.72139182786228 48.30947160946933, 16.158136600879264 101.83813396784475 M17.140848020082103 101.38688749127972 C35.43026353613513 78.73445685122638, 46.70847748674257 60.04795212348654, 103.89169190268954 6.215751984582363 M12.896019247739751 101.28540663336638 C46.939850127549285 63.82864537004431, 77.98042454190585 28.690163631588636, 99.7015881346218 4.980612477613335 M97.8837423288913 10.539081987096928 C73.33538027975248 45.379671489351644, 47.36527009184933 70.2020745751714, 24.84085338065198 103.67484767290637 M101.55070145720602 10.087971249005086 C80.46280504871561 35.36430467299613, 60.669598215782464 56.60787016740837, 21.58513514716895 100.04115233784694 M14.649645025956412 100.54369903064021 C43.80380879137228 78.45563772048463, 62.424414868965734 51.019759011457054, 101.6395088875954 9.78945988013608 M16.881306180705437 100.7282734146139 C38.4582278342977 78.07859019307922, 59.66465864449624 52.99182176936894, 99.40151611335854 9.665715837905559 M103.68489171931895 18.144097178246703 C78.79448612138317 35.308979491784335, 65.03154256229129 57.71993028328832, 29.311753651503302 102.22909861025497 M99.42731432722111 13.47321426253837 C79.97967152812828 35.46742965652651, 62.00292602441711 56.33878361823982, 27.228535661326422 101.82081539052001 M21.466997830567166 99.6473464726457 C46.966869785205255 70.43007813290686, 69.20965240773211 44.520252894156265, 98.34374035025166 17.710399733967755 M20.531878583949148 98.31221044278062 C36.89074236916904 80.55160948978208, 55.71637920684 63.30736736290803, 98.85542926406289 15.392403243134298 M100.05190403042502 16.98675329764439 C76.33416515328815 40.62968388622648, 54.05167151730237 70.16378421745642, 28.984017472647253 97.27824192849508 M100.76452261190774 19.48213374672365 C82.86244548355901 39.89226161024406, 67.53928329202772 58.39663124407964, 30.20592848834734 101.77614706323689 M23.215939407633723 97.28730873757394 C48.861297972339564 70.89661697652286, 79.29016744604496 43.11011142571181, 96.24626898549893 19.87374936394655 M27.622273854775273 100.82646332377857 C47.97272375106497 74.14263707349092, 74.26657839921297 48.61966341429264, 99.72596725109459 20.111053934345016 M97.09342408456997 22.98632431163724 C76.20593211638487 43.394837615395346, 54.65689582267063 72.6466260585473, 37.806277397347436 96.76627174449159 M98.17232282173585 23.894231706576477 C82.9762119097124 45.10198427573133, 67.32134728463824 63.933020339019386, 34.91200990476995 101.48704844495373 M31.029112082486463 100.42978973020664 C44.61688799876683 80.92772668297212, 66.01654676686734 60.01872525147328, 99.78789020914273 24.625942867176537 M28.365927096058602 99.93117822461694 C42.21803468440397 83.84433941240852, 60.02557669771141 67.39977931596766, 101.44565216109321 25.73026751003392 M97.7877995198256 31.434373776242474 C86.38433841162893 47.41186264926167, 69.77746166068046 65.57004659363847, 41.28129134784359 103.46538309260029 M98.6815061193628 28.547668835040547 C85.42359731094855 44.7159903366192, 73.49821178718291 58.700094135153215, 38.8071912831983 98.78054136171346 M35.9680714525373 100.08007722940704 C52.05683840560542 81.46677262287092, 67.47870141927052 57.23676065407093, 97.49654500448248 28.528419572432092 M35.03902455414714 98.24456221793835 C50.50291333836328 81.2763546404052, 67.71968007079288 62.030107831258235, 101.3283807004031 26.899387618016085 M100.36970240047933 36.899805225923636 C81.79002499215314 49.77400818552487, 64.27863209416601 71.09714436807901, 38.598173249972845 97.36864219162138 M98.91736885897208 34.053646622266655 C82.31731926781981 55.41229579274852, 64.0043719226296 74.67770388154047, 42.23521049792873 100.98496547695906 M36.69994436599759 102.37889639193163 C50.82875439341107 82.1887710452196, 69.16990440215628 67.75598349499185, 100.92937705921588 35.0278208043021 M36.841913163258845 98.23921853940101 C52.164690555027995 83.09728225757473, 63.10082506706522 71.28368154270646, 98.57236709002028 33.62655126093894 M96.62224774180002 37.45633174447468 C88.15168828516093 54.77345904444473, 71.24406880323427 72.79421859117892, 47.119067528076535 97.46059982358958 M101.73487570052035 37.777272396771906 C82.44514091515666 57.68849743189392, 64.36601353799402 78.95204659741788, 47.30255778441246 98.9652241170185 M44.484375609129955 98.35086087858676 C57.37166323357185 79.53689927161244, 73.49430838102553 62.51376652317373, 99.96847131112455 35.588550249373476 M43.03014522356487 99.52715872205805 C53.87463095026369 88.44722101621387, 67.68534485597533 74.79901886946175, 101.45324923727738 35.83547941121441 M100.73312938447948 42.46438765231165 C84.92248556230797 63.5188862733782, 66.89274762430267 81.45653035093677, 52.39174553713438 96.19031648566339 M99.37783106991176 41.11922474569958 C85.7047597615184 59.02416098072819, 71.05462251392193 76.98329703374272, 47.91574652188706 99.12244453672355 M43.81051010141675 96.0508002165339 C61.098952357416024 78.73357386647564, 81.26494033410155 60.92319117330575, 97.59513071461656 40.04722544557559 M46.73464240166878 101.1623524898837 C67.4078162782427 76.46862604873934, 89.41600497123311 55.31020958429593, 101.40196317697094 42.97958480941724 M103.24396142666055 49.364221388227335 C81.87583882680683 65.41730119424737, 70.41656458749529 85.59668044278243, 54.663567760228865 100.98905525156678 M98.78103879070358 45.24788940038605 C88.28915628295692 57.47861725788677, 79.21987807114786 66.73477556916363, 53.76378551908628 99.83755489432147 M51.271526928889806 101.79845312688465 C61.09314605871318 88.4546412482037, 67.98141182527964 78.00650707187059, 99.59656977673264 47.32833400720145 M49.88684120313353 98.07891889377414 C63.63864360407793 85.47055533192197, 82.0297874996893 67.66441079641226, 99.29833604957165 46.77908949294003 M97.2542710770445 53.29396305602964 C89.70937540220596 66.86799548724224, 78.89778146305113 75.69653267281426, 56.50904111259962 96.95417232869943 M100.75030531271241 51.152521812564615 C89.94509569010754 66.72180166717456, 75.58142260872052 76.78511040423805, 58.6290823003934 101.57270164008793 M54.892478281377635 101.49244348189796 C59.10540920967886 89.06119179238055, 71.58887736060174 77.81497273382527, 97.99000585288668 50.23294051262171 M54.02052922336136 101.04212397951444 C70.64162708261891 84.06902647386318, 85.21753034634257 65.00347361708052, 99.25044152465124 49.77991377477106 M98.72000018029517 52.79676787278316 C92.87238856272394 68.79250252153984, 79.60990330282031 78.11627930719648, 60.69377052876932 101.02883136852692 M101.92451306834555 55.308112517483664 C90.10363718861132 66.82449924332025, 82.30803979518318 73.30903791533915, 61.35662787304387 100.39243405530563 M57.141019219293824 102.6242844328981 C65.58992242733626 88.08725695207528, 75.01088973527493 77.04576140030932, 101.43262954788129 54.912291408027116 M57.267487162449385 100.09849179673995 C69.00809346744626 85.11661691762531, 80.08594842663445 76.01112282762935, 99.23049005311151 57.21575768044768 M99.51369799735144 63.64928225989938 C86.78091857262136 71.55166294336931, 82.22444474614714 86.83047257672563, 61.870699764066146 96.64223371685597 M100.99104741641729 59.52569931954451 C90.8431706207405 68.28484730418971, 82.36982964134296 81.19624539987713, 65.93936764332757 98.12246916567638 M60.174322138371274 102.29371487912705 C75.36539904937514 84.18857533813178, 88.27412285748058 76.99549501059445, 100.0953882066922 64.3902743050269 M62.088154352630255 100.44736456580239 C70.82671023021892 90.71470291444156, 80.45657922192095 78.69687340227287, 99.10408267113289 59.81091350836434 M99.18728549216138 65.43371971450507 C89.67110738187094 77.96696594438414, 82.74883523715258 86.64901039774307, 67.64907804005885 100.17140698513352 M98.38496851752073 63.221833436579495 C92.52090542479625 74.99744088807483, 80.33931626993953 86.0958250447531, 68.16059431984941 101.24047603680636 M68.69547362776562 102.40378999529078 C78.86956308674444 86.13093871376805, 89.08085309406175 73.92301136010411, 102.1334423531665 63.11953965258069 M66.61981106735512 99.88087705026182 C74.05883027134954 89.78743100475518, 79.36804064382898 84.93073538889135, 98.42504923280788 64.54928694809449 M103.81142324468594 70.13646588258412 C91.84070908259827 74.89374489813076, 85.63350767067031 79.42353519504837, 74.55880186862889 98.22168426777736 M100.53610644393322 68.21483474368456 C94.23540775811648 76.51573342006532, 90.11513220353916 83.31187683376828, 75.38328393221587 99.80767439189101 M65.60220823681192 102.27430686663317 C75.942463679001 90.62269988138395, 81.73612807068015 88.2261479173313, 98.60954270658694 71.62132384338183 M71.48945677545937 98.99129177436112 C77.94538362308603 95.53826959956336, 84.45544637572291 88.32201077578546, 98.49391423595384 69.09072750129778 M101.13021131210063 72.8614451032018 C95.53711425784402 83.8544946291813, 88.18559088773571 92.5324611832466, 73.79380851414977 99.3446959220498 M100.38287689331581 73.4167799991456 C92.83115079769122 84.14109630444906, 85.77037985616809 94.18807763962545, 78.14901340084853 100.91504563217272 M76.13684782863308 96.77846415793232 C81.4743568125125 98.12175267238585, 82.71591900310143 92.38333370333052, 103.5720092151371 72.6449583860642 M74.70351538395713 99.09246902206996 C80.65996533259907 93.44270501261009, 84.98086959217918 88.29867194055392, 98.25838576469818 73.86408381625574 M100.29572607488049 77.39023936888528 C93.20717830493523 84.32850384809686, 88.18152281026616 87.04575748600948, 80.77766957652116 102.02203540592804 M101.53862591400164 77.5292359710744 C93.85393254471101 84.64564682364461, 85.11866501640337 94.8607083914557, 82.85519431234252 100.3127502826554 M77.32085094910877 102.87278683906662 C86.09765157499652 96.0321296457316, 91.19104129065258 88.40362166265366, 101.398480835822 81.67591683695149 M79.20636603194005 99.2766646949006 C82.48319410860441 94.35133274737807, 91.00382847728498 88.64839906102041, 99.6885158275188 80.62137145003422 M101.19188346461122 81.55283564033545 C91.80108312576647 91.27691625064416, 88.30202782539916 98.3277710040627, 82.09704755537751 99.89682633427903 M98.77514886105854 82.24830800237774 C96.64450168046349 89.86473245452302, 89.66946707445504 94.39959552233432, 85.10289999860677 98.85974539796389 M78.66853529740396 97.14374637654731 C89.77793309689682 93.77449858246649, 91.8129146614823 86.73107796479661, 102.29006910494911 83.5347338981661 M82.7072620399388 101.21064229046154 C86.79259909563437 92.03405915401828, 96.21581300561586 85.69051116842397, 101.36341631496768 81.43100763422383 M100.84156849902631 85.1703897187225 C96.77617067387044 93.50661270808644, 89.23784726062262 100.72401382203944, 92.5052399760807 100.36346898109744 M100.87466645163327 86.42731124986065 C96.69644785076574 91.11198472887035, 91.22078071953815 98.12489458801123, 90.32170555764128 100.0251123891243 M88.73150302380137 97.80561631703142 C89.21473661018314 96.10931565801104, 95.82818649063037 95.65174741664201, 97.6067159927386 86.54771345376582 M84.8192553323347 98.57515545663867 C89.1670013370188 95.31715401213351, 94.15695620275868 94.08641906741103, 101.80119853281735 86.47410582513763 M101.11711652659118 94.00282397172342 C97.55427058695192 95.53883192343609, 93.79945283924654 97.32414696401894, 93.00863215762183 98.06719670121478 M99.33644434321654 91.76362051272211 C98.87636401589832 94.03212777590365, 96.00151037264285 96.9275010649549, 92.64180927493345 99.49761099669679 M90.28984631573223 101.99555472426724 C95.18901457882606 98.50129710411183, 95.93234157279512 94.20542483442505, 100.36406399893595 93.10632714502313 M88.5384044528084 100.32909418297963 C91.06022257099256 99.46277042130212, 94.19168080424645 96.52513401645987, 98.85058535750603 93.46108195854153 M99.69878942133055 97.35127224216734 C99.80073718089665 98.90042474635483, 97.72838528473635 98.5497293070079, 98.0983525166112 99.80994081344964 M99.97646690601538 96.86329662094667 C99.11285761195127 97.57131943752971, 98.25955225572478 98.42361660821705, 97.2459461607512 100.27708549797622 M92.02988070583736 99.93614095490588 C96.48405714543118 100.38272083011316, 97.8999869715158 96.7673505134015, 101.38913035482129 96.27241062145795 M93.22097893166844 99.93284165872315 C96.70954059530386 98.36174114509768, 99.10436287406172 97.35908134252418, 100.2909217185525 96.89334220923838"
              style="stroke: url(#grad1); stroke-width: 1; fill: none;"></path>
        <path d="M0.5508443299888057 3.4586010191529173 C39.21284372915347 1.894749304566571, 72.78748634267109 1.0890664157820558, 96.55707217148817 2.9333967425140752 M0.881643653105673 1.6614755741884562 C28.936993080733988 -0.8530047708609558, 53.962795497307425 1.2282584078549617, 99.13025507290276 -0.5906730331602636 M96.14434337325773 -2.2120188447008378 C101.46987590307059 22.353089727058865, 101.00058452906723 41.75068193526096, 101.35431669855078 97.51895010744609 M99.14511071090348 1.100124702840227 C99.16052827135537 29.138729338968872, 98.92426936590167 56.29059699997437, 99.98022776457942 98.96476307810164 M102.47856583297346 98.55233634559616 C59.97709472646257 101.22848601176538, 23.64662023114265 95.55791567643209, 1.6686885531405053 103.4405501215319 M101.24018154017611 98.690106301638 C72.66724792160886 100.63378328819287, 44.26646801652062 97.23015744248478, -1.4145515677455052 100.87156186076852 M1.8140601523598967 102.68637897785493 C2.914464246529974 73.95830520605637, -2.6373102943601356 54.09453603397818, -3.9504503256400785 -0.19098200189156955 M-1.1239028150525954 98.00519889887303 C-0.07452113833036034 74.98047025300681, 2.995029613702515 51.94418798327239, -1.4614094939578077 0.3274252037991756"
              style="stroke: rgba(0, 0, 0, 0.1); stroke-width: 2; fill: none;"></path>
    </g>
</svg>