<svg xmlns="http://www.w3.org/2000/svg" viewBox="0 0 800 800">
    <path d="m798.600037,400.041565c0,-59.502747 -66.251648,-115.893036 -167.826477,-150.862335c23.440247,-116.442307 13.0224,-209.083492 -32.881653,-238.743326c-10.580688,-6.957234 -22.952087,-10.252777 -36.462769,-10.252777l0,40.828039c7.487915,0 13.510681,1.647774 18.556946,4.76022c22.138062,14.280663 31.742188,68.657013 24.254211,138.595604c-1.790588,17.210037 -4.720642,35.335495 -8.301758,53.827118c-31.904968,-8.788101 -66.739868,-15.562256 -103.365448,-19.956314c-21.975372,-33.870804 -44.764587,-64.62915 -67.716644,-91.542686c53.066437,-55.474854 102.877197,-85.867023 136.735474,-85.867023l0,-40.828038c0,0 0,0 0,0c-44.764648,0 -103.365479,35.884725 -162.617493,98.133767c-59.252045,-61.882862 -117.852936,-97.401424 -162.617477,-97.401424l0,40.828025c33.69545,0 83.669052,30.209087 136.735428,85.317783c-22.789246,26.913536 -45.578461,57.488792 -67.228302,91.359596c-36.78833,4.394058 -71.623322,11.168213 -103.528214,20.139389c-3.743973,-18.308533 -6.5112,-36.067825 -8.464584,-53.094772c-7.650711,-69.938591 1.790573,-124.314934 23.76593,-138.778713c4.883408,-3.295528 11.231812,-4.760212 18.719742,-4.760212l0,-40.828028c0,0 0,0 0,0c-13.673569,0 -26.044861,3.29553 -36.788361,10.252777c-45.741272,29.659849 -55.996399,122.117914 -32.393265,238.194071c-101.249313,35.152374 -167.175323,91.359589 -167.175323,150.67926c0,59.502747 66.251556,115.893005 167.826416,150.862366c-23.440338,116.442261 -13.0224,209.083496 32.881638,238.743225c10.58075,6.957275 22.951996,10.252869 36.62558,10.252869c44.764572,0 103.365463,-35.884827 162.617477,-98.133789c59.252014,61.882874 117.852905,97.401367 162.617432,97.401367c13.673645,0 26.044922,-3.295471 36.788452,-10.252808c45.741211,-29.659729 55.996338,-122.117859 32.393188,-238.19397c100.923706,-34.969299 166.849854,-91.359619 166.849854,-150.67926zm-211.939941,-122.11795c-6.022949,23.617981 -13.510864,47.968384 -21.975342,72.318695c-6.674011,-14.646851 -13.673645,-29.29364 -21.32428,-43.94046c-7.487854,-14.646851 -15.464111,-28.927521 -23.440369,-42.84201c23.114868,3.844818 45.415771,8.605072 66.73999,14.463776zm-74.553406,194.98587c-12.696869,24.716522 -25.719177,48.151428 -39.230072,69.93866c-24.254211,2.380127 -48.834076,3.661743 -73.576599,3.661743c-24.579865,0 -49.159698,-1.281616 -73.251129,-3.478699c-13.510773,-21.787109 -26.696014,-45.038971 -39.392853,-69.572449c-12.371338,-23.984161 -23.60318,-48.334503 -33.858276,-72.86795c10.092346,-24.533417 21.486938,-49.066864 33.695465,-73.051056c12.696899,-24.716522 25.719299,-48.151459 39.230103,-69.938629c24.254242,-2.380096 48.834045,-3.661667 73.576691,-3.661667c24.579742,0 49.159607,1.28157 73.251099,3.478592c13.510712,21.78714 26.695923,45.039001 39.392792,69.572418c12.371277,23.984192 23.603149,48.334595 33.858276,72.868011c-10.255066,24.533447 -21.487,49.066895 -33.695496,73.051025zm52.578064,-23.801086c8.7901,24.533417 16.278015,49.066833 22.463623,72.867981c-21.324219,5.858765 -43.787903,10.802063 -67.065369,14.646851c7.976074,-14.097534 15.952393,-28.56131 23.440308,-43.391235c7.487915,-14.64679 14.487427,-29.476746 21.161438,-44.123596zm-165.059174,195.352112c-15.13855,-17.576172 -30.27713,-37.166321 -45.252899,-58.58728c14.650238,0.7323 29.626007,1.281677 44.764587,1.281677c15.301331,0 30.43988,-0.366272 45.252899,-1.281677c-14.650238,21.420959 -29.788849,41.011108 -44.764587,58.58728zm-121.108551,-107.837219c-23.114853,-3.844849 -45.415695,-8.60498 -66.739944,-14.463745c6.022873,-23.618011 13.510727,-47.968445 21.975357,-72.318787c6.673996,14.646851 13.673492,29.293701 21.324234,43.940491c7.650681,14.646851 15.464096,28.927551 23.440353,42.842041zm120.294617,-381.000702c15.13858,17.576202 30.277191,37.166351 45.25293,58.587311c-14.650208,-0.73233 -29.625977,-1.281586 -44.764557,-1.281586c-15.301331,0 -30.43985,0.366165 -45.25293,1.281586c14.650269,-21.420959 29.788788,-41.011108 44.764557,-58.587311zm-120.457367,107.83725c-7.976227,14.097595 -15.952454,28.56131 -23.440353,43.391266c-7.48793,14.64682 -14.487427,29.29361 -21.161423,43.94043c-8.790146,-24.533356 -16.278046,-49.066833 -22.463699,-72.86792c21.324173,-5.675659 43.787872,-10.618958 67.065475,-14.463776zm-147.316132,229.2229c-57.624222,-27.645874 -94.900906,-63.896759 -94.900906,-92.641174c0,-28.744354 37.276684,-65.178375 94.900906,-92.641205c13.9991,-6.774139 29.30043,-12.815979 45.090149,-18.491638c9.278427,35.884766 21.486969,73.234192 36.625549,111.499023c-14.9758,38.081726 -27.021545,75.248138 -36.137253,110.949707c-16.115265,-5.675598 -31.416611,-11.900574 -45.578445,-18.674713zm87.575745,261.629089c-22.138123,-14.280762 -31.742157,-68.657104 -24.254257,-138.595703c1.790588,-17.210022 4.720627,-35.33551 8.301819,-53.827148c31.904861,8.788208 66.739914,15.562256 103.365463,19.956299c21.975372,33.87085 44.764587,64.629211 67.716553,91.542664c-53.066315,55.474915 -102.877106,85.867126 -136.735428,85.867126c-7.325119,-0.183105 -13.510742,-1.830872 -18.39415,-4.943237zm386.114807,-139.511169c7.650635,69.93866 -1.790588,124.314941 -23.765808,138.778748c-4.883484,3.295532 -11.231934,4.760193 -18.719788,4.760193c-33.695557,0 -83.669128,-30.209106 -136.735474,-85.31781c22.789215,-26.913513 45.578522,-57.48877 67.228333,-91.359558c36.788208,-4.394043 71.62323,-11.168213 103.528137,-20.139404c3.743896,18.491638 6.67395,36.250916 8.4646,53.277832zm62.670471,-122.11792c-13.999084,6.774231 -29.300537,12.815979 -45.09021,18.491669c-9.278503,-35.884766 -21.487061,-73.234131 -36.62561,-111.499054c14.975891,-38.081757 27.021667,-75.248016 36.137329,-110.949707c16.115234,5.675659 31.416504,11.900574 45.74115,18.674713c57.624268,27.645874 94.90094,63.896851 94.90094,92.641205c-0.16272,28.744415 -37.439514,65.178375 -95.063599,92.641174z" fill="#61DAFB"/>
    <circle r="63.675781" cy="400.041554" cx="399.137209" fill="#61DAFB"/>
</svg>