<svg xmlns="http://www.w3.org/2000/svg" viewBox="0 0 222 220"
>
    <path d="M145.1,2.4H77.5C36.9,2.4,3.7,35.6,3.7,76.2v67.6c0,40.6,33.2,73.8,73.8,73.8h67.6c40.6,0,73.8-33.2,73.8-73.8V76.2    C218.9,35.6,185.7,2.4,145.1,2.4z M161.7,144.5c0,11.3-16.4,20.5-27.7,20.5H88.6c-11.3,0-27.7-9.2-27.7-20.5v-1.1h100.8V144.5z     M161.7,120.8H88.6c-11.3,0-27.7-9.2-27.7-20.5v-1.1H134c11.3,0,27.7,9.2,27.7,20.5V120.8z M161.7,76.6H60.9v-1.1    C60.9,64.2,77.3,55,88.6,55H134c11.3,0,27.7,9.2,27.7,20.5V76.6z"/>
</svg>